<svg width="127" height="127" viewBox="0 0 127 127" fill="none" xmlns="http://www.w3.org/2000/svg">
<path fill-rule="evenodd" clip-rule="evenodd" d="M102.301 119.289C106.942 119.289 111.393 117.445 114.675 114.163C117.957 110.882 119.801 106.43 119.801 101.789C119.801 97.1478 117.957 92.6966 114.675 89.4147C111.393 86.1328 106.942 84.2891 102.301 84.2891C97.6595 84.2891 93.2083 86.1328 89.9264 89.4147C86.6445 92.6966 84.8008 97.1478 84.8008 101.789C84.8008 106.43 86.6445 110.882 89.9264 114.163C93.2083 117.445 97.6595 119.289 102.301 119.289ZM102.301 126.289C108.799 126.289 115.03 123.708 119.625 119.113C124.22 114.519 126.801 108.287 126.801 101.789C126.801 95.2913 124.22 89.0596 119.625 84.465C115.03 79.8703 108.799 77.2891 102.301 77.2891C95.803 77.2891 89.5713 79.8703 84.9767 84.465C80.382 89.0596 77.8008 95.2913 77.8008 101.789C77.8008 108.287 80.382 114.519 84.9767 119.113C89.5713 123.708 95.803 126.289 102.301 126.289Z" fill="#EAECFF"/>
<path fill-rule="evenodd" clip-rule="evenodd" d="M102.301 89.5382C103.229 89.5382 104.119 89.9069 104.776 90.5633C105.432 91.2197 105.801 92.1099 105.801 93.0382V100.339L108.275 102.814C108.913 103.474 109.266 104.358 109.258 105.276C109.25 106.193 108.882 107.071 108.233 107.72C107.584 108.369 106.706 108.737 105.788 108.745C104.871 108.753 103.987 108.4 103.326 107.763L98.8009 103.237V93.0382C98.8009 92.1099 99.1697 91.2197 99.8261 90.5633C100.482 89.9069 101.373 89.5382 102.301 89.5382ZM28.8008 59.7881H21.8008V66.7881H28.8008V59.7881ZM21.8008 52.7881C19.9443 52.7881 18.1638 53.5256 16.851 54.8383C15.5383 56.1511 14.8008 57.9316 14.8008 59.7881V66.7881C14.8008 68.6446 15.5383 70.4251 16.851 71.7379C18.1638 73.0506 19.9443 73.7881 21.8008 73.7881H28.8008C30.6573 73.7881 32.4378 73.0506 33.7506 71.7379C35.0633 70.4251 35.8008 68.6446 35.8008 66.7881V59.7881C35.8008 57.9316 35.0633 56.1511 33.7506 54.8383C32.4378 53.5256 30.6573 52.7881 28.8008 52.7881H21.8008ZM56.8009 59.7881H49.8008V66.7881H56.8009V59.7881ZM49.8008 52.7881C47.9443 52.7881 46.1638 53.5256 44.8511 54.8383C43.5383 56.1511 42.8008 57.9316 42.8008 59.7881V66.7881C42.8008 68.6446 43.5383 70.4251 44.8511 71.7379C46.1638 73.0506 47.9443 73.7881 49.8008 73.7881H56.8009C58.6574 73.7881 60.4379 73.0506 61.7506 71.7379C63.0634 70.4251 63.8009 68.6446 63.8009 66.7881V59.7881C63.8009 57.9316 63.0634 56.1511 61.7506 54.8383C60.4379 53.5256 58.6574 52.7881 56.8009 52.7881H49.8008ZM84.8009 59.7881H77.8009V66.7881H84.8009V59.7881ZM77.8009 52.7881C75.9444 52.7881 74.1639 53.5256 72.8511 54.8383C71.5384 56.1511 70.8009 57.9316 70.8009 59.7881V66.7881C70.8009 68.6446 71.5384 70.4251 72.8511 71.7379C74.1639 73.0506 75.9444 73.7881 77.8009 73.7881H84.8009C86.6574 73.7881 88.4379 73.0506 89.7507 71.7379C91.0634 70.4251 91.8009 68.6446 91.8009 66.7881V59.7881C91.8009 57.9316 91.0634 56.1511 89.7507 54.8383C88.4379 53.5256 86.6574 52.7881 84.8009 52.7881H77.8009ZM28.8008 87.7881H21.8008V94.7882H28.8008V87.7881ZM21.8008 80.7881C19.9443 80.7881 18.1638 81.5256 16.851 82.8384C15.5383 84.1511 14.8008 85.9316 14.8008 87.7881V94.7882C14.8008 96.6447 15.5383 98.4252 16.851 99.7379C18.1638 101.051 19.9443 101.788 21.8008 101.788H28.8008C30.6573 101.788 32.4378 101.051 33.7506 99.7379C35.0633 98.4252 35.8008 96.6447 35.8008 94.7882V87.7881C35.8008 85.9316 35.0633 84.1511 33.7506 82.8384C32.4378 81.5256 30.6573 80.7881 28.8008 80.7881H21.8008ZM56.8009 87.7881H49.8008V94.7882H56.8009V87.7881ZM49.8008 80.7881C47.9443 80.7881 46.1638 81.5256 44.8511 82.8384C43.5383 84.1511 42.8008 85.9316 42.8008 87.7881V94.7882C42.8008 96.6447 43.5383 98.4252 44.8511 99.7379C46.1638 101.051 47.9443 101.788 49.8008 101.788H56.8009C58.6574 101.788 60.4379 101.051 61.7506 99.7379C63.0634 98.4252 63.8009 96.6447 63.8009 94.7882V87.7881C63.8009 85.9316 63.0634 84.1511 61.7506 82.8384C60.4379 81.5256 58.6574 80.7881 56.8009 80.7881H49.8008Z" fill="#EAECFF"/>
<path fill-rule="evenodd" clip-rule="evenodd" d="M7.80079 21.2886C7.80079 20.3603 8.16954 19.4701 8.82592 18.8137C9.4823 18.1573 10.3725 17.7886 11.3008 17.7886H28.8008V10.7886H11.3008C8.51602 10.7886 5.8453 11.8948 3.87617 13.864C1.90703 15.8331 0.800781 18.5038 0.800781 21.2886V105.289C0.800781 108.074 1.90703 110.744 3.87617 112.713C5.8453 114.683 8.51602 115.789 11.3008 115.789H82.1934C80.7008 113.651 79.5606 111.288 78.8159 108.789H11.3008C10.3725 108.789 9.4823 108.42 8.82592 107.764C8.16954 107.107 7.80079 106.217 7.80079 105.289V21.2886ZM98.801 77.5337C101.122 77.2016 103.479 77.2016 105.801 77.5337V21.2886C105.801 18.5038 104.695 15.8331 102.726 13.864C100.756 11.8948 98.0857 10.7886 95.301 10.7886H84.8009V17.7886H95.301C96.2292 17.7886 97.1195 18.1573 97.7758 18.8137C98.4322 19.4701 98.801 20.3603 98.801 21.2886V77.5337ZM35.8008 17.7886H72.7714V10.7886H35.8008V17.7886Z" fill="#EAECFF"/>
<path fill-rule="evenodd" clip-rule="evenodd" d="M77.7999 10.7886H35.7999V21.2886C35.7999 22.2169 35.4311 23.1071 34.7747 23.7635C34.1184 24.4198 33.2281 24.7886 32.2999 24.7886C31.3716 24.7886 30.4814 24.4198 29.825 23.7635C29.1686 23.1071 28.7999 22.2169 28.7999 21.2886V10.7886H11.2998C9.4433 10.7886 7.66282 11.5261 6.35006 12.8388C5.0373 14.1516 4.2998 15.9321 4.2998 17.7886V35.2886C4.2998 37.1451 5.0373 38.9256 6.35006 40.2384C7.66282 41.5511 9.4433 42.2886 11.2998 42.2886H95.3C97.1565 42.2886 98.937 41.5511 100.25 40.2384C101.562 38.9256 102.3 37.1451 102.3 35.2886V17.7886C102.3 15.9321 101.562 14.1516 100.25 12.8388C98.937 11.5261 97.1565 10.7886 95.3 10.7886H84.7999V21.2886C84.7999 22.2169 84.4312 23.1071 83.7748 23.7635C83.1184 24.4198 82.2282 24.7886 81.2999 24.7886C80.3717 24.7886 79.4814 24.4198 78.8251 23.7635C78.1687 23.1071 77.7999 22.2169 77.7999 21.2886V10.7886Z" fill="#EAECFF"/>
<path fill-rule="evenodd" clip-rule="evenodd" d="M105.801 42.2886H7.80078V35.2886H105.801V42.2886Z" fill="#EAECFF"/>
<path d="M21.8018 3.78858C21.8018 2.86032 22.1705 1.97008 22.8269 1.3137C23.4833 0.657325 24.3735 0.288574 25.3018 0.288574C26.23 0.288574 27.1203 0.657325 27.7766 1.3137C28.433 1.97008 28.8018 2.86032 28.8018 3.78858V17.7886C28.8018 18.7169 28.433 19.6071 27.7766 20.2635C27.1203 20.9199 26.23 21.2886 25.3018 21.2886C24.3735 21.2886 23.4833 20.9199 22.8269 20.2635C22.1705 19.6071 21.8018 18.7169 21.8018 17.7886V3.78858ZM70.8018 3.78858C70.8018 2.86032 71.1706 1.97008 71.827 1.3137C72.4833 0.657325 73.3736 0.288574 74.3018 0.288574C75.2301 0.288574 76.1203 0.657325 76.7767 1.3137C77.4331 1.97008 77.8019 2.86032 77.8019 3.78858V17.7886C77.8019 18.7169 77.4331 19.6071 76.7767 20.2635C76.1203 20.9199 75.2301 21.2886 74.3018 21.2886C73.3736 21.2886 72.4833 20.9199 71.827 20.2635C71.1706 19.6071 70.8018 18.7169 70.8018 17.7886V3.78858Z" fill="#EAECFF"/>
</svg>
