<svg width="973" height="84" viewBox="0 0 973 84" fill="none" xmlns="http://www.w3.org/2000/svg">
<path d="M13 41.5014L819 41.5014" stroke="#FFD3C9" stroke-width="25" stroke-linecap="round" stroke-linejoin="round" stroke-dasharray="1 80"/>
<path fill-rule="evenodd" clip-rule="evenodd" d="M396.571 19.0001H424.429V23.2858H428.715V27.5715H433V55.4287H428.715V59.7144H424.429V64.0001H396.571V59.7144H392.286V55.4287H388V27.5715H392.286V23.2858H396.571V19.0001Z" fill="#FFD3C9"/>
<path fill-rule="evenodd" clip-rule="evenodd" d="M931.219 83.5611C954.294 83.5611 973 64.8553 973 41.7806C973 18.7058 954.294 1.63531e-06 931.219 3.65257e-06C914.161 5.14384e-06 899.491 10.2226 893 24.8757L931.22 41.7806L893 58.6854C899.491 73.3386 914.161 83.5611 931.219 83.5611Z" fill="#FFD747"/>
</svg>
