<svg width="435" height="372" viewBox="0 0 435 372" fill="none" xmlns="http://www.w3.org/2000/svg">
<g filter="url(#filter0_d_2426_136)">
<rect x="23" y="23" width="388.324" height="326" fill="#FF9DC2"/>
</g>
<path d="M97.5181 172V125.125H109.237V132.156H111.581V136.844H113.924V143.875H116.268V150.906H118.612V160.281H120.956V150.906H123.299V143.875H125.643V136.844H127.987V132.156H130.331V125.125H142.049V172H135.018V136.844H132.674V141.531H130.331V150.906H127.987V160.281H125.643V167.312H123.299V172H116.268V167.312H113.924V160.281H111.581V150.906H109.237V141.531H106.893V136.844H104.549V172H97.5181ZM162.63 172V155.594H160.287V150.906H157.943V146.219H155.599V141.531H153.255V136.844H150.912V132.156H148.568V127.469H146.224V125.125H155.599V129.812H157.943V134.5H160.287V139.188H162.63V143.875H164.974V148.562H167.318V143.875H169.662V139.188H172.005V134.5H174.349V129.812H176.693V125.125H186.068V127.469H183.724V132.156H181.38V136.844H179.037V141.531H176.693V146.219H174.349V150.906H172.005V155.594H169.662V172H162.63ZM243.417 150.906V148.562H241.073V143.875H238.729V139.188H236.385V134.5H234.042V139.188H231.698V143.875H229.354V148.562H227.01V150.906H243.417ZM212.948 172V164.969H215.292V160.281H217.635V153.25H219.979V148.562H222.323V143.875H224.667V139.188H227.01V134.5H229.354V129.812H231.698V125.125H238.729V129.812H241.073V134.5H243.417V139.188H245.76V143.875H248.104V148.562H250.448V153.25H252.792V160.281H255.135V164.969H257.479V172H250.448V167.312H248.104V162.625H245.76V157.938H224.667V162.625H222.323V167.312H219.979V172H212.948ZM286.629 143.875V141.531H288.973V134.5H286.629V132.156H270.223V143.875H286.629ZM263.192 172V125.125H288.973V127.469H291.317V129.812H293.661V132.156H296.004V143.875H293.661V146.219H291.317V148.562H288.973V150.906H270.223V172H263.192ZM325.96 143.875V141.531H328.304V134.5H325.96V132.156H309.554V143.875H325.96ZM302.523 172V125.125H328.304V127.469H330.648V129.812H332.992V132.156H335.335V143.875H332.992V146.219H330.648V148.562H328.304V150.906H309.554V172H302.523ZM115.902 218.875V216.531H118.246V209.5H115.902V207.156H99.4956V218.875H115.902ZM92.4644 247V200.125H118.246V202.469H120.589V204.812H122.933V207.156H125.277V218.875H122.933V221.219H120.589V223.562H118.246V225.906H99.4956V247H92.4644ZM156.625 239.969V237.625H161.312V235.281H163.656V232.938H166V228.25H168.343V218.875H166V214.188H163.656V211.844H161.312V209.5H156.625V207.156H149.593V209.5H144.906V211.844H142.562V214.188H140.218V218.875H137.875V228.25H140.218V232.938H142.562V235.281H144.906V237.625H149.593V239.969H156.625ZM147.25 247V244.656H140.218V242.312H137.875V239.969H135.531V237.625H133.187V232.938H130.843V214.188H133.187V209.5H135.531V207.156H137.875V204.812H140.218V202.469H147.25V200.125H158.968V202.469H166V204.812H168.343V207.156H170.687V209.5H173.031V214.188H175.375V232.938H173.031V237.625H170.687V239.969H168.343V242.312H166V244.656H158.968V247H147.25ZM205.331 218.875V216.531H207.674V209.5H205.331V207.156H188.924V218.875H205.331ZM181.893 247V200.125H207.674V202.469H210.018V204.812H212.362V207.156H214.706V218.875H212.362V221.219H210.018V223.562H207.674V225.906H200.643V228.25H202.987V230.594H205.331V232.938H207.674V235.281H210.018V237.625H212.362V239.969H214.706V242.312H217.049V244.656H219.393V247H210.018V244.656H207.674V242.312H205.331V239.969H202.987V237.625H200.643V235.281H198.299V232.938H195.956V230.594H193.612V228.25H191.268V225.906H188.924V247H181.893ZM235.287 247V207.156H218.88V200.125H258.724V207.156H242.318V247H235.287ZM290.951 225.906V223.562H288.607V218.875H286.263V214.188H283.919V209.5H281.576V214.188H279.232V218.875H276.888V223.562H274.544V225.906H290.951ZM260.482 247V239.969H262.826V235.281H265.169V228.25H267.513V223.562H269.857V218.875H272.201V214.188H274.544V209.5H276.888V204.812H279.232V200.125H286.263V204.812H288.607V209.5H290.951V214.188H293.294V218.875H295.638V223.562H297.982V228.25H300.326V235.281H302.669V239.969H305.013V247H297.982V242.312H295.638V237.625H293.294V232.938H272.201V237.625H269.857V242.312H267.513V247H260.482ZM310.726 247V200.125H317.757V239.969H341.195V247H310.726Z" fill="#A63C65"/>
<defs>
<filter id="filter0_d_2426_136" x="0" y="0" width="434.324" height="372" filterUnits="userSpaceOnUse" color-interpolation-filters="sRGB">
<feFlood flood-opacity="0" result="BackgroundImageFix"/>
<feColorMatrix in="SourceAlpha" type="matrix" values="0 0 0 0 0 0 0 0 0 0 0 0 0 0 0 0 0 0 127 0" result="hardAlpha"/>
<feMorphology radius="3" operator="dilate" in="SourceAlpha" result="effect1_dropShadow_2426_136"/>
<feOffset/>
<feGaussianBlur stdDeviation="10"/>
<feComposite in2="hardAlpha" operator="out"/>
<feColorMatrix type="matrix" values="0 0 0 0 1 0 0 0 0 0.615686 0 0 0 0 0.760784 0 0 0 1 0"/>
<feBlend mode="normal" in2="BackgroundImageFix" result="effect1_dropShadow_2426_136"/>
<feBlend mode="normal" in="SourceGraphic" in2="effect1_dropShadow_2426_136" result="shape"/>
</filter>
</defs>
</svg>
