<svg width="389" height="326" viewBox="0 0 389 326" fill="none" xmlns="http://www.w3.org/2000/svg">
<rect width="388.324" height="326" fill="#EA74A1"/>
<path d="M75.0181 149V102.125H86.7368V109.156H89.0806V113.844H91.4243V120.875H93.7681V127.906H96.1118V137.281H98.4556V127.906H100.799V120.875H103.143V113.844H105.487V109.156H107.831V102.125H119.549V149H112.518V113.844H110.174V118.531H107.831V127.906H105.487V137.281H103.143V144.312H100.799V149H93.7681V144.312H91.4243V137.281H89.0806V127.906H86.7368V118.531H84.3931V113.844H82.0493V149H75.0181ZM140.13 149V132.594H137.787V127.906H135.443V123.219H133.099V118.531H130.755V113.844H128.412V109.156H126.068V104.469H123.724V102.125H133.099V106.812H135.443V111.5H137.787V116.188H140.13V120.875H142.474V125.562H144.818V120.875H147.162V116.188H149.505V111.5H151.849V106.812H154.193V102.125H163.568V104.469H161.224V109.156H158.88V113.844H156.537V118.531H154.193V123.219H151.849V127.906H149.505V132.594H147.162V149H140.13ZM220.917 127.906V125.562H218.573V120.875H216.229V116.188H213.885V111.5H211.542V116.188H209.198V120.875H206.854V125.562H204.51V127.906H220.917ZM190.448 149V141.969H192.792V137.281H195.135V130.25H197.479V125.562H199.823V120.875H202.167V116.188H204.51V111.5H206.854V106.812H209.198V102.125H216.229V106.812H218.573V111.5H220.917V116.188H223.26V120.875H225.604V125.562H227.948V130.25H230.292V137.281H232.635V141.969H234.979V149H227.948V144.312H225.604V139.625H223.26V134.938H202.167V139.625H199.823V144.312H197.479V149H190.448ZM264.129 120.875V118.531H266.473V111.5H264.129V109.156H247.723V120.875H264.129ZM240.692 149V102.125H266.473V104.469H268.817V106.812H271.161V109.156H273.504V120.875H271.161V123.219H268.817V125.562H266.473V127.906H247.723V149H240.692ZM303.46 120.875V118.531H305.804V111.5H303.46V109.156H287.054V120.875H303.46ZM280.023 149V102.125H305.804V104.469H308.148V106.812H310.492V109.156H312.835V120.875H310.492V123.219H308.148V125.562H305.804V127.906H287.054V149H280.023ZM93.4019 195.875V193.531H95.7456V186.5H93.4019V184.156H76.9956V195.875H93.4019ZM69.9644 224V177.125H95.7456V179.469H98.0894V181.812H100.433V184.156H102.777V195.875H100.433V198.219H98.0894V200.562H95.7456V202.906H76.9956V224H69.9644ZM134.125 216.969V214.625H138.812V212.281H141.156V209.938H143.5V205.25H145.843V195.875H143.5V191.188H141.156V188.844H138.812V186.5H134.125V184.156H127.093V186.5H122.406V188.844H120.062V191.188H117.718V195.875H115.375V205.25H117.718V209.938H120.062V212.281H122.406V214.625H127.093V216.969H134.125ZM124.75 224V221.656H117.718V219.312H115.375V216.969H113.031V214.625H110.687V209.938H108.343V191.188H110.687V186.5H113.031V184.156H115.375V181.812H117.718V179.469H124.75V177.125H136.468V179.469H143.5V181.812H145.843V184.156H148.187V186.5H150.531V191.188H152.875V209.938H150.531V214.625H148.187V216.969H145.843V219.312H143.5V221.656H136.468V224H124.75ZM182.831 195.875V193.531H185.174V186.5H182.831V184.156H166.424V195.875H182.831ZM159.393 224V177.125H185.174V179.469H187.518V181.812H189.862V184.156H192.206V195.875H189.862V198.219H187.518V200.562H185.174V202.906H178.143V205.25H180.487V207.594H182.831V209.938H185.174V212.281H187.518V214.625H189.862V216.969H192.206V219.312H194.549V221.656H196.893V224H187.518V221.656H185.174V219.312H182.831V216.969H180.487V214.625H178.143V212.281H175.799V209.938H173.456V207.594H171.112V205.25H168.768V202.906H166.424V224H159.393ZM212.787 224V184.156H196.38V177.125H236.224V184.156H219.818V224H212.787ZM268.451 202.906V200.562H266.107V195.875H263.763V191.188H261.419V186.5H259.076V191.188H256.732V195.875H254.388V200.562H252.044V202.906H268.451ZM237.982 224V216.969H240.326V212.281H242.669V205.25H245.013V200.562H247.357V195.875H249.701V191.188H252.044V186.5H254.388V181.812H256.732V177.125H263.763V181.812H266.107V186.5H268.451V191.188H270.794V195.875H273.138V200.562H275.482V205.25H277.826V212.281H280.169V216.969H282.513V224H275.482V219.312H273.138V214.625H270.794V209.938H249.701V214.625H247.357V219.312H245.013V224H237.982ZM288.226 224V177.125H295.257V216.969H318.695V224H288.226Z" fill="#10104A"/>
</svg>
