<svg width="335" height="280" viewBox="0 0 335 280" fill="none" xmlns="http://www.w3.org/2000/svg">
<rect x="0.325195" width="334.175" height="280" fill="#EA74A1"/>
<path d="M89.228 97.4523V95.1085H86.8843V90.421H84.5405V85.7335H82.1968V81.046H79.853V85.7335H77.5093V90.421H75.1655V95.1085H72.8218V97.4523H89.228ZM58.7593 118.546V111.515H61.103V106.827H63.4468V99.796H65.7905V95.1085H68.1343V90.421H70.478V85.7335H72.8218V81.046H75.1655V76.3585H77.5093V71.671H84.5405V76.3585H86.8843V81.046H89.228V85.7335H91.5718V90.421H93.9155V95.1085H96.2593V99.796H98.603V106.827H100.947V111.515H103.291V118.546H96.2593V113.859H93.9155V109.171H91.5718V104.484H70.478V109.171H68.1343V113.859H65.7905V118.546H58.7593ZM132.441 90.421V88.0773H134.785V81.046H132.441V78.7023H116.035V90.421H132.441ZM109.003 118.546V71.671H134.785V74.0148H137.128V76.3585H139.472V78.7023H141.816V90.421H139.472V92.7648H137.128V95.1085H134.785V97.4523H116.035V118.546H109.003ZM171.772 90.421V88.0773H174.116V81.046H171.772V78.7023H155.366V90.421H171.772ZM148.334 118.546V71.671H174.116V74.0148H176.459V76.3585H178.803V78.7023H181.147V90.421H178.803V92.7648H176.459V95.1085H174.116V97.4523H155.366V118.546H148.334ZM187.666 118.546V71.671H194.697V111.515H218.134V118.546H187.666ZM237.91 118.546V102.14H235.566V97.4523H233.222V92.7648H230.878V88.0773H228.535V83.3898H226.191V78.7023H223.847V74.0148H221.503V71.671H230.878V76.3585H233.222V81.046H235.566V85.7335H237.91V90.421H240.253V95.1085H242.597V90.421H244.941V85.7335H247.285V81.046H249.628V76.3585H251.972V71.671H261.347V74.0148H259.003V78.7023H256.66V83.3898H254.316V88.0773H251.972V92.7648H249.628V97.4523H247.285V102.14H244.941V118.546H237.91ZM62.043 218.546V156.046H77.668V162.296H80.793V168.546H83.918V174.796H87.043V181.046H90.168V187.296H93.293V193.546H96.418V199.796H99.543V206.046H102.668V156.046H112.043V218.546H96.418V212.296H93.293V206.046H90.168V199.796H87.043V193.546H83.918V187.296H80.793V181.046H77.668V174.796H74.543V168.546H71.418V218.546H62.043ZM156.477 209.171V206.046H162.727V202.921H165.852V199.796H168.977V193.546H172.102V181.046H168.977V174.796H165.852V171.671H162.727V168.546H156.477V165.421H147.102V168.546H140.852V171.671H137.727V174.796H134.602V181.046H131.477V193.546H134.602V199.796H137.727V202.921H140.852V206.046H147.102V209.171H156.477ZM143.977 218.546V215.421H134.602V212.296H131.477V209.171H128.352V206.046H125.227V199.796H122.102V174.796H125.227V168.546H128.352V165.421H131.477V162.296H134.602V159.171H143.977V156.046H159.602V159.171H168.977V162.296H172.102V165.421H175.227V168.546H178.352V174.796H181.477V199.796H178.352V206.046H175.227V209.171H172.102V212.296H168.977V215.421H159.602V218.546H143.977ZM204.621 218.546V212.296H201.496V202.921H198.371V190.421H195.246V177.921H192.121V168.546H188.996V156.046H198.371V168.546H201.496V181.046H204.621V190.421H207.746V202.921H210.871V190.421H213.996V181.046H217.121V168.546H220.246V156.046H229.621V168.546H232.746V181.046H235.871V190.421H238.996V202.921H242.121V190.421H245.246V181.046H248.371V168.546H251.496V156.046H260.871V168.546H257.746V177.921H254.621V190.421H251.496V202.921H248.371V212.296H245.246V218.546H235.871V212.296H232.746V202.921H229.621V190.421H226.496V177.921H223.371V190.421H220.246V202.921H217.121V212.296H213.996V218.546H204.621Z" fill="#10104A"/>
</svg>
