<svg width="381" height="328" viewBox="0 0 381 328" fill="none" xmlns="http://www.w3.org/2000/svg">
<g filter="url(#filter0_d_1780_156)">
<rect x="23" y="23" width="335" height="281.235" fill="#FF9DC2"/>
</g>
<path d="M113.173 120.906V118.562H110.83V113.875H108.486V109.188H106.142V104.5H103.798V109.188H101.455V113.875H99.1108V118.562H96.7671V120.906H113.173ZM82.7046 142V134.969H85.0483V130.281H87.3921V123.25H89.7358V118.562H92.0796V113.875H94.4233V109.188H96.7671V104.5H99.1108V99.8125H101.455V95.125H108.486V99.8125H110.83V104.5H113.173V109.188H115.517V113.875H117.861V118.562H120.205V123.25H122.548V130.281H124.892V134.969H127.236V142H120.205V137.312H117.861V132.625H115.517V127.938H94.4233V132.625H92.0796V137.312H89.7358V142H82.7046ZM156.386 113.875V111.531H158.73V104.5H156.386V102.156H139.98V113.875H156.386ZM132.949 142V95.125H158.73V97.4688H161.074V99.8125H163.417V102.156H165.761V113.875H163.417V116.219H161.074V118.562H158.73V120.906H139.98V142H132.949ZM195.717 113.875V111.531H198.061V104.5H195.717V102.156H179.311V113.875H195.717ZM172.28 142V95.125H198.061V97.4688H200.405V99.8125H202.749V102.156H205.092V113.875H202.749V116.219H200.405V118.562H198.061V120.906H179.311V142H172.28ZM211.611 142V95.125H218.642V134.969H242.08V142H211.611ZM261.855 142V125.594H259.511V120.906H257.167V116.219H254.824V111.531H252.48V106.844H250.136V102.156H247.792V97.4688H245.449V95.125H254.824V99.8125H257.167V104.5H259.511V109.188H261.855V113.875H264.199V118.562H266.542V113.875H268.886V109.188H271.23V104.5H273.574V99.8125H275.917V95.125H285.292V97.4688H282.949V102.156H280.605V106.844H278.261V111.531H275.917V116.219H273.574V120.906H271.23V125.594H268.886V142H261.855ZM85.9883 242V179.5H101.613V185.75H104.738V192H107.863V198.25H110.988V204.5H114.113V210.75H117.238V217H120.363V223.25H123.488V229.5H126.613V179.5H135.988V242H120.363V235.75H117.238V229.5H114.113V223.25H110.988V217H107.863V210.75H104.738V204.5H101.613V198.25H98.4883V192H95.3633V242H85.9883ZM180.422 232.625V229.5H186.672V226.375H189.797V223.25H192.922V217H196.047V204.5H192.922V198.25H189.797V195.125H186.672V192H180.422V188.875H171.047V192H164.797V195.125H161.672V198.25H158.547V204.5H155.422V217H158.547V223.25H161.672V226.375H164.797V229.5H171.047V232.625H180.422ZM167.922 242V238.875H158.547V235.75H155.422V232.625H152.297V229.5H149.172V223.25H146.047V198.25H149.172V192H152.297V188.875H155.422V185.75H158.547V182.625H167.922V179.5H183.547V182.625H192.922V185.75H196.047V188.875H199.172V192H202.297V198.25H205.422V223.25H202.297V229.5H199.172V232.625H196.047V235.75H192.922V238.875H183.547V242H167.922ZM228.566 242V235.75H225.441V226.375H222.316V213.875H219.191V201.375H216.066V192H212.941V179.5H222.316V192H225.441V204.5H228.566V213.875H231.691V226.375H234.816V213.875H237.941V204.5H241.066V192H244.191V179.5H253.566V192H256.691V204.5H259.816V213.875H262.941V226.375H266.066V213.875H269.191V204.5H272.316V192H275.441V179.5H284.816V192H281.691V201.375H278.566V213.875H275.441V226.375H272.316V235.75H269.191V242H259.816V235.75H256.691V226.375H253.566V213.875H250.441V201.375H247.316V213.875H244.191V226.375H241.066V235.75H237.941V242H228.566Z" fill="#A63C65"/>
<defs>
<filter id="filter0_d_1780_156" x="0" y="0" width="381" height="327.235" filterUnits="userSpaceOnUse" color-interpolation-filters="sRGB">
<feFlood flood-opacity="0" result="BackgroundImageFix"/>
<feColorMatrix in="SourceAlpha" type="matrix" values="0 0 0 0 0 0 0 0 0 0 0 0 0 0 0 0 0 0 127 0" result="hardAlpha"/>
<feMorphology radius="3" operator="dilate" in="SourceAlpha" result="effect1_dropShadow_1780_156"/>
<feOffset/>
<feGaussianBlur stdDeviation="10"/>
<feComposite in2="hardAlpha" operator="out"/>
<feColorMatrix type="matrix" values="0 0 0 0 1 0 0 0 0 0.615686 0 0 0 0 0.760784 0 0 0 1 0"/>
<feBlend mode="normal" in2="BackgroundImageFix" result="effect1_dropShadow_1780_156"/>
<feBlend mode="normal" in="SourceGraphic" in2="effect1_dropShadow_1780_156" result="shape"/>
</filter>
</defs>
</svg>
