<svg width="376" height="176" viewBox="0 0 376 176" fill="none" xmlns="http://www.w3.org/2000/svg">
<path d="M0 79H376V176H0V79Z" fill="#40916C"/>
<path d="M376 76.3777H173.085L277.921 16.7096C278.894 16.1845 279.994 15.9427 281.098 16.0115C282.158 16.0347 283.189 16.3591 284.072 16.947L323.166 45.0881C323.702 45.4579 324.304 45.721 324.939 45.863L353.255 52.5719C354.139 52.748 354.949 53.1859 355.58 53.8285L376 76.3777Z" fill="#CDE4DB"/>
<path d="M58.9445 1.36102L113 77H0L14.8917 27.6994C15.0003 27.2001 15.2735 26.7302 15.6856 26.3343C16.0976 25.9384 16.6347 25.6296 17.2462 25.4371L37.4917 20.3956C38.2191 20.1934 38.8299 19.8009 39.2163 19.2874L53.8831 1.20023C55.2028 -0.464945 57.7372 -0.384541 58.9445 1.36102Z" fill="#CDE4DB"/>
<path d="M66.8774 35.8458L75.3456 42.7715C75.4101 42.8272 75.4615 42.8964 75.4963 42.9742C75.5311 43.0519 75.5485 43.1364 75.5471 43.2216V62.4623H78.0183V41.6445C78.017 41.5025 78.0673 41.3649 78.1599 41.2573L85.6018 32.6694L84.8148 31.766L78.8336 38.6601C78.5188 39.0033 78.0183 38.7609 78.0183 38.2698V28.3976H75.5471V40.3002C75.5471 40.7473 75.1126 41.0054 74.7947 40.7504L67.5196 34.8007L66.8774 35.8458Z" fill="#D1A783"/>
<path d="M59.1649 35.0367C60.2667 36.7681 62.2814 37.5929 64.4976 37.4512H64.5511L65.1052 37.3914L87.8024 34.9422C90.7647 34.7911 93.1918 33.0093 93.6609 30.3493C94.2527 26.9998 91.5202 23.5212 87.5569 22.5894C86.8675 22.4235 86.1599 22.3453 85.4509 22.3564C85.2615 22.3556 85.0801 22.2807 84.9453 22.1477C84.8106 22.0148 84.7333 21.8343 84.73 21.645C84.5253 16.712 80.9775 12.2891 76.054 11.4643C71.0361 10.6238 66.2951 14.011 65.2689 19.1738C64.9953 20.5371 64.9857 21.9402 65.2406 23.3071C65.2763 23.4679 65.2523 23.6362 65.1729 23.7805C65.0935 23.9248 64.9642 24.0352 64.8093 24.091C63.942 24.3813 63.1206 24.7937 62.3696 25.3156C58.7525 27.7742 57.317 32.1342 59.1649 35.0367Z" fill="#40916C"/>
<path d="M164.98 22.056H163.396V52.2383H164.98V22.056Z" fill="#CDE4DB"/>
<path d="M182.127 25.8927L181.894 26.7824C181.845 26.9694 181.707 27.1031 181.574 27.0993L166.798 26.7175C166.76 26.7161 166.724 26.7048 166.692 26.6846C166.661 26.6645 166.635 26.6363 166.618 26.6029L164.728 23.327C164.674 23.2236 164.661 23.1032 164.694 22.991L165.099 21.4408C165.156 21.2308 165.32 21.0934 165.48 21.1315L181.975 25.4422C182.104 25.4804 182.181 25.6904 182.127 25.8927Z" fill="#CDE4DB"/>
<path d="M149.635 33.0521L149.093 32.3076C149.04 32.2467 149.008 32.1706 149.001 32.0904C148.995 32.0102 149.013 31.9298 149.055 31.8608L158.734 20.689C158.759 20.6621 158.791 20.642 158.827 20.6307C158.862 20.6194 158.9 20.6171 158.936 20.6241L162.666 21.2426C162.781 21.269 162.882 21.337 162.949 21.4335L163.888 22.7317C164.014 22.9074 164.018 23.1135 163.888 23.209L150.082 33.2087C149.964 33.2965 149.761 33.2278 149.635 33.0521Z" fill="#CDE4DB"/>
<path d="M161.51 4.11448L162.426 4.00759C162.505 3.99157 162.587 4.00105 162.661 4.03467C162.734 4.06828 162.795 4.1243 162.834 4.19467L167.848 18.1003C167.86 18.1364 167.863 18.1753 167.856 18.2129C167.848 18.2505 167.831 18.2855 167.806 18.3141L165.438 21.2617C165.4 21.3051 165.354 21.3406 165.302 21.3662C165.251 21.3917 165.194 21.4068 165.137 21.4106L163.545 21.5977C163.331 21.6206 163.14 21.5175 163.125 21.3686L161.17 4.43139C161.135 4.28249 161.296 4.13739 161.51 4.11448Z" fill="#CDE4DB"/>
<path d="M164.19 24.11C165.137 24.11 165.904 23.3424 165.904 22.3956C165.904 21.4488 165.137 20.6813 164.19 20.6813C163.243 20.6813 162.475 21.4488 162.475 22.3956C162.475 23.3424 163.243 24.11 164.19 24.11Z" fill="#E2F2EA"/>
<path d="M191.362 36.1009H190.322V55.8991H191.362V36.1009Z" fill="#CDE4DB"/>
<path d="M182.5 44.3296L182.084 43.89C182.044 43.8551 182.016 43.8081 182.005 43.7561C181.994 43.7041 182 43.65 182.023 43.6017L187.368 35.5151C187.382 35.4951 187.402 35.4793 187.424 35.4693C187.447 35.4593 187.471 35.4556 187.496 35.4584L189.972 35.5435C190.01 35.5456 190.048 35.5555 190.082 35.5725C190.116 35.5896 190.146 35.6135 190.171 35.6428L190.894 36.4037C190.993 36.5076 191.012 36.6494 190.936 36.7156L182.807 44.391C182.736 44.4477 182.599 44.4194 182.5 44.3296Z" fill="#CDE4DB"/>
<path d="M188.923 24.0771L189.523 24.0062C189.575 23.9942 189.629 23.9992 189.678 24.0205C189.726 24.0418 189.766 24.0783 189.793 24.1244L193.101 33.2318C193.108 33.2552 193.109 33.28 193.104 33.3039C193.099 33.3279 193.088 33.3502 193.073 33.3689L191.532 35.3114C191.48 35.368 191.41 35.4034 191.333 35.4106L190.289 35.5382C190.147 35.5382 190.024 35.4862 190.01 35.387L188.677 24.2851C188.677 24.1858 188.781 24.096 188.923 24.0771Z" fill="#CDE4DB"/>
<path d="M202.785 37.1314L202.7 37.7269C202.698 37.7807 202.678 37.8322 202.644 37.874C202.61 37.9157 202.563 37.9453 202.511 37.9585L192.86 38.8281C192.835 38.83 192.809 38.8248 192.787 38.8131C192.764 38.8014 192.745 38.7837 192.732 38.7619L191.253 36.7675C191.209 36.704 191.192 36.6259 191.206 36.55L191.352 35.5103C191.376 35.3685 191.47 35.2692 191.57 35.2834L202.639 36.8478C202.738 36.8667 202.804 36.9896 202.785 37.1314Z" fill="#CDE4DB"/>
<path d="M190.842 37.2256C191.463 37.2256 191.967 36.722 191.967 36.1008C191.967 35.4795 191.463 34.9759 190.842 34.9759C190.221 34.9759 189.717 35.4795 189.717 36.1008C189.717 36.722 190.221 37.2256 190.842 37.2256Z" fill="#E2F2EA"/>
<path d="M376 73.8323V81H0V73.8323C0 73.8323 101.784 45.3148 145.208 46.0126C169.249 46.3998 180.449 48.9352 211.74 56.0299C258.31 66.5696 260.22 58.4703 300.444 60.4905C340.667 62.5108 376 73.8323 376 73.8323Z" fill="#40916C"/>
</svg>
