<svg width="1440" height="874" viewBox="0 0 1440 874" fill="none" xmlns="http://www.w3.org/2000/svg">
<path d="M1431.4 13.3365C1431.4 24.3144 1430.48 26.5099 1426.11 26.5099C1419.44 26.5099 1415.29 34.414 1415.29 47.1483C1415.29 56.8088 1414.83 56.8088 1384.92 58.1262L1354.31 59.4435L1353.62 73.4952C1352.93 87.5468 1353.16 87.986 1360.98 87.986C1368.81 87.986 1369.27 88.8641 1369.27 103.355C1369.27 117.846 1369.73 118.724 1377.32 118.724C1384.92 118.724 1385.38 119.602 1385.38 134.093V149.462H1369.27H1353.16V193.373V237.285H1346.48C1340.5 237.285 1339.58 235.528 1338.89 222.794C1338.2 210.938 1337.28 208.303 1331.53 207.425C1323.93 205.668 1320.48 213.133 1322.55 227.185C1323.7 236.406 1323.01 237.285 1315.42 237.285C1307.59 237.285 1307.13 236.406 1307.13 222.355C1307.13 208.303 1307.82 206.986 1314.73 205.668C1321.17 204.351 1322.09 202.595 1322.78 189.86C1323.47 176.248 1323.24 175.809 1315.42 175.809C1307.82 175.809 1307.13 174.93 1307.13 162.635C1307.13 150.34 1306.44 149.462 1299.08 149.462C1291.48 149.462 1291.02 148.584 1291.02 134.093V118.285L1306.67 119.602L1322.09 120.919L1322.32 147.266C1322.55 173.613 1322.55 173.613 1329.69 174.93L1337.05 176.248V132.336V87.986H1330.15C1323.93 87.986 1323.24 86.6686 1323.24 74.8125C1323.24 62.5173 1322.55 61.6391 1315.19 61.6391C1307.82 61.6391 1307.13 62.5173 1307.13 74.8125V87.986H1291.25H1275.14L1274.45 73.4952C1273.99 61.6391 1272.61 59.0044 1267.55 58.1262C1262.03 56.8088 1261.11 54.6133 1261.11 43.6354C1261.11 31.7794 1260.42 30.9011 1253.05 30.9011H1245V59.4435V87.986H1236.94C1229.35 87.986 1228.89 88.8641 1228.89 103.355C1228.89 117.846 1228.43 118.724 1220.83 118.724C1213.24 118.724 1212.78 117.846 1212.78 103.355C1212.78 88.8641 1212.32 87.986 1204.73 87.986C1197.13 87.986 1196.67 87.1077 1196.67 72.6169C1196.67 58.1262 1197.13 57.2479 1204.73 57.2479C1212.09 57.2479 1212.78 56.3698 1212.78 44.0745C1212.78 31.7794 1212.09 30.9011 1204.73 30.9011C1197.36 30.9011 1196.67 31.7794 1196.67 44.0745C1196.67 56.3698 1195.98 57.2479 1188.62 57.2479C1181.25 57.2479 1180.56 56.3698 1180.56 44.0745C1180.56 32.2184 1179.87 30.9011 1173.66 30.9011H1166.75V59.4435V87.986H1181.71H1196.67V103.355C1196.67 117.407 1196.21 118.724 1189.77 118.724H1182.86V147.266V175.37L1159.39 176.687L1135.69 178.004L1135 192.495C1134.31 206.108 1133.62 206.986 1126.94 205.668C1120.5 204.351 1119.58 202.595 1118.89 189.86C1118.2 177.565 1117.28 175.809 1111.29 175.809C1107.61 175.809 1104.39 173.613 1104.39 171.418C1104.16 168.783 1103.7 164.831 1103.47 162.635C1103.24 160.001 1102.78 156.049 1102.55 153.853C1102.55 151.218 1099.33 149.462 1095.41 149.462C1089.2 149.462 1088.51 150.779 1088.51 162.635C1088.51 174.93 1087.82 175.809 1080.46 175.809C1073.09 175.809 1072.4 174.93 1072.4 162.635C1072.4 150.34 1071.71 149.462 1064.35 149.462C1056.98 149.462 1056.29 150.34 1056.29 162.635V175.809H1009.12H961.939V163.074C961.939 151.657 961.019 149.901 954.805 148.584L947.441 147.266L947.901 104.233L948.362 61.6391H932.253H915.913V74.8125C915.913 87.1077 915.223 87.986 907.859 87.986H899.804V118.724V149.462H892.901H885.997V178.004V206.547H877.942H869.888V178.004V149.462H876.792H883.695V118.724V87.986H868.737H853.779V103.355C853.779 117.846 854.239 118.724 861.833 118.724C869.427 118.724 869.888 119.602 869.888 134.093C869.888 148.584 869.427 149.462 861.833 149.462H853.779V178.004V206.547H861.833C869.427 206.547 869.888 207.425 869.888 221.916V237.285H853.779H837.67V252.654C837.67 266.705 837.209 268.023 830.766 268.023C824.322 268.023 823.862 269.34 823.862 283.392C823.862 297.882 823.402 298.761 815.807 298.761C809.364 298.761 807.523 297.004 806.372 288.222C805.682 282.074 805.682 275.049 806.602 272.853C807.523 269.779 804.991 268.023 799.928 268.023C792.104 268.023 791.644 267.144 791.644 252.654V237.285H806.602H821.561V221.916V206.547H806.832H791.874L791.184 192.056C790.493 179.761 789.573 178.004 783.129 176.687L775.535 175.37V131.458V87.5468L768.171 88.8641L760.576 90.1815L759.886 132.776L759.196 175.809H767.48C775.074 175.809 775.535 176.687 775.535 191.178C775.535 205.668 775.995 206.547 783.589 206.547C791.184 206.547 791.644 207.425 791.644 221.916C791.644 236.406 791.184 237.285 783.819 237.285C776.455 237.285 775.765 235.967 775.074 222.794C774.384 210.499 773.464 208.742 767.02 207.425C759.656 206.108 759.426 206.547 759.426 221.477C759.426 236.406 758.965 237.285 751.371 237.285C743.777 237.285 743.317 238.163 743.317 252.654V268.023H728.358H713.4V237.285V206.547H728.358H743.317V178.443V149.901L736.183 148.584L729.049 147.266L728.588 90.1815L728.358 33.0967L720.994 31.7794C713.86 30.462 713.4 31.3402 713.4 43.6354V57.2479H690.387H667.374V72.6169C667.374 86.6686 667.834 87.986 674.278 87.986C680.722 87.986 681.182 89.3033 681.182 102.916C681.182 116.967 680.491 118.285 673.818 119.602C667.144 120.919 666.223 122.676 666.223 134.093C665.993 145.51 665.303 147.266 658.629 148.584C652.186 149.901 651.265 151.657 651.265 162.635V175.37L627.792 176.687L604.089 178.004L603.398 192.056C602.708 204.79 601.787 206.547 595.804 206.547H589.13V175.37V144.193L603.398 145.949L617.896 147.266L618.587 117.407L619.277 87.986H610.992C603.398 87.986 602.938 87.1077 602.938 72.6169C602.938 58.1262 602.478 57.2479 594.653 57.2479C587.059 57.2479 586.599 56.3698 587.289 44.9528C587.98 34.414 587.059 33.0967 580.385 31.7794L573.021 30.462V59.0044V87.986H564.967C557.603 87.986 556.912 87.1077 556.912 74.8125C556.912 62.5173 556.222 61.6391 548.628 61.6391C541.954 61.6391 540.573 62.9564 541.724 68.6649C542.414 72.6169 543.104 78.3254 543.104 81.8383C543.104 85.7903 545.636 87.986 550.008 87.986C556.452 87.986 556.912 89.3033 556.912 102.916C556.912 116.967 557.603 118.285 564.506 119.602C570.95 120.919 571.871 122.237 571.871 134.093C571.871 145.949 570.95 147.266 564.506 148.584C557.833 149.901 556.912 151.657 556.912 162.635C556.912 173.613 557.833 175.37 564.506 176.687C570.95 178.004 571.871 179.761 572.561 192.056L573.251 206.547H558.523H543.565L542.644 232.894C541.724 266.266 542.184 268.023 550.238 268.023C556.222 268.023 556.912 269.779 556.912 281.196V294.37H540.803H524.694V265.827V237.285H509.966H495.007L494.317 222.794C493.627 210.499 492.706 208.742 486.032 207.425L478.668 206.108V177.565V149.462H486.723C494.087 149.462 494.777 150.34 494.777 162.635V175.809H509.736H524.694V147.266V118.724H501.681H478.668V103.355V87.5468L463.25 88.8641C449.442 90.1815 447.601 91.0598 447.371 98.9638C447.141 103.794 446.911 110.381 446.68 113.015C446.45 116.967 441.848 118.724 431.722 118.724H416.764L416.073 132.776C415.383 145.51 414.462 147.266 408.019 148.584C401.345 149.901 400.424 151.657 400.424 163.074C400.424 174.93 399.734 175.809 392.37 175.809C384.776 175.809 384.315 176.687 384.315 191.617C384.315 206.547 384.085 206.986 376.951 205.668C370.278 204.351 369.357 202.595 368.667 189.86L367.976 175.809H353.248H338.52L337.829 132.776L337.139 90.1815L329.775 88.8641L322.181 87.5468V131.458V175.809H299.168H276.155V206.547V237.285H251.761H227.598L228.288 223.233C228.978 210.06 228.518 209.62 220.924 209.181C213.56 209.181 212.869 210.499 212.179 223.233L211.489 237.285H196.53H181.802V221.916C181.802 207.425 182.262 206.547 189.856 206.547C197.221 206.547 197.911 205.668 197.911 193.373C197.911 183.274 196.76 179.761 192.388 177.565C184.563 174.052 181.802 178.443 181.802 193.812C181.802 205.229 181.112 206.547 173.978 206.547C166.613 206.547 165.923 205.229 165.233 192.056L164.542 178.004L149.124 176.687L133.475 175.37V147.266V118.724H126.571C120.127 118.724 119.667 120.041 119.667 134.093V149.462H103.558H87.449V134.532C87.449 120.48 88.1394 119.163 95.0433 117.846C101.487 116.528 102.407 115.211 102.407 103.355C102.407 91.4988 101.487 90.1815 95.0433 88.8641C88.1394 87.5468 87.449 86.2295 87.449 72.1779C87.449 58.1262 87.9093 57.2479 95.5035 57.2479C102.868 57.2479 103.558 56.3698 103.558 44.0745C103.558 31.7794 102.868 30.9011 95.5035 30.9011C88.1394 30.9011 87.449 31.7794 87.449 44.0745V57.2479H49.4777C25.7744 57.2479 11.5065 59.0044 11.2763 61.6391C9.89555 86.2295 9.66542 85.7903 26.0046 87.1077L41.4232 88.425V103.355C41.4232 117.407 41.8835 118.724 48.3271 118.724C54.7707 118.724 55.231 117.407 55.231 103.355V87.986H71.34H87.449V103.355V118.724H72.4906H57.5322V134.093V149.462H72.4906H87.449V162.635V175.809H72.4906H57.5322V206.547V237.285H41.4232H25.3142V250.458C25.3142 260.558 24.1635 264.071 19.7911 266.266C16.5693 267.584 12.8872 267.584 11.7366 265.827C10.1257 264.51 9.20516 246.067 9.20516 221.477C9.20516 183.274 8.97503 180.2 4.60258 180.2C0 180.2 0 183.274 0 298.761C0 414.248 0 417.321 4.60258 417.321C8.28464 417.321 9.20516 420.395 9.20516 430.495C9.20516 440.594 8.28464 443.668 4.60258 443.668C0 443.668 0 446.742 0 608.336C0 769.93 0 773.004 4.60258 773.004C8.28464 773.004 9.20516 776.078 9.20516 788.373C9.20516 800.668 8.28464 803.742 4.60258 803.742C0.460258 803.742 0 806.816 0 838.871V874H720.304H1440.61V646.1C1440.61 422.152 1440.61 418.2 1436.01 416.004C1432.55 414.248 1431.4 409.857 1431.4 400.196C1431.4 389.657 1432.32 386.583 1436.01 386.583C1440.38 386.583 1440.61 383.51 1440.61 343.111C1440.61 303.591 1440.15 299.639 1436.01 297.443C1432.09 295.687 1431.4 291.296 1431.4 266.266V237.285H1408.39H1385.38V221.916C1385.38 207.425 1384.92 206.547 1377.09 206.547C1369.27 206.547 1369.04 206.108 1369.73 192.056C1370.42 179.761 1371.34 178.004 1378.01 176.687C1384.46 175.37 1385.38 173.613 1385.38 162.196C1385.38 150.34 1386.07 149.462 1393.43 149.462H1401.49V178.004V206.547H1408.39H1415.06L1415.75 148.145L1416.44 90.1815L1424.04 88.8641L1431.4 87.5468V56.8088C1431.4 29.5837 1431.86 26.5099 1436.01 26.5099C1439.69 26.5099 1440.61 23.4362 1440.61 13.3365C1440.61 3.23694 1439.69 0.163147 1436.01 0.163147C1432.32 0.163147 1431.4 3.23694 1431.4 13.3365ZM602.938 103.355C602.938 117.407 602.478 118.724 596.034 118.724C589.591 118.724 589.13 117.407 589.13 103.355C589.13 89.3033 589.591 87.986 596.034 87.986C602.478 87.986 602.938 89.3033 602.938 103.355ZM931.562 117.407L930.872 147.266H923.968H917.064L916.374 117.407L915.683 87.986H923.968H932.253L931.562 117.407ZM478.668 134.532C478.668 149.462 478.438 149.901 471.304 148.584C464.63 147.266 463.71 145.51 463.02 132.776C462.329 119.163 462.559 118.724 470.384 118.724C478.438 118.724 478.668 119.163 478.668 134.532ZM713.4 147.266V175.809H705.345C697.981 175.809 697.291 174.93 697.291 162.635C697.291 150.34 696.6 149.462 689.236 149.462H681.182V178.004V206.547H666.223H651.265V191.617C651.265 177.565 651.955 176.248 658.859 174.93C665.303 173.613 666.223 172.296 665.533 161.318C664.843 150.34 665.533 149.462 673.127 149.462C680.722 149.462 681.182 148.584 681.182 134.093V118.724H697.291H713.4V147.266ZM1259.27 147.266C1258.35 175.37 1258.35 175.809 1251.67 175.809C1245.69 175.809 1245 177.126 1245 190.739C1245 204.79 1245.69 206.108 1252.59 207.425C1259.04 208.742 1259.96 210.06 1259.96 221.916C1259.96 233.772 1259.04 235.089 1252.59 236.406C1245.23 237.724 1245 237.285 1245 222.355C1245 207.425 1244.54 206.547 1236.94 206.547H1228.89V237.285V268.023H1220.83C1213.47 268.023 1212.78 268.901 1212.78 281.196V294.37H1189.77H1166.52L1167.21 251.336L1167.9 208.742L1174.35 207.425C1180.79 206.108 1181.48 208.303 1180.56 227.185C1180.33 235.967 1181.25 237.285 1188.39 237.285C1196.21 237.285 1196.67 236.406 1196.67 221.916V206.547H1213.01H1229.12L1228.43 192.056C1227.74 179.761 1227.05 178.004 1220.83 178.004C1214.62 178.004 1213.93 176.248 1213.24 163.514C1212.55 149.901 1212.78 149.462 1220.6 149.462C1228.43 149.462 1228.89 148.584 1228.89 134.093V118.724H1244.54H1259.96L1259.27 147.266ZM462.559 162.635V175.809H447.601H432.643V162.635V149.462H447.601H462.559V162.635ZM119.207 192.056L119.897 206.547H142.91H165.693V221.916C165.693 236.406 166.153 237.285 173.747 237.285H181.802V268.462V299.2L174.438 297.882L166.844 296.565L166.153 266.705L165.463 237.285H150.734H136.006L135.316 251.336L134.625 265.827L119.207 267.144C103.558 268.462 103.558 268.462 103.558 281.196C103.558 293.491 102.868 294.37 95.5035 294.37C88.1394 294.37 87.449 293.491 87.449 281.196C87.449 268.901 88.1394 268.023 95.5035 268.023C103.098 268.023 103.558 267.144 103.558 252.654C103.558 238.163 103.098 237.285 95.5035 237.285H87.449V206.547V175.37L103.098 176.687L118.516 178.004L119.207 192.056ZM337.829 192.056C338.52 204.351 339.44 206.108 345.884 207.425C352.328 208.742 353.248 210.499 353.248 221.916C353.478 233.333 354.169 235.089 360.842 236.406C367.516 237.724 368.206 239.041 368.206 253.093V268.023H353.248H338.29V237.285V206.547H330.235C322.641 206.547 322.181 207.425 322.181 222.355C322.181 237.285 321.95 237.724 314.816 236.406C307.452 235.089 306.762 232.894 308.143 210.938C308.373 208.303 311.595 206.547 315.277 206.547C321.72 206.547 322.181 205.229 322.181 190.739C322.181 175.809 322.411 175.37 329.775 176.687C336.218 178.004 337.139 179.761 337.829 192.056ZM961.939 191.178V206.547H978.048H994.157V221.477C994.157 235.528 993.467 236.846 986.793 238.163C979.199 239.48 978.739 241.237 980.119 263.632C980.35 266.266 983.111 267.584 986.793 267.144C992.546 265.827 993.007 267.144 993.007 281.196C993.007 293.491 992.086 296.565 988.404 297.004C985.873 297.443 982.421 297.882 980.81 298.322C978.739 298.761 978.048 303.152 978.509 310.617C979.199 322.912 979.199 322.912 963.78 324.229L948.131 325.547V340.477C948.131 354.528 948.592 355.845 955.035 355.845C961.479 355.845 961.939 357.163 961.939 371.214C961.939 385.266 961.479 386.583 955.035 386.583C948.592 386.583 948.131 385.266 948.131 371.214C948.131 356.724 947.671 355.845 939.847 355.845C932.022 355.845 931.792 355.406 932.483 341.355C933.173 329.06 934.094 327.303 940.767 325.986C947.211 324.668 948.131 322.912 948.131 311.495C948.131 300.078 948.822 298.761 955.035 298.761H961.939V268.023V237.285H955.266C949.282 237.285 948.362 239.041 947.671 251.336L946.981 265.827L925.119 266.266L903.256 267.144L902.106 281.635C900.955 295.248 900.265 296.565 892.44 297.882C884.386 299.2 883.695 300.517 883.695 312.373C883.695 323.79 883.005 325.107 876.792 325.107H869.888V355.845V386.583H861.833C854.469 386.583 853.779 387.462 853.779 399.757C853.779 412.052 853.088 412.93 845.724 412.93C838.36 412.93 837.67 412.052 837.67 399.757C837.67 387.462 838.36 386.583 845.724 386.583H853.779V355.845V325.107H845.724H837.67V296.565V268.023H845.724H853.779V296.565V325.107H861.833C869.197 325.107 869.888 324.229 869.888 311.934C869.888 300.078 870.578 298.761 876.792 298.761C883.235 298.761 883.695 297.443 883.695 283.392C883.695 269.34 883.235 268.023 876.792 268.023C870.348 268.023 869.888 266.705 869.888 252.654V237.724L885.536 236.406L900.955 235.089V221.916C900.955 210.06 901.876 208.742 908.549 207.425C915.683 206.108 915.913 206.547 915.913 221.477V237.285H932.253H948.362L947.671 222.794C946.981 210.499 946.06 208.742 939.617 207.425C932.713 206.108 932.022 204.79 932.022 190.739V175.809H946.981H961.939V191.178ZM1072.4 191.178C1072.4 205.668 1072.86 206.547 1080.46 206.547C1088.05 206.547 1088.51 207.425 1088.51 221.916C1088.51 235.967 1088.97 237.285 1095.41 237.285H1102.32V265.827V294.37H1071.25H1040.18V281.196C1040.18 269.34 1039.49 268.023 1033.28 268.023C1027.07 268.023 1026.38 269.34 1026.38 280.757C1026.38 296.126 1023.61 300.517 1015.79 297.004C1010.73 294.37 1010.27 292.174 1010.27 265.827V237.724L1017.86 236.406C1024.3 235.089 1025.22 233.333 1025.22 221.916L1025.45 208.742L1040.87 207.425C1056.06 206.108 1056.29 206.108 1056.29 193.812C1056.29 178.443 1057.67 175.809 1065.96 175.809C1071.71 175.809 1072.4 177.126 1072.4 191.178ZM1274.91 191.178C1274.91 205.229 1274.22 206.547 1268.24 206.547C1262.72 206.547 1261.57 204.351 1260.65 193.373C1259.5 177.565 1259.96 175.809 1268.47 175.809C1274.22 175.809 1274.91 177.126 1274.91 191.178ZM1307.13 191.178C1307.13 205.668 1306.67 206.547 1299.08 206.547C1291.71 206.547 1291.02 205.229 1291.02 194.252C1291.02 178.443 1292.4 175.809 1300.69 175.809C1306.44 175.809 1307.13 177.126 1307.13 191.178ZM400.424 221.916C400.424 236.406 399.964 237.285 392.37 237.285C384.776 237.285 384.315 236.406 384.315 221.916C384.315 207.425 384.776 206.547 392.37 206.547C399.964 206.547 400.424 207.425 400.424 221.916ZM432.182 222.794C432.873 235.528 433.793 237.285 439.777 237.285C445.99 237.285 446.45 238.602 446.45 252.654C446.45 266.705 445.99 268.023 439.546 268.023C433.333 268.023 432.643 269.34 432.643 281.196C432.643 293.491 431.952 294.37 424.588 294.37H416.534V253.532C416.534 230.698 417.224 210.938 418.144 209.181C419.065 207.425 422.517 206.547 425.739 207.425C430.341 208.303 431.722 211.377 432.182 222.794ZM478.668 221.916C478.668 236.406 479.129 237.285 486.723 237.285C494.317 237.285 494.777 238.163 494.777 252.654C494.777 266.705 495.238 268.023 501.681 268.023C508.125 268.023 508.585 269.34 508.585 283.392C508.585 297.443 508.125 298.761 501.681 298.761C495.468 298.761 494.777 300.078 494.777 311.934C494.777 324.229 494.087 325.107 486.723 325.107C479.129 325.107 478.668 325.986 478.668 340.477C478.668 354.528 478.208 355.845 471.764 355.845C466.471 355.845 464.63 353.65 463.48 345.307C461.639 330.377 463.94 325.107 471.995 325.107C477.748 325.107 478.668 323.351 478.668 312.373C478.668 300.956 477.748 299.2 471.304 297.882C464.63 296.565 463.71 295.248 463.71 283.392C463.71 271.536 464.63 270.218 471.304 268.901C477.978 267.584 478.668 266.266 478.668 252.654C478.668 239.041 477.978 237.724 471.304 236.406C458.877 234.211 459.107 206.547 471.764 206.547C478.208 206.547 478.668 207.864 478.668 221.916ZM635.156 221.916V237.285H650.345H665.303L664.613 250.897C663.922 264.071 663.692 264.071 649.654 265.388L635.156 266.266V251.775C635.156 238.163 634.696 237.285 627.102 237.285C619.507 237.285 619.047 238.163 619.047 252.654C619.047 267.144 618.587 268.023 610.992 268.023C603.398 268.023 602.938 268.901 602.938 283.392C602.938 297.882 603.398 298.761 610.992 298.761C618.357 298.761 619.047 299.639 619.047 311.934C619.047 324.229 618.357 325.107 610.992 325.107C603.628 325.107 602.938 324.229 602.938 311.934V298.761H587.98H573.021V283.392C573.021 268.901 572.561 268.023 564.967 268.023C557.372 268.023 556.912 267.144 556.912 252.654C556.912 238.163 557.372 237.285 565.197 237.285C572.331 237.285 573.251 238.602 573.021 246.945C572.101 266.705 572.791 268.462 580.615 267.144C587.059 265.827 587.98 264.071 588.67 251.336C589.36 239.041 590.281 237.285 596.264 237.285C602.478 237.285 602.938 235.967 602.938 221.916V206.547H619.047H635.156V221.916ZM227.828 250.019C227.828 262.753 231.05 268.023 239.564 268.023C243.016 268.023 243.937 271.096 243.937 283.392C243.937 297.882 244.397 298.761 251.991 298.761C259.586 298.761 260.046 297.882 260.046 282.953C260.046 268.023 260.276 267.584 267.64 268.901C274.084 270.218 275.004 271.536 275.004 283.392C275.004 295.248 274.084 296.565 267.64 297.882C260.966 299.2 260.046 300.956 260.046 311.934C260.046 322.912 260.966 324.668 267.64 325.986C274.084 327.303 275.004 328.62 275.004 340.477C275.004 352.333 274.084 353.65 267.64 354.967C260.276 356.285 260.046 355.845 260.046 340.916V325.107H243.707H227.367L228.978 311.495C230.589 298.322 230.589 298.322 221.614 299.639C214.02 300.956 212.869 302.274 212.179 312.812C211.489 323.351 210.338 325.107 204.585 325.107C198.601 325.107 197.911 323.79 197.911 311.934C197.911 300.078 198.601 298.761 205.505 298.761H212.869L212.179 268.023L211.258 237.285H219.543C227.137 237.285 227.828 238.163 227.828 250.019ZM775.535 252.654C775.535 267.144 775.995 268.023 783.589 268.023C791.184 268.023 791.644 268.901 791.644 283.392C791.644 297.443 792.334 298.761 798.318 298.761C803.61 298.761 805.221 300.956 805.912 309.739C807.293 322.912 806.372 325.107 798.087 325.107C792.564 325.107 791.644 323.351 791.644 311.934C791.644 299.639 790.953 298.761 783.589 298.761C776.225 298.761 775.535 299.639 775.535 311.934V325.107H759.426H743.317V311.934V298.761H759.426H775.535V283.392C775.535 268.901 775.074 268.023 767.48 268.023C759.886 268.023 759.426 267.144 759.426 252.654C759.426 238.163 759.886 237.285 767.48 237.285C775.074 237.285 775.535 238.163 775.535 252.654ZM1150.65 265.388C1150.65 293.052 1150.65 293.491 1143.74 295.248C1135.46 297.443 1134.54 296.126 1134.54 280.757C1134.54 270.218 1133.62 268.462 1127.17 267.144C1120.5 265.827 1119.58 264.071 1118.89 251.336L1118.2 237.285H1134.31H1150.65V265.388ZM1306.67 251.336C1305.98 264.071 1305.29 265.827 1299.08 265.827C1292.86 265.827 1292.17 267.144 1291.48 282.074L1290.79 298.761H1276.3C1268.47 298.761 1261.34 297.882 1260.65 296.565C1260.19 295.248 1259.96 288.661 1260.65 281.196C1261.57 270.218 1262.72 268.023 1268.24 268.023C1274.22 268.023 1274.91 266.705 1274.91 252.654V237.285H1291.25H1307.36L1306.67 251.336ZM57.072 282.074C56.3816 294.809 55.4611 296.565 49.0175 297.882C41.6534 299.2 41.4232 298.761 41.4232 283.831C41.4232 268.462 41.6534 268.023 49.7079 268.023C57.5322 268.023 57.7624 268.462 57.072 282.074ZM305.611 282.074C305.151 294.37 303.77 297.004 298.707 297.882C292.724 299.2 292.264 298.322 292.264 283.831C292.264 269.34 292.724 268.023 299.398 268.023C305.841 268.023 306.302 268.901 305.611 282.074ZM400.424 296.126V324.668L408.019 325.986C414.462 327.303 415.383 329.06 416.073 341.355C416.764 354.089 417.684 355.845 423.207 355.845C428.73 355.845 429.881 358.041 430.801 369.019C431.952 384.827 431.492 386.583 422.977 386.583C417.454 386.583 416.534 388.34 416.534 399.757C416.534 412.052 415.843 412.93 408.479 412.93C401.115 412.93 400.424 412.052 400.424 399.757C400.424 387.462 401.115 386.583 408.479 386.583C416.073 386.583 416.534 385.705 416.534 371.214C416.534 356.724 416.073 355.845 408.479 355.845C400.885 355.845 400.424 354.967 400.424 340.916C400.424 326.864 399.734 325.547 393.06 324.229L385.466 322.912L385.926 298.761C386.156 285.587 386.387 273.292 386.387 271.096C386.617 269.34 389.839 268.023 393.521 268.023H400.424V296.126ZM713.4 283.392C713.4 297.882 713.86 298.761 721.454 298.761C728.819 298.761 729.509 299.639 729.509 311.934C729.509 324.229 728.819 325.107 721.454 325.107C714.09 325.107 713.4 324.229 713.4 311.934V298.761H697.291H681.182V311.934C681.182 323.79 680.491 325.107 674.278 325.107C668.525 325.107 667.374 326.864 665.993 340.477C664.843 353.65 663.692 355.845 657.939 355.845C651.955 355.845 651.265 354.528 651.265 340.477C651.265 325.986 650.805 325.107 643.211 325.107C635.846 325.107 635.156 324.229 635.156 311.934C635.156 299.639 635.846 298.761 643.211 298.761C650.575 298.761 651.265 299.639 651.265 311.934C651.265 324.229 651.955 325.107 659.55 325.107C667.604 325.107 667.834 324.668 666.684 311.934C665.303 299.2 665.533 298.761 673.127 298.761C680.722 298.761 681.182 297.882 681.182 283.392V268.023H697.291H713.4V283.392ZM1399.18 280.757C1399.18 293.052 1398.72 293.491 1386.53 295.248C1370.19 297.004 1369.27 296.126 1369.27 280.757V268.023H1384.23H1399.18V280.757ZM71.34 311.934C71.34 323.79 70.6496 325.107 64.4361 325.107C58.2226 325.107 57.5322 323.79 57.5322 311.934C57.5322 300.078 58.2226 298.761 64.4361 298.761C70.6496 298.761 71.34 300.078 71.34 311.934ZM165.693 311.934C165.693 323.79 165.003 325.107 158.789 325.107C152.576 325.107 151.885 323.79 151.885 311.934C151.885 300.078 152.576 298.761 158.789 298.761C165.003 298.761 165.693 300.078 165.693 311.934ZM354.399 311.934V325.107H338.29H322.181V311.934V298.761H338.29H354.399V311.934ZM1259.96 311.934C1259.96 321.155 1258.81 323.351 1252.59 324.229C1245.46 325.547 1245 324.668 1245 311.934C1245 299.2 1245.46 298.322 1252.36 299.639C1258.81 300.517 1259.96 302.713 1259.96 311.934ZM1320.94 311.934C1320.94 323.79 1320.25 325.107 1314.04 325.107C1307.59 325.107 1307.13 326.425 1307.13 340.916C1307.13 355.845 1306.9 356.285 1299.77 354.967C1293.09 353.65 1292.17 352.333 1292.17 340.477C1292.17 328.62 1293.09 327.303 1299.77 325.986C1306.21 324.668 1307.13 322.912 1307.13 311.495C1307.13 300.078 1307.82 298.761 1314.04 298.761C1320.25 298.761 1320.94 300.078 1320.94 311.934ZM556.452 341.355C557.142 355.406 556.912 355.845 549.088 355.845C541.033 355.845 540.803 356.285 540.803 371.654C540.803 386.583 540.573 387.023 533.439 385.705C526.765 384.388 525.845 383.071 525.845 371.214C525.845 359.358 526.765 358.041 533.439 356.724C539.883 355.406 540.803 353.65 540.803 342.672C540.803 329.499 543.565 325.107 551.159 326.425C554.611 327.303 555.992 331.255 556.452 341.355ZM586.369 341.355C587.059 354.967 586.599 355.845 580.155 355.845C573.482 355.845 573.021 354.528 573.021 340.037C573.021 325.547 573.482 324.668 579.465 325.986C584.528 326.864 585.908 329.499 586.369 341.355ZM744.467 340.477C744.467 352.772 743.777 353.65 736.413 353.65C729.279 353.65 728.358 352.333 728.358 342.672C728.358 326.425 729.279 324.668 737.103 325.986C743.547 327.303 744.467 329.06 744.467 340.477ZM899.804 340.916C899.804 355.845 899.574 356.285 892.44 354.967C880.013 352.772 880.243 325.107 892.901 325.107C899.344 325.107 899.804 326.425 899.804 340.916ZM1024.07 340.477C1024.07 354.528 1023.61 355.845 1017.17 355.845C1011.19 355.845 1010.27 354.089 1010.27 343.55C1010.27 328.181 1011.65 325.107 1018.78 325.107C1023.38 325.107 1024.07 327.303 1024.07 340.477ZM1103.47 329.938C1104.39 332.133 1104.39 339.159 1103.7 345.307C1102.32 354.967 1101.17 355.845 1087.36 355.845C1072.4 355.845 1072.4 355.845 1072.4 343.55C1072.4 336.524 1073.09 329.499 1074.01 328.181C1076.54 323.351 1101.86 324.668 1103.47 329.938ZM1165.37 355.845V384.388L1158.01 385.705L1150.65 387.023V358.919C1150.65 327.303 1151.57 324.229 1159.62 325.986C1164.91 327.303 1165.37 328.62 1165.37 355.845ZM1228.43 341.355C1229.12 354.089 1230.04 355.845 1236.02 355.845C1242.24 355.845 1242.7 357.163 1242.7 371.214C1242.7 385.266 1242.24 386.583 1235.79 386.583C1229.35 386.583 1228.89 385.266 1228.89 371.214C1228.89 356.724 1228.43 355.845 1220.83 355.845C1213.47 355.845 1212.78 354.528 1212.78 343.55C1212.78 327.742 1214.62 324.229 1221.98 325.986C1226.59 326.864 1227.97 329.938 1228.43 341.355ZM1353.16 340.477V355.845H1375.94C1397.57 355.845 1398.72 356.285 1400.1 365.506C1402.87 386.583 1402.64 386.583 1377.55 386.583H1353.39L1352.7 400.196C1352.01 413.809 1351.78 414.248 1340.04 413.809C1333.37 413.809 1326.92 413.369 1325.54 413.369C1324.39 412.93 1323.24 407.222 1323.24 400.196C1323.24 388.779 1324.16 387.023 1330.61 385.705L1337.97 384.388L1337.28 359.358C1336.59 329.06 1337.51 325.107 1346.48 325.107C1352.7 325.107 1353.16 326.425 1353.16 340.477ZM1414.83 341.355C1415.52 354.967 1415.06 355.845 1408.85 355.845C1403.33 355.845 1401.72 353.65 1400.57 344.868C1398.49 329.499 1400.8 324.229 1407.93 325.986C1412.99 326.864 1414.37 329.938 1414.83 341.355ZM71.34 371.214C71.34 385.266 70.8797 386.583 64.4361 386.583C57.9925 386.583 57.5322 385.266 57.5322 371.214C57.5322 357.163 57.9925 355.845 64.4361 355.845C70.8797 355.845 71.34 357.163 71.34 371.214ZM103.098 372.093C103.788 386.144 103.558 386.583 95.7337 386.583C88.1394 386.583 87.449 385.266 87.449 374.288C87.449 358.48 89.2901 354.967 96.6542 356.724C101.257 357.602 102.638 360.676 103.098 372.093ZM317.118 358.48C320.8 360.676 322.181 364.628 322.181 373.849C322.181 386.583 322.181 386.583 307.222 386.583H292.264V371.214C292.264 355.845 292.494 355.845 302.159 355.845C307.452 355.845 314.126 357.163 317.118 358.48ZM384.315 371.654C384.315 386.583 384.085 387.023 376.951 385.705C364.524 383.51 364.754 355.845 377.412 355.845C383.855 355.845 384.315 357.163 384.315 371.654ZM712.94 372.093C713.63 384.827 714.551 386.583 720.534 386.583C726.747 386.583 727.208 387.901 727.208 402.392C727.208 416.882 726.747 417.761 720.994 416.443C715.701 415.565 714.32 412.93 713.86 400.635C713.17 387.901 712.479 386.583 705.115 386.583C697.981 386.583 697.291 385.266 697.291 374.288C697.291 358.48 699.132 354.967 706.496 356.724C711.099 357.602 712.479 360.676 712.94 372.093ZM1134.54 384.388V412.93H1126.48H1118.43V387.462C1118.43 373.41 1119.12 360.237 1120.04 358.919C1120.73 357.163 1124.41 355.845 1128.09 355.845C1134.54 355.845 1134.54 355.845 1134.54 384.388ZM40.963 400.635C40.2726 414.687 39.1219 416.004 27.6155 413.369C26.4648 412.93 25.3142 406.783 25.3142 399.757C25.3142 387.462 26.0046 386.583 33.5988 386.583C41.4232 386.583 41.6534 387.023 40.963 400.635ZM149.584 401.952C149.584 416.004 149.124 417.321 142.68 417.321C136.236 417.321 135.776 416.004 135.776 401.952C135.776 387.901 136.236 386.583 142.68 386.583C149.124 386.583 149.584 387.901 149.584 401.952ZM243.937 401.513C243.937 415.565 243.476 416.882 237.033 416.443C233.351 416.004 230.129 414.687 229.899 413.369C229.899 412.052 229.439 406.783 228.978 402.392C227.828 390.096 229.439 386.583 237.263 386.583C243.246 386.583 243.937 387.901 243.937 401.513ZM634.696 400.635C634.005 413.369 633.315 415.126 627.102 415.126C620.888 415.126 620.198 413.369 619.507 400.635C618.817 387.023 619.047 386.583 627.102 386.583C635.156 386.583 635.386 387.023 634.696 400.635ZM759.426 398.879C759.426 414.687 758.275 416.443 751.371 413.809C746.769 412.491 745.618 409.417 745.618 399.318C745.618 387.901 746.539 386.583 752.522 386.583C758.505 386.583 759.426 388.34 759.426 398.879ZM86.9888 431.373C86.2984 444.107 85.608 445.864 79.3945 445.864C73.181 445.864 72.4906 447.62 71.8002 459.915C71.1099 472.65 70.1893 474.406 64.206 474.406H57.5322V445.864V417.321H72.7208H87.6792L86.9888 431.373ZM276.155 432.69C276.155 446.742 276.615 448.059 283.059 448.059C289.272 448.059 289.963 449.377 289.963 461.233C289.963 473.089 289.272 474.406 283.059 474.406C276.845 474.406 276.155 473.089 276.155 461.672C276.155 450.255 275.234 448.499 268.791 447.181C262.117 445.864 261.196 444.107 260.506 431.373C259.816 417.761 260.046 417.321 267.87 417.321C275.695 417.321 276.155 418.2 276.155 432.69ZM494.317 431.373C495.007 442.79 494.547 443.668 486.953 443.668C479.359 443.668 478.668 442.79 478.668 430.056C478.668 417.761 479.129 416.882 486.263 418.2C492.476 419.078 493.857 421.713 494.317 431.373ZM665.073 430.495C665.073 442.351 664.382 443.668 658.169 443.668C651.955 443.668 651.265 442.351 651.265 430.495C651.265 418.639 651.955 417.321 658.169 417.321C664.382 417.321 665.073 418.639 665.073 430.495ZM805.452 445.864V474.406H798.548H791.644V445.864V417.321H798.548H805.452V445.864ZM899.804 430.495C899.804 442.351 899.114 443.668 892.901 443.668C886.687 443.668 885.997 442.351 885.997 430.495C885.997 418.639 886.687 417.321 892.901 417.321C899.114 417.321 899.804 418.639 899.804 430.495ZM1181.71 421.713C1182.4 424.347 1182.4 430.056 1181.71 434.886C1180.56 442.351 1178.26 443.668 1165.37 443.668H1150.65V430.495V417.321H1165.37C1173.66 417.321 1181.02 419.517 1181.71 421.713ZM1399.18 430.495C1399.18 442.351 1398.49 443.668 1392.28 443.668C1386.07 443.668 1385.38 442.351 1385.38 430.495C1385.38 418.639 1386.07 417.321 1392.28 417.321C1398.49 417.321 1399.18 418.639 1399.18 430.495ZM119.667 461.672C119.667 473.089 118.977 474.406 111.613 474.406C104.248 474.406 103.558 473.089 103.558 462.111C103.558 445.864 104.479 444.986 112.763 447.181C118.516 448.938 119.667 451.133 119.667 461.672ZM384.315 461.233C384.315 473.528 383.625 474.406 376.261 474.406C368.667 474.406 368.206 475.284 368.206 489.775C368.206 503.827 367.746 505.144 361.303 505.144C354.859 505.144 354.399 503.827 354.399 489.775C354.399 475.724 354.859 474.406 361.303 474.406C367.516 474.406 368.206 473.089 368.206 461.233C368.206 448.938 368.897 448.059 376.261 448.059C383.625 448.059 384.315 448.938 384.315 461.233ZM602.938 461.233C602.938 473.089 602.248 474.406 596.034 474.406C589.821 474.406 589.13 473.089 589.13 461.233C589.13 449.377 589.821 448.059 596.034 448.059C602.248 448.059 602.938 449.377 602.938 461.233ZM713.4 461.233C713.4 473.089 714.09 474.406 720.304 474.406C726.747 474.406 727.208 475.724 727.208 489.775C727.208 503.827 726.747 505.144 720.304 505.144C713.86 505.144 713.4 503.827 713.4 489.775C713.4 475.284 712.94 474.406 705.345 474.406C697.981 474.406 697.291 473.528 697.291 461.233C697.291 448.938 697.981 448.059 705.345 448.059C712.71 448.059 713.4 448.938 713.4 461.233ZM978.048 461.672C978.048 473.967 977.588 474.845 970.684 473.528C963.55 472.211 961.939 466.941 964.01 450.255C964.241 448.938 967.462 448.059 971.144 448.059C977.358 448.059 978.048 449.377 978.048 461.672ZM1010.27 461.233C1010.27 473.528 1009.58 474.406 1002.21 474.406C994.848 474.406 994.157 473.528 994.157 461.233C994.157 448.938 994.848 448.059 1002.21 448.059C1009.58 448.059 1010.27 448.938 1010.27 461.233ZM24.8539 491.093C25.5443 505.144 25.3142 505.583 17.9501 504.266C12.8872 503.388 10.1257 500.314 9.66542 495.045C8.28464 480.554 11.0462 473.528 17.7199 475.284C23.243 476.163 24.3937 478.797 24.8539 491.093ZM87.449 489.775C87.449 503.827 86.9888 505.144 80.7753 505.144C73.4112 505.144 71.5701 499.875 73.181 484.506C73.8714 476.602 75.7124 474.406 80.7753 474.406C86.7586 474.406 87.449 475.724 87.449 489.775ZM478.668 490.214C478.668 505.144 478.438 505.583 471.304 504.266C458.877 502.07 459.107 474.406 471.764 474.406C478.208 474.406 478.668 475.724 478.668 490.214ZM508.585 489.775C508.585 503.827 508.125 505.144 501.681 505.144C495.698 505.144 494.777 503.388 494.777 492.849C494.777 477.48 496.158 474.406 503.292 474.406C507.895 474.406 508.585 476.602 508.585 489.775ZM556.452 491.093L557.142 505.583L541.494 504.266C528.606 503.388 525.845 501.631 525.154 495.045C523.313 477.48 526.305 473.967 541.263 475.284L555.762 476.602L556.452 491.093ZM868.737 489.775C868.737 501.631 867.816 502.949 861.373 504.266C854.469 505.583 853.779 504.705 853.779 492.849C853.779 477.041 855.62 473.528 862.984 475.284C867.586 476.163 868.737 478.797 868.737 489.775ZM899.804 489.775C899.804 503.827 899.344 505.144 892.901 505.144C886.457 505.144 885.997 503.827 885.997 489.775C885.997 475.724 886.457 474.406 892.901 474.406C899.344 474.406 899.804 475.724 899.804 489.775ZM946.981 489.775C946.981 501.631 946.06 502.949 939.617 504.266C932.713 505.583 932.022 504.705 932.022 492.849C932.022 477.041 933.864 473.528 941.228 475.284C945.83 476.163 946.981 478.797 946.981 489.775ZM1134.08 490.653L1134.77 505.144H1119.81H1104.62V489.775V473.967L1119.12 475.284C1133.39 476.602 1133.39 476.602 1134.08 490.653ZM1228.43 490.653C1229.12 504.705 1228.89 505.144 1221.06 505.144C1213.47 505.144 1212.78 503.827 1212.78 492.849C1212.78 477.041 1214.62 473.528 1221.98 475.284C1226.59 476.163 1227.97 479.237 1228.43 490.653ZM1258.81 489.775C1258.81 503.827 1258.35 505.144 1251.9 505.144C1245.92 505.144 1245 503.388 1245 492.849C1245 477.48 1246.38 474.406 1253.51 474.406C1258.12 474.406 1258.81 476.602 1258.81 489.775ZM1290.56 491.093C1291.25 505.144 1291.02 505.583 1283.66 504.266C1278.6 503.388 1275.84 500.314 1275.37 495.045C1273.99 480.554 1276.76 473.528 1283.43 475.284C1288.95 476.163 1290.1 478.797 1290.56 491.093ZM149.584 520.513C149.584 534.565 149.124 535.882 142.68 535.882C136.236 535.882 135.776 534.565 135.776 520.513C135.776 506.462 136.236 505.144 142.68 505.144C149.124 505.144 149.584 506.462 149.584 520.513ZM259.586 521.831C260.276 535.882 260.046 536.321 252.682 535.004C247.619 534.126 244.857 531.052 244.397 525.783C243.016 511.292 245.778 504.266 252.452 506.022C257.975 506.901 259.125 509.535 259.586 521.831ZM650.114 520.513C650.345 531.93 651.035 533.687 657.709 535.004C664.152 536.321 665.073 538.078 665.073 549.495C665.073 560.912 664.382 562.229 657.018 562.229C649.424 562.229 649.194 561.79 650.575 549.056C651.725 536.321 651.495 535.882 643.441 535.882C635.386 535.882 635.156 535.443 635.156 520.074C635.156 505.144 635.386 504.705 642.75 506.022C649.194 507.34 650.114 509.096 650.114 520.513ZM774.384 520.513C774.384 532.369 773.694 533.687 767.48 533.687C762.648 533.687 760.346 531.491 759.886 525.783C758.505 511.292 761.267 504.266 767.94 506.022C773.464 507.34 774.384 509.535 774.384 520.513ZM821.561 520.513C821.561 534.565 821.1 535.882 814.657 535.882C810.975 535.882 807.753 534.565 807.523 532.369C807.523 530.613 807.062 525.343 806.602 520.952C805.452 508.657 807.062 505.144 814.887 505.144C821.1 505.144 821.561 506.462 821.561 520.513ZM1056.29 520.513C1056.29 535.004 1056.75 535.882 1064.35 535.882C1071.71 535.882 1072.4 536.76 1072.4 549.056C1072.4 561.351 1071.71 562.229 1064.35 562.229C1056.98 562.229 1056.29 561.351 1056.29 549.495C1056.29 538.078 1055.37 536.321 1048.93 535.004C1042.48 533.687 1041.56 531.93 1041.79 521.391C1042.02 514.805 1042.02 508.657 1042.25 507.34C1042.48 506.022 1045.71 505.144 1049.39 505.144C1055.83 505.144 1056.29 506.462 1056.29 520.513ZM119.207 549.495C119.897 559.594 118.977 561.351 112.763 563.107C104.248 565.742 103.558 564.425 103.558 548.177C103.558 536.321 104.248 535.443 111.152 536.76C117.136 537.639 118.747 540.273 119.207 549.495ZM915.913 548.177C915.913 563.986 914.763 565.742 907.859 563.107C903.256 561.79 902.106 558.716 902.106 548.617C902.106 537.2 903.026 535.882 909.01 535.882C914.993 535.882 915.913 537.639 915.913 548.177ZM1320.94 549.056C1320.94 560.912 1320.25 562.229 1314.04 562.229C1307.82 562.229 1307.13 560.912 1307.13 549.056C1307.13 537.2 1307.82 535.882 1314.04 535.882C1320.25 535.882 1320.94 537.2 1320.94 549.056ZM1352.7 549.934C1352.24 561.79 1351.09 564.425 1346.25 564.425C1341.42 564.425 1340.27 561.79 1339.81 549.934C1339.12 536.76 1339.58 535.882 1346.25 535.882C1352.93 535.882 1353.39 536.76 1352.7 549.934ZM260.046 579.794C260.046 592.089 259.355 592.967 251.991 592.967C244.627 592.967 243.937 592.089 243.937 579.794C243.937 567.498 244.627 566.62 251.991 566.62C259.355 566.62 260.046 567.498 260.046 579.794ZM306.072 595.602V624.144L298.707 622.827C294.335 621.949 291.113 619.314 291.343 615.801C291.573 613.166 291.804 600.432 292.034 588.576C292.264 567.059 292.494 566.62 299.168 566.62H306.072V595.602ZM508.585 579.794C508.585 591.65 507.895 592.967 501.681 592.967C495.468 592.967 494.777 591.65 494.777 579.794C494.777 567.938 495.468 566.62 501.681 566.62C507.895 566.62 508.585 567.938 508.585 579.794ZM869.427 580.672C868.737 594.723 867.586 596.041 856.08 593.406C854.929 592.967 853.779 586.819 853.779 579.794C853.779 567.498 854.469 566.62 862.063 566.62C869.888 566.62 870.118 567.059 869.427 580.672ZM1166.29 580.672C1166.98 592.089 1166.52 592.967 1158.93 592.967C1151.34 592.967 1150.65 592.089 1150.65 579.354C1150.65 567.059 1151.11 566.181 1158.24 567.498C1164.45 568.377 1165.83 571.011 1166.29 580.672ZM1258.81 579.794C1258.81 591.65 1258.12 592.967 1251.9 592.967C1245.69 592.967 1245 591.65 1245 579.794C1245 567.938 1245.69 566.62 1251.9 566.62C1258.12 566.62 1258.81 567.938 1258.81 579.794ZM665.073 610.532C665.073 622.388 664.382 623.705 658.169 623.705C651.955 623.705 651.265 622.388 651.265 610.532C651.265 598.676 651.955 597.358 658.169 597.358C664.382 597.358 665.073 598.676 665.073 610.532ZM1024.07 610.532C1024.07 622.388 1023.38 623.705 1017.17 623.705C1010.96 623.705 1010.27 622.388 1010.27 610.532C1010.27 598.676 1010.96 597.358 1017.17 597.358C1023.38 597.358 1024.07 598.676 1024.07 610.532ZM1118.43 625.901V654.443H1111.52H1104.62V625.901V597.358H1111.52H1118.43V625.901ZM337.139 639.074C337.139 650.93 336.449 652.247 330.235 652.247C325.402 652.247 323.101 650.052 322.641 644.343C321.26 629.853 324.022 622.827 330.695 624.583C336.218 625.901 337.139 628.096 337.139 639.074ZM696.831 640.391C697.521 654.443 697.291 654.882 689.927 653.565C684.864 652.687 682.102 649.613 681.642 644.343C680.261 629.853 683.023 622.827 689.697 624.583C695.22 625.461 696.37 628.096 696.831 640.391ZM1072.4 639.513C1072.4 654.443 1072.17 654.882 1065.04 653.565C1052.61 651.369 1052.84 623.705 1065.5 623.705C1071.94 623.705 1072.4 625.022 1072.4 639.513ZM414.232 669.812V685.62L399.964 684.303C388.228 683.425 385.466 681.668 384.776 675.081C382.935 658.395 385.926 654.443 400.424 654.443H414.232V669.812ZM133.475 698.354C133.475 710.21 132.784 711.528 126.571 711.528C120.357 711.528 119.667 710.21 119.667 698.354C119.667 686.498 120.357 685.181 126.571 685.181C132.784 685.181 133.475 686.498 133.475 698.354ZM197.451 699.233C198.141 710.65 197.681 711.528 190.087 711.528C182.492 711.528 181.802 710.65 181.802 697.915C181.802 685.62 182.262 684.742 189.396 686.059C195.61 686.937 196.99 689.572 197.451 699.233ZM1056.29 698.354C1056.29 710.65 1055.6 711.528 1048.24 711.528C1040.87 711.528 1040.18 710.65 1040.18 698.354C1040.18 686.059 1040.87 685.181 1048.24 685.181C1055.6 685.181 1056.29 686.059 1056.29 698.354ZM504.903 714.163C507.204 715.919 508.585 722.067 508.585 729.531C508.585 740.948 507.665 742.266 501.681 742.266C495.698 742.266 494.777 740.948 494.777 729.531C494.777 722.506 496.158 715.48 497.769 714.602C499.15 713.284 500.761 711.967 500.991 711.967C501.221 711.528 502.832 712.845 504.903 714.163ZM1274.91 760.269C1274.91 771.686 1273.99 773.004 1268.01 773.004C1262.03 773.004 1261.11 771.247 1261.11 760.709C1261.11 744.9 1262.26 743.144 1269.16 745.779C1273.76 747.096 1274.91 750.17 1274.91 760.269ZM1399.64 816.915C1400.8 832.723 1400.33 834.48 1391.82 834.48C1386.07 834.48 1385.38 833.162 1385.38 819.111C1385.38 805.059 1386.07 803.742 1392.05 803.742C1397.57 803.742 1398.72 805.937 1399.64 816.915Z" fill="url(#paint0_linear_1152_73)"/>
<defs>
<linearGradient id="paint0_linear_1152_73" x1="720.304" y1="874" x2="720.304" y2="0.163147" gradientUnits="userSpaceOnUse">
<stop stop-color="#5761CC"/>
<stop offset="1" stop-color="#31398C" stop-opacity="0.42"/>
</linearGradient>
</defs>
</svg>
