<svg width="1441" height="573" viewBox="0 0 1441 573" fill="none" xmlns="http://www.w3.org/2000/svg">
<path d="M1440.46 281.312H756.551L1109.89 80.2065C1113.17 78.4369 1116.88 77.6218 1120.6 77.8536C1124.17 77.9318 1127.65 79.0254 1130.62 81.0066L1262.39 175.854C1264.19 177.1 1266.22 177.987 1268.36 178.465L1363.8 201.077C1366.78 201.671 1369.51 203.147 1371.63 205.312L1440.46 281.312Z" fill="#CDE4DB"/>
<path d="M1123.04 172.042L1140.14 189.149C1140.33 189.34 1140.44 189.596 1140.44 189.863V238.204H1146.95V202.473C1146.95 202.293 1147 202.116 1147.09 201.959L1163.24 173.976L1160.27 172.233L1148.85 192.033C1148.74 192.226 1148.56 192.376 1148.36 192.461C1148.15 192.546 1147.92 192.561 1147.71 192.504C1147.49 192.447 1147.3 192.32 1147.16 192.144C1147.03 191.967 1146.95 191.751 1146.95 191.528V155.196H1140.44V182.159C1140.44 182.363 1140.39 182.563 1140.27 182.733C1140.16 182.903 1140 183.035 1139.81 183.112C1139.62 183.19 1139.42 183.208 1139.22 183.166C1139.02 183.123 1138.84 183.022 1138.7 182.874L1125.44 169.61L1123.04 172.042Z" fill="#D1A783"/>
<path d="M1098.5 158.979C1098.4 167.693 1105.68 174.813 1114.77 175.066L1160.81 178.866L1165.63 179.267C1180.06 179.432 1191.86 170.813 1191.99 160.094C1192.11 149.375 1180.51 140.469 1166.09 140.303C1165.13 140.303 1164.18 140.303 1163.25 140.39C1160.72 131.632 1151.69 125.07 1140.87 124.939C1128.61 124.8 1118.47 132.948 1117.34 143.432C1116.69 143.362 1116.06 143.318 1115.39 143.31C1106.21 143.162 1098.6 150.186 1098.5 158.979Z" fill="#40916C"/>
<path d="M185.421 48.0799L355.045 282.311H0.456543L47.186 129.642C47.5267 128.096 48.3842 126.641 49.6771 125.415C50.97 124.189 52.6555 123.232 54.5742 122.636L118.104 107.024C120.386 106.398 122.303 105.183 123.515 103.593L169.539 47.582C173.68 42.4254 181.633 42.6744 185.421 48.0799Z" fill="#CDE4DB"/>
<path d="M210.694 155.392L237.041 176.94C237.241 177.113 237.401 177.328 237.51 177.57C237.618 177.812 237.672 178.075 237.668 178.34V238.204H245.356V173.433C245.352 172.992 245.509 172.564 245.797 172.229L268.951 145.51L266.502 142.699L247.893 164.148C246.913 165.216 245.356 164.462 245.356 162.934V132.219H237.668V169.251C237.668 170.642 236.316 171.445 235.327 170.652L212.692 152.14L210.694 155.392Z" fill="#D1A783"/>
<path d="M186.698 152.875C190.126 158.262 196.394 160.828 203.289 160.387H203.456L205.18 160.201L275.797 152.581C285.014 152.111 292.565 146.567 294.024 138.291C295.866 127.87 287.364 117.047 275.033 114.148C272.888 113.632 270.687 113.388 268.481 113.423C267.892 113.421 267.327 113.188 266.908 112.774C266.489 112.36 266.248 111.798 266.238 111.21C265.601 95.8617 254.563 82.1006 239.244 79.5345C223.632 76.9194 208.882 87.4581 205.689 103.521C204.838 107.763 204.808 112.128 205.601 116.381C205.712 116.881 205.637 117.405 205.39 117.854C205.143 118.303 204.741 118.646 204.259 118.82C201.561 119.723 199.005 121.006 196.668 122.63C185.415 130.279 180.948 143.844 186.698 152.875Z" fill="#40916C"/>
<path d="M523.149 69.8329H517.092V185.211H523.149V69.8329Z" fill="#CDE4DB"/>
<path d="M588.698 84.5004L587.808 87.9011C587.618 88.6163 587.093 89.1272 586.582 89.1126L530.097 87.653C529.954 87.6478 529.815 87.6045 529.694 87.5275C529.574 87.4505 529.476 87.3427 529.411 87.2152L522.186 74.6921C521.977 74.2972 521.93 73.8366 522.055 73.4077L523.602 67.4818C523.821 66.6791 524.448 66.1536 525.061 66.2996L588.114 82.778C588.611 82.924 588.903 83.7268 588.698 84.5004Z" fill="#CDE4DB"/>
<path d="M464.489 111.868L462.417 109.022C462.216 108.789 462.093 108.499 462.067 108.192C462.041 107.885 462.112 107.578 462.271 107.315L499.271 64.6078C499.369 64.5049 499.491 64.4282 499.626 64.3848C499.761 64.3415 499.905 64.3328 500.044 64.3596L514.304 66.7241C514.742 66.8248 515.128 67.0849 515.384 67.4539L518.975 72.4164C519.457 73.0878 519.471 73.876 518.975 74.2409L466.197 112.467C465.745 112.803 464.971 112.54 464.489 111.868Z" fill="#CDE4DB"/>
<path d="M509.882 1.24794L513.385 0.839307C513.687 0.778091 514.001 0.814323 514.282 0.942823C514.563 1.07132 514.795 1.28546 514.946 1.55448L534.11 54.7117C534.159 54.8499 534.17 54.9986 534.142 55.1424C534.114 55.2862 534.048 55.4197 533.95 55.5291L524.901 66.797C524.755 66.963 524.579 67.0986 524.381 67.1963C524.183 67.294 523.968 67.3517 523.748 67.3661L517.661 68.0814C516.844 68.169 516.114 67.7748 516.056 67.2056L508.583 2.4594C508.451 1.89017 509.064 1.33551 509.882 1.24794Z" fill="#CDE4DB"/>
<path d="M520.128 77.6847C523.747 77.6847 526.681 74.7507 526.681 71.1313C526.681 67.5119 523.747 64.5779 520.128 64.5779C516.508 64.5779 513.574 67.5119 513.574 71.1313C513.574 74.7507 516.508 77.6847 520.128 77.6847Z" fill="#E2F2EA"/>
<path d="M624.551 97.9005H620.577V173.583H624.551V97.9005Z" fill="#CDE4DB"/>
<path d="M590.676 129.356L589.086 127.676C588.933 127.543 588.827 127.363 588.785 127.164C588.742 126.966 588.766 126.759 588.851 126.574L609.285 95.6614C609.339 95.5848 609.413 95.5244 609.499 95.4863C609.585 95.4481 609.679 95.4337 609.773 95.4446L619.24 95.7698C619.385 95.7777 619.528 95.8155 619.658 95.8808C619.789 95.9461 619.905 96.0374 619.999 96.1492L622.763 99.058C623.142 99.4555 623.214 99.9975 622.925 100.25L591.85 129.591C591.579 129.808 591.055 129.7 590.676 129.356Z" fill="#CDE4DB"/>
<path d="M615.229 51.9373L617.523 51.6663C617.721 51.6204 617.928 51.6396 618.113 51.721C618.299 51.8024 618.453 51.9417 618.553 52.118L631.2 86.9332C631.227 87.0226 631.231 87.1174 631.212 87.2089C631.194 87.3004 631.152 87.3857 631.092 87.4571L625.202 94.8826C625.005 95.0992 624.734 95.2346 624.443 95.2621L620.45 95.7499C619.908 95.7499 619.438 95.5512 619.384 95.1718L614.289 52.7323C614.289 52.3529 614.687 52.0096 615.229 51.9373Z" fill="#CDE4DB"/>
<path d="M668.219 101.84L667.894 104.116C667.885 104.322 667.81 104.519 667.679 104.678C667.549 104.838 667.371 104.951 667.172 105.001L630.279 108.326C630.182 108.333 630.085 108.313 629.999 108.268C629.913 108.224 629.841 108.156 629.791 108.073L624.136 100.448C623.969 100.206 623.904 99.9073 623.955 99.6172L624.515 95.6426C624.606 95.1006 624.967 94.7211 625.346 94.7753L667.659 100.755C668.039 100.828 668.292 101.298 668.219 101.84Z" fill="#CDE4DB"/>
<path d="M622.564 102.2C624.939 102.2 626.864 100.275 626.864 97.9003C626.864 95.5255 624.939 93.6003 622.564 93.6003C620.189 93.6003 618.264 95.5255 618.264 97.9003C618.264 100.275 620.189 102.2 622.564 102.2Z" fill="#E2F2EA"/>
<path fill-rule="evenodd" clip-rule="evenodd" d="M1440.46 293V271.012C1440.46 271.012 1305.14 227.63 1151.09 219.889C1094.18 217.029 1057.3 219.462 1024.42 221.63C968.295 225.331 923.837 228.263 811.374 202.797C691.539 175.612 648.645 165.897 556.574 164.413C390.268 161.74 0.456543 271.012 0.456543 271.012V298.477H0.500006V573H1440.5V293H1440.46Z" fill="#40916C"/>
</svg>
