<svg width="548" height="79" viewBox="0 0 548 79" fill="none" xmlns="http://www.w3.org/2000/svg">
<path d="M70.625 70.9648V78.6992H62.8125V70.9648H70.625ZM62.8125 70.9648V63.3086H70.625V70.9648H62.8125ZM62.8125 63.3086V55.457H70.625V63.3086H62.8125ZM62.8125 70.9648V78.6992H54.9609V70.9648H62.8125ZM54.9609 70.9648V63.3086H62.8125V70.9648H54.9609ZM54.9609 63.3086V55.457H62.8125V63.3086H54.9609ZM54.9609 55.457V47.6445H62.8125V55.457H54.9609ZM54.9609 70.9648V78.6992H47.1484V70.9648H54.9609ZM47.1484 70.9648V63.3086H54.9609V70.9648H47.1484ZM47.1484 55.457V47.6445H54.9609V55.457H47.1484ZM47.1484 70.9648V78.6992H39.2969V70.9648H47.1484ZM39.2969 70.9648V63.3086H47.1484V70.9648H39.2969ZM39.2969 55.457V47.6445H47.1484V55.457H39.2969ZM39.2969 70.9648V78.6992H31.4453V70.9648H39.2969ZM31.4453 70.9648V63.3086H39.2969V70.9648H31.4453ZM31.4453 55.457V47.6445H39.2969V55.457H31.4453ZM31.4453 47.6445V39.793H39.2969V47.6445H31.4453ZM31.4453 39.793V31.9805H39.2969V39.793H31.4453ZM31.4453 31.9805V24.1289H39.2969V31.9805H31.4453ZM31.4453 24.1289V16.2773H39.2969V24.1289H31.4453ZM31.4453 16.2773V8.62109H39.2969V16.2773H31.4453ZM23.7891 8.62109V0.769531H31.4453V8.62109H23.7891ZM31.4453 70.9648V78.6992H23.7891V70.9648H31.4453ZM23.7891 70.9648V63.3086H31.4453V70.9648H23.7891ZM23.7891 55.457V47.6445H31.4453V55.457H23.7891ZM23.7891 47.6445V39.793H31.4453V47.6445H23.7891ZM23.7891 39.793V31.9805H31.4453V39.793H23.7891ZM23.7891 31.9805V24.1289H31.4453V31.9805H23.7891ZM23.7891 24.1289V16.2773H31.4453V24.1289H23.7891ZM23.7891 16.2773V8.62109H31.4453V16.2773H23.7891ZM15.9375 8.62109V0.769531H23.7891V8.62109H15.9375ZM23.7891 70.9648V78.6992H15.9375V70.9648H23.7891ZM15.9375 70.9648V63.3086H23.7891V70.9648H15.9375ZM8.125 8.62109V0.769531H15.9375V8.62109H8.125ZM15.9375 70.9648V78.6992H8.125V70.9648H15.9375ZM8.125 70.9648V63.3086H15.9375V70.9648H8.125ZM0.273438 8.62109V0.769531H8.125V8.62109H0.273438ZM0.273438 70.9648V63.3086H8.125V70.9648H0.273438ZM0.273438 63.3086V55.457H8.125V63.3086H0.273438ZM0.273438 55.457V47.6445H8.125V55.457H0.273438ZM0.273438 47.6445V39.793H8.125V47.6445H0.273438ZM0.273438 39.793V31.9805H8.125V39.793H0.273438ZM0.273438 31.9805V24.1289H8.125V31.9805H0.273438ZM0.273438 24.1289V16.2773H8.125V24.1289H0.273438ZM0.273438 16.2773V8.62109H8.125V16.2773H0.273438ZM133.203 70.9648V63.3086H140.898V70.9648H133.203ZM133.203 63.3086V55.457H140.898V63.3086H133.203ZM133.203 55.457V47.6445H140.898V55.457H133.203ZM133.203 47.6445V39.793H140.898V47.6445H133.203ZM133.203 39.793V31.9805H140.898V39.793H133.203ZM133.203 31.9805V24.1289H140.898V31.9805H133.203ZM133.203 24.1289V16.2773H140.898V24.1289H133.203ZM133.203 70.9648V78.6992H125.391V70.9648H133.203ZM125.391 70.9648V63.3086H133.203V70.9648H125.391ZM125.391 63.3086V55.457H133.203V63.3086H125.391ZM125.391 55.457V47.6445H133.203V55.457H125.391ZM125.391 47.6445V39.793H133.203V47.6445H125.391ZM125.391 39.793V31.9805H133.203V39.793H125.391ZM125.391 31.9805V24.1289H133.203V31.9805H125.391ZM125.391 24.1289V16.2773H133.203V24.1289H125.391ZM125.391 16.2773V8.62109H133.203V16.2773H125.391ZM117.539 8.62109V0.769531H125.391V8.62109H117.539ZM125.391 70.9648V78.6992H117.539V70.9648H125.391ZM117.539 70.9648V63.3086H125.391V70.9648H117.539ZM117.539 63.3086V55.457H125.391V63.3086H117.539ZM117.539 16.2773V8.62109H125.391V16.2773H117.539ZM109.727 8.62109V0.769531H117.539V8.62109H109.727ZM117.539 70.9648V78.6992H109.727V70.9648H117.539ZM109.727 70.9648V63.3086H117.539V70.9648H109.727ZM101.875 8.62109V0.769531H109.727V8.62109H101.875ZM109.727 70.9648V78.6992H101.875V70.9648H109.727ZM101.875 70.9648V63.3086H109.727V70.9648H101.875ZM101.875 55.457V47.6445H109.727V55.457H101.875ZM101.875 47.6445V39.793H109.727V47.6445H101.875ZM101.875 39.793V31.9805H109.727V39.793H101.875ZM101.875 31.9805V24.1289H109.727V31.9805H101.875ZM101.875 24.1289V16.2773H109.727V24.1289H101.875ZM94.0234 8.62109V0.769531H101.875V8.62109H94.0234ZM101.875 70.9648V78.6992H94.0234V70.9648H101.875ZM94.0234 70.9648V63.3086H101.875V70.9648H94.0234ZM94.0234 55.457V47.6445H101.875V55.457H94.0234ZM94.0234 47.6445V39.793H101.875V47.6445H94.0234ZM94.0234 39.793V31.9805H101.875V39.793H94.0234ZM94.0234 31.9805V24.1289H101.875V31.9805H94.0234ZM94.0234 24.1289V16.2773H101.875V24.1289H94.0234ZM86.3672 8.62109V0.769531H94.0234V8.62109H86.3672ZM94.0234 70.9648V78.6992H86.3672V70.9648H94.0234ZM86.3672 70.9648V63.3086H94.0234V70.9648H86.3672ZM86.3672 55.457V47.6445H94.0234V55.457H86.3672ZM86.3672 47.6445V39.793H94.0234V47.6445H86.3672ZM86.3672 39.793V31.9805H94.0234V39.793H86.3672ZM86.3672 31.9805V24.1289H94.0234V31.9805H86.3672ZM86.3672 24.1289V16.2773H94.0234V24.1289H86.3672ZM78.5156 8.62109V0.769531H86.3672V8.62109H78.5156ZM86.3672 70.9648V78.6992H78.5156V70.9648H86.3672ZM78.5156 70.9648V63.3086H86.3672V70.9648H78.5156ZM70.7031 8.62109V0.769531H78.5156V8.62109H70.7031ZM70.7031 70.9648V63.3086H78.5156V70.9648H70.7031ZM70.7031 63.3086V55.457H78.5156V63.3086H70.7031ZM70.7031 16.2773V8.62109H78.5156V16.2773H70.7031ZM62.8516 63.3086V55.457H70.7031V63.3086H62.8516ZM62.8516 55.457V47.6445H70.7031V55.457H62.8516ZM62.8516 47.6445V39.793H70.7031V47.6445H62.8516ZM62.8516 39.793V31.9805H70.7031V39.793H62.8516ZM62.8516 31.9805V24.1289H70.7031V31.9805H62.8516ZM62.8516 24.1289V16.2773H70.7031V24.1289H62.8516ZM62.8516 16.2773V8.62109H70.7031V16.2773H62.8516ZM211.289 70.9648V78.6992H203.594V70.9648H211.289ZM203.594 70.9648V63.3086H211.289V70.9648H203.594ZM203.594 63.3086V55.457H211.289V63.3086H203.594ZM203.594 55.457V47.6445H211.289V55.457H203.594ZM203.594 47.6445V39.793H211.289V47.6445H203.594ZM203.594 39.793V31.9805H211.289V39.793H203.594ZM203.594 31.9805V24.1289H211.289V31.9805H203.594ZM203.594 24.1289V16.2773H211.289V24.1289H203.594ZM203.594 70.9648V78.6992H195.781V70.9648H203.594ZM195.781 70.9648V63.3086H203.594V70.9648H195.781ZM195.781 63.3086V55.457H203.594V63.3086H195.781ZM195.781 55.457V47.6445H203.594V55.457H195.781ZM195.781 47.6445V39.793H203.594V47.6445H195.781ZM195.781 39.793V31.9805H203.594V39.793H195.781ZM195.781 31.9805V24.1289H203.594V31.9805H195.781ZM195.781 24.1289V16.2773H203.594V24.1289H195.781ZM195.781 16.2773V8.62109H203.594V16.2773H195.781ZM187.93 8.62109V0.769531H195.781V8.62109H187.93ZM195.781 70.9648V78.6992H187.93V70.9648H195.781ZM187.93 70.9648V63.3086H195.781V70.9648H187.93ZM187.93 31.9805V24.1289H195.781V31.9805H187.93ZM187.93 16.2773V8.62109H195.781V16.2773H187.93ZM180.117 8.62109V0.769531H187.93V8.62109H180.117ZM187.93 70.9648V78.6992H180.117V70.9648H187.93ZM180.117 70.9648V63.3086H187.93V70.9648H180.117ZM180.117 63.3086V55.457H187.93V63.3086H180.117ZM180.117 31.9805V24.1289H187.93V31.9805H180.117ZM172.266 8.62109V0.769531H180.117V8.62109H172.266ZM180.117 70.9648V78.6992H172.266V70.9648H180.117ZM172.266 70.9648V63.3086H180.117V70.9648H172.266ZM172.266 55.457V47.6445H180.117V55.457H172.266ZM172.266 47.6445V39.793H180.117V47.6445H172.266ZM172.266 31.9805V24.1289H180.117V31.9805H172.266ZM172.266 24.1289V16.2773H180.117V24.1289H172.266ZM164.414 8.62109V0.769531H172.266V8.62109H164.414ZM172.266 70.9648V78.6992H164.414V70.9648H172.266ZM164.414 70.9648V63.3086H172.266V70.9648H164.414ZM164.414 55.457V47.6445H172.266V55.457H164.414ZM164.414 47.6445V39.793H172.266V47.6445H164.414ZM164.414 39.793V31.9805H172.266V39.793H164.414ZM164.414 31.9805V24.1289H172.266V31.9805H164.414ZM164.414 24.1289V16.2773H172.266V24.1289H164.414ZM156.758 8.62109V0.769531H164.414V8.62109H156.758ZM164.414 70.9648V78.6992H156.758V70.9648H164.414ZM156.758 70.9648V63.3086H164.414V70.9648H156.758ZM156.758 55.457V47.6445H164.414V55.457H156.758ZM156.758 47.6445V39.793H164.414V47.6445H156.758ZM156.758 39.793V31.9805H164.414V39.793H156.758ZM156.758 31.9805V24.1289H164.414V31.9805H156.758ZM156.758 24.1289V16.2773H164.414V24.1289H156.758ZM148.906 8.62109V0.769531H156.758V8.62109H148.906ZM156.758 70.9648V78.6992H148.906V70.9648H156.758ZM148.906 70.9648V63.3086H156.758V70.9648H148.906ZM141.094 8.62109V0.769531H148.906V8.62109H141.094ZM141.094 70.9648V63.3086H148.906V70.9648H141.094ZM141.094 63.3086V55.457H148.906V63.3086H141.094ZM141.094 16.2773V8.62109H148.906V16.2773H141.094ZM133.242 63.3086V55.457H141.094V63.3086H133.242ZM133.242 55.457V47.6445H141.094V55.457H133.242ZM133.242 47.6445V39.793H141.094V47.6445H133.242ZM133.242 39.793V31.9805H141.094V39.793H133.242ZM133.242 31.9805V24.1289H141.094V31.9805H133.242ZM133.242 24.1289V16.2773H141.094V24.1289H133.242ZM133.242 16.2773V8.62109H141.094V16.2773H133.242ZM242.656 70.9648V78.6992H234.805V70.9648H242.656ZM234.805 70.9648V63.3086H242.656V70.9648H234.805ZM234.805 63.3086V55.457H242.656V63.3086H234.805ZM234.805 55.457V47.6445H242.656V55.457H234.805ZM234.805 47.6445V39.793H242.656V47.6445H234.805ZM234.805 39.793V31.9805H242.656V39.793H234.805ZM234.805 31.9805V24.1289H242.656V31.9805H234.805ZM234.805 24.1289V16.2773H242.656V24.1289H234.805ZM234.805 16.2773V8.62109H242.656V16.2773H234.805ZM227.148 8.62109V0.769531H234.805V8.62109H227.148ZM234.805 70.9648V78.6992H227.148V70.9648H234.805ZM227.148 70.9648V63.3086H234.805V70.9648H227.148ZM227.148 63.3086V55.457H234.805V63.3086H227.148ZM227.148 55.457V47.6445H234.805V55.457H227.148ZM227.148 47.6445V39.793H234.805V47.6445H227.148ZM227.148 39.793V31.9805H234.805V39.793H227.148ZM227.148 31.9805V24.1289H234.805V31.9805H227.148ZM227.148 24.1289V16.2773H234.805V24.1289H227.148ZM227.148 16.2773V8.62109H234.805V16.2773H227.148ZM219.297 8.62109V0.769531H227.148V8.62109H219.297ZM227.148 70.9648V78.6992H219.297V70.9648H227.148ZM219.297 70.9648V63.3086H227.148V70.9648H219.297ZM211.484 8.62109V0.769531H219.297V8.62109H211.484ZM219.297 70.9648V78.6992H211.484V70.9648H219.297ZM211.484 70.9648V63.3086H219.297V70.9648H211.484ZM203.633 8.62109V0.769531H211.484V8.62109H203.633ZM203.633 70.9648V63.3086H211.484V70.9648H203.633ZM203.633 63.3086V55.457H211.484V63.3086H203.633ZM203.633 55.457V47.6445H211.484V55.457H203.633ZM203.633 47.6445V39.793H211.484V47.6445H203.633ZM203.633 39.793V31.9805H211.484V39.793H203.633ZM203.633 31.9805V24.1289H211.484V31.9805H203.633ZM203.633 24.1289V16.2773H211.484V24.1289H203.633ZM203.633 16.2773V8.62109H211.484V16.2773H203.633ZM305.156 70.9648V63.3086H312.852V70.9648H305.156ZM305.156 63.3086V55.457H312.852V63.3086H305.156ZM305.156 55.457V47.6445H312.852V55.457H305.156ZM305.156 47.6445V39.793H312.852V47.6445H305.156ZM305.156 39.793V31.9805H312.852V39.793H305.156ZM305.156 31.9805V24.1289H312.852V31.9805H305.156ZM305.156 24.1289V16.2773H312.852V24.1289H305.156ZM305.156 70.9648V78.6992H297.344V70.9648H305.156ZM297.344 70.9648V63.3086H305.156V70.9648H297.344ZM297.344 63.3086V55.457H305.156V63.3086H297.344ZM297.344 55.457V47.6445H305.156V55.457H297.344ZM297.344 47.6445V39.793H305.156V47.6445H297.344ZM297.344 39.793V31.9805H305.156V39.793H297.344ZM297.344 31.9805V24.1289H305.156V31.9805H297.344ZM297.344 24.1289V16.2773H305.156V24.1289H297.344ZM297.344 16.2773V8.62109H305.156V16.2773H297.344ZM289.492 8.62109V0.769531H297.344V8.62109H289.492ZM297.344 70.9648V78.6992H289.492V70.9648H297.344ZM289.492 70.9648V63.3086H297.344V70.9648H289.492ZM289.492 63.3086V55.457H297.344V63.3086H289.492ZM289.492 39.793V31.9805H297.344V39.793H289.492ZM289.492 31.9805V24.1289H297.344V31.9805H289.492ZM289.492 16.2773V8.62109H297.344V16.2773H289.492ZM281.68 8.62109V0.769531H289.492V8.62109H281.68ZM289.492 70.9648V78.6992H281.68V70.9648H289.492ZM281.68 70.9648V63.3086H289.492V70.9648H281.68ZM281.68 31.9805V24.1289H289.492V31.9805H281.68ZM273.828 8.62109V0.769531H281.68V8.62109H273.828ZM281.68 70.9648V78.6992H273.828V70.9648H281.68ZM273.828 70.9648V63.3086H281.68V70.9648H273.828ZM273.828 55.457V47.6445H281.68V55.457H273.828ZM273.828 47.6445V39.793H281.68V47.6445H273.828ZM273.828 31.9805V24.1289H281.68V31.9805H273.828ZM273.828 24.1289V16.2773H281.68V24.1289H273.828ZM265.977 8.62109V0.769531H273.828V8.62109H265.977ZM273.828 70.9648V78.6992H265.977V70.9648H273.828ZM265.977 70.9648V63.3086H273.828V70.9648H265.977ZM265.977 55.457V47.6445H273.828V55.457H265.977ZM265.977 47.6445V39.793H273.828V47.6445H265.977ZM265.977 31.9805V24.1289H273.828V31.9805H265.977ZM265.977 24.1289V16.2773H273.828V24.1289H265.977ZM258.32 8.62109V0.769531H265.977V8.62109H258.32ZM265.977 70.9648V78.6992H258.32V70.9648H265.977ZM258.32 70.9648V63.3086H265.977V70.9648H258.32ZM258.32 55.457V47.6445H265.977V55.457H258.32ZM258.32 47.6445V39.793H265.977V47.6445H258.32ZM258.32 31.9805V24.1289H265.977V31.9805H258.32ZM258.32 24.1289V16.2773H265.977V24.1289H258.32ZM250.469 8.62109V0.769531H258.32V8.62109H250.469ZM258.32 70.9648V78.6992H250.469V70.9648H258.32ZM250.469 70.9648V63.3086H258.32V70.9648H250.469ZM250.469 47.6445V39.793H258.32V47.6445H250.469ZM242.656 8.62109V0.769531H250.469V8.62109H242.656ZM242.656 70.9648V63.3086H250.469V70.9648H242.656ZM242.656 63.3086V55.457H250.469V63.3086H242.656ZM242.656 47.6445V39.793H250.469V47.6445H242.656ZM242.656 39.793V31.9805H250.469V39.793H242.656ZM242.656 16.2773V8.62109H250.469V16.2773H242.656ZM234.805 63.3086V55.457H242.656V63.3086H234.805ZM234.805 55.457V47.6445H242.656V55.457H234.805ZM234.805 47.6445V39.793H242.656V47.6445H234.805ZM234.805 39.793V31.9805H242.656V39.793H234.805ZM234.805 31.9805V24.1289H242.656V31.9805H234.805ZM234.805 24.1289V16.2773H242.656V24.1289H234.805ZM234.805 16.2773V8.62109H242.656V16.2773H234.805ZM367.734 31.9805V24.1289H375.547V31.9805H367.734ZM367.734 24.1289V16.2773H375.547V24.1289H367.734ZM367.734 16.2773V8.62109H375.547V16.2773H367.734ZM359.883 8.62109V0.769531H367.734V8.62109H359.883ZM359.883 31.9805V24.1289H367.734V31.9805H359.883ZM359.883 24.1289V16.2773H367.734V24.1289H359.883ZM359.883 16.2773V8.62109H367.734V16.2773H359.883ZM352.07 8.62109V0.769531H359.883V8.62109H352.07ZM359.883 70.9648V78.6992H352.07V70.9648H359.883ZM352.07 70.9648V63.3086H359.883V70.9648H352.07ZM352.07 63.3086V55.457H359.883V63.3086H352.07ZM352.07 55.457V47.6445H359.883V55.457H352.07ZM352.07 47.6445V39.793H359.883V47.6445H352.07ZM352.07 39.793V31.9805H359.883V39.793H352.07ZM352.07 31.9805V24.1289H359.883V31.9805H352.07ZM352.07 24.1289V16.2773H359.883V24.1289H352.07ZM344.219 8.62109V0.769531H352.07V8.62109H344.219ZM352.07 70.9648V78.6992H344.219V70.9648H352.07ZM344.219 70.9648V63.3086H352.07V70.9648H344.219ZM344.219 63.3086V55.457H352.07V63.3086H344.219ZM344.219 55.457V47.6445H352.07V55.457H344.219ZM344.219 47.6445V39.793H352.07V47.6445H344.219ZM344.219 39.793V31.9805H352.07V39.793H344.219ZM344.219 31.9805V24.1289H352.07V31.9805H344.219ZM344.219 24.1289V16.2773H352.07V24.1289H344.219ZM336.367 8.62109V0.769531H344.219V8.62109H336.367ZM344.219 70.9648V78.6992H336.367V70.9648H344.219ZM336.367 70.9648V63.3086H344.219V70.9648H336.367ZM328.711 8.62109V0.769531H336.367V8.62109H328.711ZM336.367 70.9648V78.6992H328.711V70.9648H336.367ZM328.711 70.9648V63.3086H336.367V70.9648H328.711ZM320.859 8.62109V0.769531H328.711V8.62109H320.859ZM320.859 70.9648V63.3086H328.711V70.9648H320.859ZM320.859 63.3086V55.457H328.711V63.3086H320.859ZM320.859 55.457V47.6445H328.711V55.457H320.859ZM320.859 47.6445V39.793H328.711V47.6445H320.859ZM320.859 39.793V31.9805H328.711V39.793H320.859ZM320.859 31.9805V24.1289H328.711V31.9805H320.859ZM320.859 24.1289V16.2773H328.711V24.1289H320.859ZM313.047 8.62109V0.769531H320.859V8.62109H313.047ZM313.047 24.1289V16.2773H320.859V24.1289H313.047ZM305.195 8.62109V0.769531H313.047V8.62109H305.195ZM305.195 24.1289V16.2773H313.047V24.1289H305.195ZM305.195 16.2773V8.62109H313.047V16.2773H305.195ZM406.797 70.9648V78.6992H398.945V70.9648H406.797ZM398.945 70.9648V63.3086H406.797V70.9648H398.945ZM398.945 63.3086V55.457H406.797V63.3086H398.945ZM398.945 55.457V47.6445H406.797V55.457H398.945ZM398.945 47.6445V39.793H406.797V47.6445H398.945ZM398.945 39.793V31.9805H406.797V39.793H398.945ZM398.945 31.9805V24.1289H406.797V31.9805H398.945ZM398.945 24.1289V16.2773H406.797V24.1289H398.945ZM398.945 16.2773V8.62109H406.797V16.2773H398.945ZM391.289 8.62109V0.769531H398.945V8.62109H391.289ZM398.945 70.9648V78.6992H391.289V70.9648H398.945ZM391.289 70.9648V63.3086H398.945V70.9648H391.289ZM391.289 63.3086V55.457H398.945V63.3086H391.289ZM391.289 55.457V47.6445H398.945V55.457H391.289ZM391.289 47.6445V39.793H398.945V47.6445H391.289ZM391.289 39.793V31.9805H398.945V39.793H391.289ZM391.289 31.9805V24.1289H398.945V31.9805H391.289ZM391.289 24.1289V16.2773H398.945V24.1289H391.289ZM391.289 16.2773V8.62109H398.945V16.2773H391.289ZM383.438 8.62109V0.769531H391.289V8.62109H383.438ZM391.289 70.9648V78.6992H383.438V70.9648H391.289ZM383.438 70.9648V63.3086H391.289V70.9648H383.438ZM375.625 8.62109V0.769531H383.438V8.62109H375.625ZM383.438 70.9648V78.6992H375.625V70.9648H383.438ZM375.625 70.9648V63.3086H383.438V70.9648H375.625ZM367.773 8.62109V0.769531H375.625V8.62109H367.773ZM367.773 70.9648V63.3086H375.625V70.9648H367.773ZM367.773 63.3086V55.457H375.625V63.3086H367.773ZM367.773 55.457V47.6445H375.625V55.457H367.773ZM367.773 47.6445V39.793H375.625V47.6445H367.773ZM367.773 39.793V31.9805H375.625V39.793H367.773ZM367.773 31.9805V24.1289H375.625V31.9805H367.773ZM367.773 24.1289V16.2773H375.625V24.1289H367.773ZM367.773 16.2773V8.62109H375.625V16.2773H367.773ZM469.297 70.9648V63.3086H476.992V70.9648H469.297ZM469.297 63.3086V55.457H476.992V63.3086H469.297ZM469.297 55.457V47.6445H476.992V55.457H469.297ZM469.297 39.793V31.9805H476.992V39.793H469.297ZM469.297 31.9805V24.1289H476.992V31.9805H469.297ZM469.297 24.1289V16.2773H476.992V24.1289H469.297ZM469.297 70.9648V78.6992H461.484V70.9648H469.297ZM461.484 70.9648V63.3086H469.297V70.9648H461.484ZM461.484 63.3086V55.457H469.297V63.3086H461.484ZM461.484 55.457V47.6445H469.297V55.457H461.484ZM461.484 47.6445V39.793H469.297V47.6445H461.484ZM461.484 39.793V31.9805H469.297V39.793H461.484ZM461.484 31.9805V24.1289H469.297V31.9805H461.484ZM461.484 24.1289V16.2773H469.297V24.1289H461.484ZM461.484 16.2773V8.62109H469.297V16.2773H461.484ZM453.633 8.62109V0.769531H461.484V8.62109H453.633ZM461.484 70.9648V78.6992H453.633V70.9648H461.484ZM453.633 70.9648V63.3086H461.484V70.9648H453.633ZM453.633 63.3086V55.457H461.484V63.3086H453.633ZM453.633 47.6445V39.793H461.484V47.6445H453.633ZM453.633 39.793V31.9805H461.484V39.793H453.633ZM453.633 31.9805V24.1289H461.484V31.9805H453.633ZM453.633 16.2773V8.62109H461.484V16.2773H453.633ZM445.82 8.62109V0.769531H453.633V8.62109H445.82ZM453.633 70.9648V78.6992H445.82V70.9648H453.633ZM445.82 70.9648V63.3086H453.633V70.9648H445.82ZM445.82 47.6445V39.793H453.633V47.6445H445.82ZM445.82 39.793V31.9805H453.633V39.793H445.82ZM445.82 31.9805V24.1289H453.633V31.9805H445.82ZM437.969 8.62109V0.769531H445.82V8.62109H437.969ZM445.82 70.9648V78.6992H437.969V70.9648H445.82ZM437.969 70.9648V63.3086H445.82V70.9648H437.969ZM437.969 55.457V47.6445H445.82V55.457H437.969ZM437.969 47.6445V39.793H445.82V47.6445H437.969ZM437.969 39.793V31.9805H445.82V39.793H437.969ZM437.969 31.9805V24.1289H445.82V31.9805H437.969ZM437.969 24.1289V16.2773H445.82V24.1289H437.969ZM430.117 8.62109V0.769531H437.969V8.62109H430.117ZM437.969 70.9648V78.6992H430.117V70.9648H437.969ZM430.117 70.9648V63.3086H437.969V70.9648H430.117ZM430.117 55.457V47.6445H437.969V55.457H430.117ZM430.117 47.6445V39.793H437.969V47.6445H430.117ZM430.117 39.793V31.9805H437.969V39.793H430.117ZM430.117 31.9805V24.1289H437.969V31.9805H430.117ZM430.117 24.1289V16.2773H437.969V24.1289H430.117ZM422.461 8.62109V0.769531H430.117V8.62109H422.461ZM430.117 70.9648V78.6992H422.461V70.9648H430.117ZM422.461 70.9648V63.3086H430.117V70.9648H422.461ZM422.461 55.457V47.6445H430.117V55.457H422.461ZM422.461 47.6445V39.793H430.117V47.6445H422.461ZM422.461 39.793V31.9805H430.117V39.793H422.461ZM422.461 31.9805V24.1289H430.117V31.9805H422.461ZM422.461 24.1289V16.2773H430.117V24.1289H422.461ZM414.609 8.62109V0.769531H422.461V8.62109H414.609ZM422.461 70.9648V78.6992H414.609V70.9648H422.461ZM414.609 70.9648V63.3086H422.461V70.9648H414.609ZM406.797 8.62109V0.769531H414.609V8.62109H406.797ZM406.797 70.9648V63.3086H414.609V70.9648H406.797ZM406.797 63.3086V55.457H414.609V63.3086H406.797ZM406.797 16.2773V8.62109H414.609V16.2773H406.797ZM398.945 63.3086V55.457H406.797V63.3086H398.945ZM398.945 55.457V47.6445H406.797V55.457H398.945ZM398.945 47.6445V39.793H406.797V47.6445H398.945ZM398.945 39.793V31.9805H406.797V39.793H398.945ZM398.945 31.9805V24.1289H406.797V31.9805H398.945ZM398.945 24.1289V16.2773H406.797V24.1289H398.945ZM398.945 16.2773V8.62109H406.797V16.2773H398.945ZM539.688 70.9648V63.3086H547.383V70.9648H539.688ZM539.688 63.3086V55.457H547.383V63.3086H539.688ZM539.688 55.457V47.6445H547.383V55.457H539.688ZM539.688 47.6445V39.793H547.383V47.6445H539.688ZM539.688 39.793V31.9805H547.383V39.793H539.688ZM539.688 31.9805V24.1289H547.383V31.9805H539.688ZM539.688 24.1289V16.2773H547.383V24.1289H539.688ZM539.688 70.9648V78.6992H531.875V70.9648H539.688ZM531.875 70.9648V63.3086H539.688V70.9648H531.875ZM531.875 63.3086V55.457H539.688V63.3086H531.875ZM531.875 55.457V47.6445H539.688V55.457H531.875ZM531.875 47.6445V39.793H539.688V47.6445H531.875ZM531.875 39.793V31.9805H539.688V39.793H531.875ZM531.875 31.9805V24.1289H539.688V31.9805H531.875ZM531.875 24.1289V16.2773H539.688V24.1289H531.875ZM531.875 16.2773V8.62109H539.688V16.2773H531.875ZM524.023 8.62109V0.769531H531.875V8.62109H524.023ZM531.875 70.9648V78.6992H524.023V70.9648H531.875ZM524.023 70.9648V63.3086H531.875V70.9648H524.023ZM524.023 63.3086V55.457H531.875V63.3086H524.023ZM524.023 39.793V31.9805H531.875V39.793H524.023ZM524.023 31.9805V24.1289H531.875V31.9805H524.023ZM524.023 16.2773V8.62109H531.875V16.2773H524.023ZM516.211 8.62109V0.769531H524.023V8.62109H516.211ZM524.023 70.9648V78.6992H516.211V70.9648H524.023ZM516.211 70.9648V63.3086H524.023V70.9648H516.211ZM516.211 31.9805V24.1289H524.023V31.9805H516.211ZM508.359 8.62109V0.769531H516.211V8.62109H508.359ZM516.211 70.9648V78.6992H508.359V70.9648H516.211ZM508.359 70.9648V63.3086H516.211V70.9648H508.359ZM508.359 55.457V47.6445H516.211V55.457H508.359ZM508.359 47.6445V39.793H516.211V47.6445H508.359ZM508.359 31.9805V24.1289H516.211V31.9805H508.359ZM508.359 24.1289V16.2773H516.211V24.1289H508.359ZM500.508 8.62109V0.769531H508.359V8.62109H500.508ZM508.359 70.9648V78.6992H500.508V70.9648H508.359ZM500.508 70.9648V63.3086H508.359V70.9648H500.508ZM500.508 55.457V47.6445H508.359V55.457H500.508ZM500.508 47.6445V39.793H508.359V47.6445H500.508ZM500.508 31.9805V24.1289H508.359V31.9805H500.508ZM500.508 24.1289V16.2773H508.359V24.1289H500.508ZM492.852 8.62109V0.769531H500.508V8.62109H492.852ZM500.508 70.9648V78.6992H492.852V70.9648H500.508ZM492.852 70.9648V63.3086H500.508V70.9648H492.852ZM492.852 55.457V47.6445H500.508V55.457H492.852ZM492.852 47.6445V39.793H500.508V47.6445H492.852ZM492.852 31.9805V24.1289H500.508V31.9805H492.852ZM492.852 24.1289V16.2773H500.508V24.1289H492.852ZM485 8.62109V0.769531H492.852V8.62109H485ZM492.852 70.9648V78.6992H485V70.9648H492.852ZM485 70.9648V63.3086H492.852V70.9648H485ZM485 47.6445V39.793H492.852V47.6445H485ZM477.188 8.62109V0.769531H485V8.62109H477.188ZM477.188 70.9648V63.3086H485V70.9648H477.188ZM477.188 63.3086V55.457H485V63.3086H477.188ZM477.188 47.6445V39.793H485V47.6445H477.188ZM477.188 39.793V31.9805H485V39.793H477.188ZM477.188 16.2773V8.62109H485V16.2773H477.188ZM469.336 63.3086V55.457H477.188V63.3086H469.336ZM469.336 55.457V47.6445H477.188V55.457H469.336ZM469.336 47.6445V39.793H477.188V47.6445H469.336ZM469.336 39.793V31.9805H477.188V39.793H469.336ZM469.336 31.9805V24.1289H477.188V31.9805H469.336ZM469.336 24.1289V16.2773H477.188V24.1289H469.336ZM469.336 16.2773V8.62109H477.188V16.2773H469.336Z" fill="#FFF2AB"/>
</svg>
