<svg width="330" height="74" viewBox="0 0 330 74" fill="none" xmlns="http://www.w3.org/2000/svg">
<path d="M73.1689 66.251V73.502H65.9546V66.251H73.1689ZM65.9546 66.251V59.0732H73.1689V66.251H65.9546ZM65.9546 59.0732V51.7124H73.1689V59.0732H65.9546ZM65.9546 51.7124V44.3882H73.1689V51.7124H65.9546ZM65.9546 44.3882V37.0273H73.1689V44.3882H65.9546ZM65.9546 37.0273V29.7031H73.1689V37.0273H65.9546ZM65.9546 29.7031V22.3423H73.1689V29.7031H65.9546ZM65.9546 22.3423V14.9814H73.1689V22.3423H65.9546ZM65.9546 66.251V73.502H58.6304V66.251H65.9546ZM58.6304 66.251V59.0732H65.9546V66.251H58.6304ZM58.6304 59.0732V51.7124H65.9546V59.0732H58.6304ZM58.6304 51.7124V44.3882H65.9546V51.7124H58.6304ZM58.6304 44.3882V37.0273H65.9546V44.3882H58.6304ZM58.6304 37.0273V29.7031H65.9546V37.0273H58.6304ZM58.6304 29.7031V22.3423H65.9546V29.7031H58.6304ZM58.6304 22.3423V14.9814H65.9546V22.3423H58.6304ZM58.6304 14.9814V7.80371H65.9546V14.9814H58.6304ZM51.2695 7.80371V0.442871H58.6304V7.80371H51.2695ZM58.6304 66.251V73.502H51.2695V66.251H58.6304ZM51.2695 66.251V59.0732H58.6304V66.251H51.2695ZM51.2695 14.9814V7.80371H58.6304V14.9814H51.2695ZM43.9453 7.80371V0.442871H51.2695V7.80371H43.9453ZM51.2695 66.251V73.502H43.9453V66.251H51.2695ZM43.9453 66.251V59.0732H51.2695V66.251H43.9453ZM36.5845 7.80371V0.442871H43.9453V7.80371H36.5845ZM36.5845 66.251V59.0732H43.9453V66.251H36.5845ZM36.5845 59.0732V51.7124H43.9453V59.0732H36.5845ZM36.5845 51.7124V44.3882H43.9453V51.7124H36.5845ZM36.5845 37.0273V29.7031H43.9453V37.0273H36.5845ZM36.5845 29.7031V22.3423H43.9453V29.7031H36.5845ZM36.5845 22.3423V14.9814H43.9453V22.3423H36.5845ZM29.2236 7.80371V0.442871H36.5845V7.80371H29.2236ZM36.5845 66.251V73.502H29.2236V66.251H36.5845ZM29.2236 66.251V59.0732H36.5845V66.251H29.2236ZM29.2236 59.0732V51.7124H36.5845V59.0732H29.2236ZM29.2236 51.7124V44.3882H36.5845V51.7124H29.2236ZM29.2236 37.0273V29.7031H36.5845V37.0273H29.2236ZM29.2236 29.7031V22.3423H36.5845V29.7031H29.2236ZM29.2236 22.3423V14.9814H36.5845V22.3423H29.2236ZM22.0459 7.80371V0.442871H29.2236V7.80371H22.0459ZM29.2236 66.251V73.502H22.0459V66.251H29.2236ZM22.0459 66.251V59.0732H29.2236V66.251H22.0459ZM22.0459 59.0732V51.7124H29.2236V59.0732H22.0459ZM22.0459 51.7124V44.3882H29.2236V51.7124H22.0459ZM22.0459 37.0273V29.7031H29.2236V37.0273H22.0459ZM22.0459 29.7031V22.3423H29.2236V29.7031H22.0459ZM22.0459 22.3423V14.9814H29.2236V22.3423H22.0459ZM14.6851 7.80371V0.442871H22.0459V7.80371H14.6851ZM22.0459 66.251V73.502H14.6851V66.251H22.0459ZM14.6851 66.251V59.0732H22.0459V66.251H14.6851ZM7.36084 7.80371V0.442871H14.6851V7.80371H7.36084ZM14.6851 66.251V73.502H7.36084V66.251H14.6851ZM7.36084 66.251V59.0732H14.6851V66.251H7.36084ZM7.36084 14.9814V7.80371H14.6851V14.9814H7.36084ZM0 66.251V59.0732H7.36084V66.251H0ZM0 59.0732V51.7124H7.36084V59.0732H0ZM0 51.7124V44.3882H7.36084V51.7124H0ZM0 44.3882V37.0273H7.36084V44.3882H0ZM0 37.0273V29.7031H7.36084V37.0273H0ZM0 29.7031V22.3423H7.36084V29.7031H0ZM0 22.3423V14.9814H7.36084V22.3423H0ZM0 14.9814V7.80371H7.36084V14.9814H0ZM131.946 66.251V59.0732H139.16V66.251H131.946ZM131.946 59.0732V51.7124H139.16V59.0732H131.946ZM131.946 51.7124V44.3882H139.16V51.7124H131.946ZM131.946 44.3882V37.0273H139.16V44.3882H131.946ZM131.946 37.0273V29.7031H139.16V37.0273H131.946ZM131.946 29.7031V22.3423H139.16V29.7031H131.946ZM131.946 22.3423V14.9814H139.16V22.3423H131.946ZM131.946 66.251V73.502H124.622V66.251H131.946ZM124.622 66.251V59.0732H131.946V66.251H124.622ZM124.622 59.0732V51.7124H131.946V59.0732H124.622ZM124.622 51.7124V44.3882H131.946V51.7124H124.622ZM124.622 44.3882V37.0273H131.946V44.3882H124.622ZM124.622 37.0273V29.7031H131.946V37.0273H124.622ZM124.622 29.7031V22.3423H131.946V29.7031H124.622ZM124.622 22.3423V14.9814H131.946V22.3423H124.622ZM124.622 14.9814V7.80371H131.946V14.9814H124.622ZM117.261 7.80371V0.442871H124.622V7.80371H117.261ZM124.622 66.251V73.502H117.261V66.251H124.622ZM117.261 66.251V59.0732H124.622V66.251H117.261ZM117.261 59.0732V51.7124H124.622V59.0732H117.261ZM117.261 37.0273V29.7031H124.622V37.0273H117.261ZM117.261 14.9814V7.80371H124.622V14.9814H117.261ZM109.937 7.80371V0.442871H117.261V7.80371H109.937ZM117.261 66.251V73.502H109.937V66.251H117.261ZM109.937 66.251V59.0732H117.261V66.251H109.937ZM102.576 7.80371V0.442871H109.937V7.80371H102.576ZM109.937 66.251V73.502H102.576V66.251H109.937ZM102.576 66.251V59.0732H109.937V66.251H102.576ZM102.576 51.7124V44.3882H109.937V51.7124H102.576ZM102.576 44.3882V37.0273H109.937V44.3882H102.576ZM102.576 29.7031V22.3423H109.937V29.7031H102.576ZM102.576 22.3423V14.9814H109.937V22.3423H102.576ZM95.2148 7.80371V0.442871H102.576V7.80371H95.2148ZM102.576 66.251V73.502H95.2148V66.251H102.576ZM95.2148 66.251V59.0732H102.576V66.251H95.2148ZM95.2148 51.7124V44.3882H102.576V51.7124H95.2148ZM95.2148 44.3882V37.0273H102.576V44.3882H95.2148ZM95.2148 29.7031V22.3423H102.576V29.7031H95.2148ZM95.2148 22.3423V14.9814H102.576V22.3423H95.2148ZM88.0371 7.80371V0.442871H95.2148V7.80371H88.0371ZM95.2148 66.251V73.502H88.0371V66.251H95.2148ZM88.0371 66.251V59.0732H95.2148V66.251H88.0371ZM88.0371 51.7124V44.3882H95.2148V51.7124H88.0371ZM88.0371 44.3882V37.0273H95.2148V44.3882H88.0371ZM88.0371 29.7031V22.3423H95.2148V29.7031H88.0371ZM88.0371 22.3423V14.9814H95.2148V22.3423H88.0371ZM80.6763 7.80371V0.442871H88.0371V7.80371H80.6763ZM88.0371 66.251V73.502H80.6763V66.251H88.0371ZM80.6763 66.251V59.0732H88.0371V66.251H80.6763ZM73.3521 7.80371V0.442871H80.6763V7.80371H73.3521ZM80.6763 66.251V73.502H73.3521V66.251H80.6763ZM73.3521 66.251V59.0732H80.6763V66.251H73.3521ZM65.9912 7.80371V0.442871H73.3521V7.80371H65.9912ZM65.9912 66.251V59.0732H73.3521V66.251H65.9912ZM65.9912 59.0732V51.7124H73.3521V59.0732H65.9912ZM65.9912 51.7124V44.3882H73.3521V51.7124H65.9912ZM65.9912 44.3882V37.0273H73.3521V44.3882H65.9912ZM65.9912 37.0273V29.7031H73.3521V37.0273H65.9912ZM65.9912 29.7031V22.3423H73.3521V29.7031H65.9912ZM65.9912 22.3423V14.9814H73.3521V22.3423H65.9912ZM65.9912 14.9814V7.80371H73.3521V14.9814H65.9912ZM197.937 66.251V59.0732H205.151V66.251H197.937ZM197.937 59.0732V51.7124H205.151V59.0732H197.937ZM197.937 51.7124V44.3882H205.151V51.7124H197.937ZM197.937 44.3882V37.0273H205.151V44.3882H197.937ZM197.937 37.0273V29.7031H205.151V37.0273H197.937ZM197.937 29.7031V22.3423H205.151V29.7031H197.937ZM197.937 22.3423V14.9814H205.151V22.3423H197.937ZM197.937 66.251V73.502H190.613V66.251H197.937ZM190.613 66.251V59.0732H197.937V66.251H190.613ZM190.613 59.0732V51.7124H197.937V59.0732H190.613ZM190.613 51.7124V44.3882H197.937V51.7124H190.613ZM190.613 44.3882V37.0273H197.937V44.3882H190.613ZM190.613 37.0273V29.7031H197.937V37.0273H190.613ZM190.613 29.7031V22.3423H197.937V29.7031H190.613ZM190.613 22.3423V14.9814H197.937V22.3423H190.613ZM190.613 14.9814V7.80371H197.937V14.9814H190.613ZM183.252 7.80371V0.442871H190.613V7.80371H183.252ZM190.613 66.251V73.502H183.252V66.251H190.613ZM183.252 66.251V59.0732H190.613V66.251H183.252ZM183.252 59.0732V51.7124H190.613V59.0732H183.252ZM183.252 14.9814V7.80371H190.613V14.9814H183.252ZM175.928 7.80371V0.442871H183.252V7.80371H175.928ZM183.252 66.251V73.502H175.928V66.251H183.252ZM175.928 66.251V59.0732H183.252V66.251H175.928ZM168.567 7.80371V0.442871H175.928V7.80371H168.567ZM175.928 66.251V73.502H168.567V66.251H175.928ZM168.567 66.251V59.0732H175.928V66.251H168.567ZM168.567 51.7124V44.3882H175.928V51.7124H168.567ZM168.567 44.3882V37.0273H175.928V44.3882H168.567ZM168.567 37.0273V29.7031H175.928V37.0273H168.567ZM168.567 29.7031V22.3423H175.928V29.7031H168.567ZM168.567 22.3423V14.9814H175.928V22.3423H168.567ZM161.206 7.80371V0.442871H168.567V7.80371H161.206ZM168.567 66.251V73.502H161.206V66.251H168.567ZM161.206 66.251V59.0732H168.567V66.251H161.206ZM161.206 51.7124V44.3882H168.567V51.7124H161.206ZM161.206 44.3882V37.0273H168.567V44.3882H161.206ZM161.206 37.0273V29.7031H168.567V37.0273H161.206ZM161.206 29.7031V22.3423H168.567V29.7031H161.206ZM161.206 22.3423V14.9814H168.567V22.3423H161.206ZM154.028 7.80371V0.442871H161.206V7.80371H154.028ZM161.206 66.251V73.502H154.028V66.251H161.206ZM154.028 66.251V59.0732H161.206V66.251H154.028ZM154.028 51.7124V44.3882H161.206V51.7124H154.028ZM154.028 44.3882V37.0273H161.206V44.3882H154.028ZM154.028 37.0273V29.7031H161.206V37.0273H154.028ZM154.028 29.7031V22.3423H161.206V29.7031H154.028ZM154.028 22.3423V14.9814H161.206V22.3423H154.028ZM146.667 7.80371V0.442871H154.028V7.80371H146.667ZM154.028 66.251V73.502H146.667V66.251H154.028ZM146.667 66.251V59.0732H154.028V66.251H146.667ZM139.343 7.80371V0.442871H146.667V7.80371H139.343ZM139.343 66.251V59.0732H146.667V66.251H139.343ZM139.343 59.0732V51.7124H146.667V59.0732H139.343ZM139.343 14.9814V7.80371H146.667V14.9814H139.343ZM131.982 59.0732V51.7124H139.343V59.0732H131.982ZM131.982 51.7124V44.3882H139.343V51.7124H131.982ZM131.982 44.3882V37.0273H139.343V44.3882H131.982ZM131.982 37.0273V29.7031H139.343V37.0273H131.982ZM131.982 29.7031V22.3423H139.343V29.7031H131.982ZM131.982 22.3423V14.9814H139.343V22.3423H131.982ZM131.982 14.9814V7.80371H139.343V14.9814H131.982ZM263.928 66.251V59.0732H271.143V66.251H263.928ZM263.928 59.0732V51.7124H271.143V59.0732H263.928ZM263.928 51.7124V44.3882H271.143V51.7124H263.928ZM263.928 44.3882V37.0273H271.143V44.3882H263.928ZM263.928 37.0273V29.7031H271.143V37.0273H263.928ZM263.928 29.7031V22.3423H271.143V29.7031H263.928ZM263.928 22.3423V14.9814H271.143V22.3423H263.928ZM263.928 14.9814V7.80371H271.143V14.9814H263.928ZM256.604 7.80371V0.442871H263.928V7.80371H256.604ZM263.928 66.251V73.502H256.604V66.251H263.928ZM256.604 66.251V59.0732H263.928V66.251H256.604ZM256.604 59.0732V51.7124H263.928V59.0732H256.604ZM256.604 51.7124V44.3882H263.928V51.7124H256.604ZM256.604 44.3882V37.0273H263.928V44.3882H256.604ZM256.604 37.0273V29.7031H263.928V37.0273H256.604ZM256.604 29.7031V22.3423H263.928V29.7031H256.604ZM256.604 22.3423V14.9814H263.928V22.3423H256.604ZM256.604 14.9814V7.80371H263.928V14.9814H256.604ZM249.243 7.80371V0.442871H256.604V7.80371H249.243ZM256.604 66.251V73.502H249.243V66.251H256.604ZM249.243 66.251V59.0732H256.604V66.251H249.243ZM249.243 59.0732V51.7124H256.604V59.0732H249.243ZM241.919 7.80371V0.442871H249.243V7.80371H241.919ZM249.243 66.251V73.502H241.919V66.251H249.243ZM241.919 66.251V59.0732H249.243V66.251H241.919ZM234.558 7.80371V0.442871H241.919V7.80371H234.558ZM241.919 66.251V73.502H234.558V66.251H241.919ZM234.558 66.251V59.0732H241.919V66.251H234.558ZM234.558 51.7124V44.3882H241.919V51.7124H234.558ZM234.558 44.3882V37.0273H241.919V44.3882H234.558ZM234.558 37.0273V29.7031H241.919V37.0273H234.558ZM234.558 29.7031V22.3423H241.919V29.7031H234.558ZM234.558 22.3423V14.9814H241.919V22.3423H234.558ZM234.558 14.9814V7.80371H241.919V14.9814H234.558ZM234.558 66.251V73.502H227.197V66.251H234.558ZM227.197 66.251V59.0732H234.558V66.251H227.197ZM227.197 51.7124V44.3882H234.558V51.7124H227.197ZM227.197 44.3882V37.0273H234.558V44.3882H227.197ZM227.197 37.0273V29.7031H234.558V37.0273H227.197ZM227.197 29.7031V22.3423H234.558V29.7031H227.197ZM227.197 22.3423V14.9814H234.558V22.3423H227.197ZM227.197 14.9814V7.80371H234.558V14.9814H227.197ZM220.02 7.80371V0.442871H227.197V7.80371H220.02ZM227.197 66.251V73.502H220.02V66.251H227.197ZM220.02 66.251V59.0732H227.197V66.251H220.02ZM220.02 51.7124V44.3882H227.197V51.7124H220.02ZM220.02 44.3882V37.0273H227.197V44.3882H220.02ZM220.02 37.0273V29.7031H227.197V37.0273H220.02ZM220.02 29.7031V22.3423H227.197V29.7031H220.02ZM220.02 22.3423V14.9814H227.197V22.3423H220.02ZM220.02 14.9814V7.80371H227.197V14.9814H220.02ZM212.659 7.80371V0.442871H220.02V7.80371H212.659ZM220.02 66.251V73.502H212.659V66.251H220.02ZM212.659 66.251V59.0732H220.02V66.251H212.659ZM205.334 7.80371V0.442871H212.659V7.80371H205.334ZM205.334 66.251V59.0732H212.659V66.251H205.334ZM205.334 59.0732V51.7124H212.659V59.0732H205.334ZM197.974 7.80371V0.442871H205.334V7.80371H197.974ZM197.974 59.0732V51.7124H205.334V59.0732H197.974ZM197.974 51.7124V44.3882H205.334V51.7124H197.974ZM197.974 44.3882V37.0273H205.334V44.3882H197.974ZM197.974 37.0273V29.7031H205.334V37.0273H197.974ZM197.974 29.7031V22.3423H205.334V29.7031H197.974ZM197.974 22.3423V14.9814H205.334V22.3423H197.974ZM197.974 14.9814V7.80371H205.334V14.9814H197.974ZM322.595 29.7031V22.3423H329.919V29.7031H322.595ZM322.595 22.3423V14.9814H329.919V22.3423H322.595ZM322.595 14.9814V7.80371H329.919V14.9814H322.595ZM315.234 7.80371V0.442871H322.595V7.80371H315.234ZM315.234 29.7031V22.3423H322.595V29.7031H315.234ZM315.234 22.3423V14.9814H322.595V22.3423H315.234ZM315.234 14.9814V7.80371H322.595V14.9814H315.234ZM307.91 7.80371V0.442871H315.234V7.80371H307.91ZM315.234 66.251V73.502H307.91V66.251H315.234ZM307.91 66.251V59.0732H315.234V66.251H307.91ZM307.91 59.0732V51.7124H315.234V59.0732H307.91ZM307.91 51.7124V44.3882H315.234V51.7124H307.91ZM307.91 44.3882V37.0273H315.234V44.3882H307.91ZM307.91 37.0273V29.7031H315.234V37.0273H307.91ZM307.91 29.7031V22.3423H315.234V29.7031H307.91ZM307.91 22.3423V14.9814H315.234V22.3423H307.91ZM300.549 7.80371V0.442871H307.91V7.80371H300.549ZM307.91 66.251V73.502H300.549V66.251H307.91ZM300.549 66.251V59.0732H307.91V66.251H300.549ZM300.549 59.0732V51.7124H307.91V59.0732H300.549ZM300.549 51.7124V44.3882H307.91V51.7124H300.549ZM300.549 44.3882V37.0273H307.91V44.3882H300.549ZM300.549 37.0273V29.7031H307.91V37.0273H300.549ZM300.549 29.7031V22.3423H307.91V29.7031H300.549ZM300.549 22.3423V14.9814H307.91V22.3423H300.549ZM293.188 7.80371V0.442871H300.549V7.80371H293.188ZM300.549 66.251V73.502H293.188V66.251H300.549ZM293.188 66.251V59.0732H300.549V66.251H293.188ZM286.011 7.80371V0.442871H293.188V7.80371H286.011ZM293.188 66.251V73.502H286.011V66.251H293.188ZM286.011 66.251V59.0732H293.188V66.251H286.011ZM278.65 7.80371V0.442871H286.011V7.80371H278.65ZM278.65 66.251V59.0732H286.011V66.251H278.65ZM278.65 59.0732V51.7124H286.011V59.0732H278.65ZM278.65 51.7124V44.3882H286.011V51.7124H278.65ZM278.65 44.3882V37.0273H286.011V44.3882H278.65ZM278.65 37.0273V29.7031H286.011V37.0273H278.65ZM278.65 29.7031V22.3423H286.011V29.7031H278.65ZM278.65 22.3423V14.9814H286.011V22.3423H278.65ZM271.326 7.80371V0.442871H278.65V7.80371H271.326ZM271.326 22.3423V14.9814H278.65V22.3423H271.326ZM263.965 7.80371V0.442871H271.326V7.80371H263.965ZM263.965 22.3423V14.9814H271.326V22.3423H263.965ZM263.965 14.9814V7.80371H271.326V14.9814H263.965Z" fill="#FFD3C9"/>
</svg>
