<svg width="1440" height="428" viewBox="0 0 1440 428" fill="none" xmlns="http://www.w3.org/2000/svg">
<g filter="url(#filter0_d_1526_16)">
<rect x="213.5" y="279" width="36" height="36" rx="18" fill="#EA74A1"/>
</g>
<rect x="224.5" y="277" width="14" height="40" fill="#31398C"/>
<g filter="url(#filter1_d_1526_16)">
<rect x="212.5" y="215" width="36" height="36" rx="18" fill="#FAE268"/>
</g>
<rect x="224.5" y="213" width="14" height="40" fill="#31398C"/>
<rect x="238.5" width="939" height="428" fill="#6D79FF"/>
<mask id="mask0_1526_16" style="mask-type:alpha" maskUnits="userSpaceOnUse" x="268" y="30" width="56" height="55">
<rect x="268.5" y="30" width="55" height="55" rx="27.5" fill="#5562E9"/>
</mask>
<g mask="url(#mask0_1526_16)">
<rect x="268.5" y="30" width="55" height="55" rx="27.5" fill="#5562E9"/>
<rect x="266.46" y="50.9503" width="17" height="59" transform="rotate(-60.9002 266.46 50.9503)" fill="#31398C"/>
</g>
<mask id="mask1_1526_16" style="mask-type:alpha" maskUnits="userSpaceOnUse" x="1092" y="30" width="56" height="55">
<rect x="1092.5" y="30" width="55" height="55" rx="27.5" fill="#5562E9"/>
</mask>
<g mask="url(#mask1_1526_16)">
<rect x="1092.5" y="30" width="55" height="55" rx="27.5" fill="#5562E9"/>
<rect x="1119.62" y="88.5609" width="17" height="59" transform="rotate(-162.517 1119.62 88.5609)" fill="#31398C"/>
</g>
<mask id="mask2_1526_16" style="mask-type:alpha" maskUnits="userSpaceOnUse" x="1092" y="343" width="56" height="55">
<rect x="1092.5" y="343" width="55" height="55" rx="27.5" fill="#5562E9"/>
</mask>
<g mask="url(#mask2_1526_16)">
<rect x="1092.5" y="343" width="55" height="55" rx="27.5" fill="#5562E9"/>
<rect x="1146.74" y="386.596" width="17" height="59" transform="rotate(136.886 1146.74 386.596)" fill="#31398C"/>
</g>
<mask id="mask3_1526_16" style="mask-type:alpha" maskUnits="userSpaceOnUse" x="268" y="343" width="56" height="55">
<rect x="268.5" y="343" width="55" height="55" rx="27.5" fill="#5562E9"/>
</mask>
<g mask="url(#mask3_1526_16)">
<rect x="268.5" y="343" width="55" height="55" rx="27.5" fill="#5562E9"/>
<rect x="311.247" y="344.015" width="17" height="59" transform="rotate(45.0571 311.247 344.015)" fill="#31398C"/>
</g>
<rect x="-243.5" y="82" width="440.497" height="60" fill="#5562E9"/>
<path d="M152.664 82H180.962L209.259 142H180.962L152.664 82Z" fill="#6D79FF"/>
<path d="M96.0693 82H124.367L152.664 142H124.367L96.0693 82Z" fill="#6D79FF"/>
<path d="M39.4746 82H67.7721L96.0695 142H67.7721L39.4746 82Z" fill="#6D79FF"/>
<path d="M-17.1201 82H11.1773L39.4748 142H11.1773L-17.1201 82Z" fill="#6D79FF"/>
<rect x="196.997" y="57" width="41.5029" height="110" fill="#31398C"/>
<rect x="219.5" y="362" width="19" height="37" fill="#31398C"/>
<path d="M219.5 381H93.4567V250H-244" stroke="#5562E9" stroke-width="13" stroke-linejoin="round"/>
<rect x="1222.5" y="271" width="460" height="97" fill="#6D79FF"/>
<path d="M1444.5 271H1414.5L1364.5 368H1394.5L1444.5 271Z" fill="#5562E9"/>
<path d="M1364.5 271H1334.5L1284.5 368H1314.5L1364.5 271Z" fill="#5562E9"/>
<path d="M1284.5 271H1254.5L1204.5 368H1234.5L1284.5 271Z" fill="#5562E9"/>
<rect x="1177.5" y="240" width="45" height="158" fill="#31398C"/>
<rect x="1177.5" y="77" width="14" height="83" fill="#31398C"/>
<rect x="1191.5" y="91" width="491" height="18" fill="#9773FF"/>
<rect x="1191.5" y="109" width="491" height="18" fill="#F9A084"/>
<rect x="1191.5" y="127" width="491" height="18" fill="#00B7FF"/>
<rect x="419.5" y="56" width="58" height="316" rx="11" fill="#31398C" stroke="#5562E9" stroke-width="10"/>
<rect x="564.5" y="56" width="58" height="316" rx="11" fill="#31398C" stroke="#5562E9" stroke-width="10"/>
<mask id="mask4_1526_16" style="mask-type:alpha" maskUnits="userSpaceOnUse" x="375" y="28" width="243" height="372">
<rect x="375" y="28.1533" width="242.439" height="371.098" fill="#D9D9D9"/>
</mask>
<g mask="url(#mask4_1526_16)">
<path d="M375 23L655 94.7667V330.233L375 402V23Z" fill="url(#paint0_linear_1526_16)"/>
<path d="M581.802 307.598C633.861 343.968 705.587 331.278 742.005 279.254C778.424 227.23 765.744 155.573 713.685 119.203C661.626 82.8329 589.9 95.5228 553.482 147.547C517.063 199.571 529.743 271.228 581.802 307.598Z" fill="url(#paint1_linear_1526_16)" stroke="#F7795D" stroke-width="16"/>
<path d="M674.162 263.842L681.481 253.386L691.771 260.575L684.452 271.031L674.162 263.842ZM681.481 253.386L688.837 242.878L699.127 250.067L691.771 260.575L681.481 253.386ZM688.837 242.878L696.156 232.422L706.447 239.611L699.127 250.067L688.837 242.878ZM696.156 232.422L703.512 221.914L713.803 229.103L706.447 239.611L696.156 232.422ZM703.512 221.914L710.868 211.406L721.159 218.595L713.803 229.103L703.512 221.914ZM656.358 267.051L663.714 256.543L674.162 263.842L666.806 274.35L656.358 267.051ZM663.714 256.543L671.034 246.087L681.481 253.386L674.162 263.842L663.714 256.543ZM671.034 246.087L678.39 235.579L688.837 242.878L681.481 253.386L671.034 246.087ZM678.39 235.579L685.709 225.124L696.156 232.422L688.837 242.878L678.39 235.579ZM685.709 225.124L693.065 214.616L703.512 221.914L696.156 232.422L685.709 225.124ZM693.065 214.616L700.421 204.108L710.868 211.406L703.512 221.914L693.065 214.616ZM700.421 204.108L707.594 193.861L718.041 201.16L710.868 211.406L700.421 204.108ZM697.095 186.526L704.451 176.018L714.95 183.353L707.594 193.861L697.095 186.526ZM645.859 259.716L653.215 249.208L663.714 256.543L656.358 267.051L645.859 259.716ZM653.215 249.208L660.534 238.752L671.034 246.087L663.714 256.543L653.215 249.208ZM660.534 238.752L667.89 228.244L678.39 235.579L671.034 246.087L660.534 238.752ZM689.922 196.772L697.095 186.526L707.594 193.861L700.421 204.108L689.922 196.772ZM686.647 179.227L694.003 168.719L704.451 176.018L697.095 186.526L686.647 179.227ZM635.412 252.417L642.768 241.909L653.215 249.208L645.859 259.716L635.412 252.417ZM642.768 241.909L650.087 231.454L660.534 238.752L653.215 249.208L642.768 241.909ZM676.148 171.892L683.504 161.384L694.003 168.719L686.647 179.227L676.148 171.892ZM624.912 245.082L632.268 234.574L642.768 241.909L635.412 252.417L624.912 245.082ZM632.268 234.574L639.588 224.118L650.087 231.454L642.768 241.909L632.268 234.574ZM646.944 213.61L654.263 203.155L664.762 210.49L657.443 220.946L646.944 213.61ZM654.263 203.155L661.619 192.647L672.118 199.982L664.762 210.49L654.263 203.155ZM661.619 192.647L668.975 182.139L679.474 189.474L672.118 199.982L661.619 192.647ZM665.649 164.557L673.005 154.049L683.504 161.384L676.148 171.892L665.649 164.557ZM617.739 255.329L610.493 265.68L599.994 258.345L607.24 247.994L617.739 255.329ZM607.24 247.994L614.413 237.747L624.912 245.082L617.739 255.329L607.24 247.994ZM614.413 237.747L621.769 227.239L632.268 234.574L624.912 245.082L614.413 237.747ZM621.769 227.239L629.088 216.783L639.588 224.118L632.268 234.574L621.769 227.239ZM636.444 206.275L643.764 195.82L654.263 203.155L646.944 213.61L636.444 206.275ZM643.764 195.82L651.12 185.311L661.619 192.647L654.263 203.155L643.764 195.82ZM651.12 185.311L658.476 174.803L668.975 182.139L661.619 192.647L651.12 185.311ZM655.41 157.404L662.766 146.896L673.005 154.049L665.649 164.557L655.41 157.404ZM607.24 247.994L599.994 258.345L589.755 251.192L597.002 240.841L607.24 247.994ZM597.002 240.841L604.175 230.594L614.413 237.747L607.24 247.994L597.002 240.841ZM604.175 230.594L611.531 220.086L621.769 227.239L614.413 237.747L604.175 230.594ZM611.531 220.086L618.85 209.631L629.088 216.783L621.769 227.239L611.531 220.086ZM626.206 199.123L633.525 188.667L643.764 195.82L636.444 206.275L626.206 199.123ZM633.525 188.667L640.881 178.159L651.12 185.311L643.764 195.82L633.525 188.667ZM640.881 178.159L648.237 167.651L658.476 174.803L651.12 185.311L640.881 178.159ZM644.911 150.069L652.267 139.561L662.766 146.896L655.41 157.404L644.911 150.069ZM597.002 240.841L589.755 251.192L579.256 243.857L586.502 233.506L597.002 240.841ZM586.502 233.506L593.675 223.259L604.175 230.594L597.002 240.841L586.502 233.506ZM634.464 142.77L641.82 132.262L652.267 139.561L644.911 150.069L634.464 142.77ZM586.502 233.506L579.256 243.857L568.809 236.559L576.055 226.207L586.502 233.506ZM576.055 226.207L583.228 215.961L593.675 223.259L586.502 233.506L576.055 226.207ZM623.964 135.435L631.32 124.927L641.82 132.262L634.464 142.77L623.964 135.435ZM565.556 218.872L572.729 208.626L583.228 215.961L576.055 226.207L565.556 218.872ZM572.729 208.626L580.085 198.117L590.584 205.453L583.228 215.961L572.729 208.626ZM580.085 198.117L587.404 187.662L597.903 194.997L590.584 205.453L580.085 198.117ZM587.404 187.662L594.76 177.154L605.259 184.489L597.903 194.997L587.404 187.662ZM594.76 177.154L602.079 166.698L612.579 174.033L605.259 184.489L594.76 177.154ZM602.079 166.698L609.435 156.19L619.935 163.525L612.579 174.033L602.079 166.698ZM609.435 156.19L616.791 145.682L627.291 153.017L619.935 163.525L609.435 156.19ZM616.791 145.682L623.964 135.435L634.464 142.77L627.291 153.017L616.791 145.682Z" fill="#F6795D"/>
</g>
<defs>
<filter id="filter0_d_1526_16" x="207.5" y="273" width="48" height="48" filterUnits="userSpaceOnUse" color-interpolation-filters="sRGB">
<feFlood flood-opacity="0" result="BackgroundImageFix"/>
<feColorMatrix in="SourceAlpha" type="matrix" values="0 0 0 0 0 0 0 0 0 0 0 0 0 0 0 0 0 0 127 0" result="hardAlpha"/>
<feOffset/>
<feGaussianBlur stdDeviation="3"/>
<feComposite in2="hardAlpha" operator="out"/>
<feColorMatrix type="matrix" values="0 0 0 0 0.917647 0 0 0 0 0.454902 0 0 0 0 0.631373 0 0 0 1 0"/>
<feBlend mode="normal" in2="BackgroundImageFix" result="effect1_dropShadow_1526_16"/>
<feBlend mode="normal" in="SourceGraphic" in2="effect1_dropShadow_1526_16" result="shape"/>
</filter>
<filter id="filter1_d_1526_16" x="206.5" y="209" width="48" height="48" filterUnits="userSpaceOnUse" color-interpolation-filters="sRGB">
<feFlood flood-opacity="0" result="BackgroundImageFix"/>
<feColorMatrix in="SourceAlpha" type="matrix" values="0 0 0 0 0 0 0 0 0 0 0 0 0 0 0 0 0 0 127 0" result="hardAlpha"/>
<feOffset/>
<feGaussianBlur stdDeviation="3"/>
<feComposite in2="hardAlpha" operator="out"/>
<feColorMatrix type="matrix" values="0 0 0 0 0.980392 0 0 0 0 0.886275 0 0 0 0 0.407843 0 0 0 1 0"/>
<feBlend mode="normal" in2="BackgroundImageFix" result="effect1_dropShadow_1526_16"/>
<feBlend mode="normal" in="SourceGraphic" in2="effect1_dropShadow_1526_16" result="shape"/>
</filter>
<linearGradient id="paint0_linear_1526_16" x1="655" y1="217.801" x2="375" y2="217.801" gradientUnits="userSpaceOnUse">
<stop stop-color="#D9D9D9"/>
<stop offset="1" stop-color="#D9D9D9" stop-opacity="0"/>
</linearGradient>
<linearGradient id="paint1_linear_1526_16" x1="709.097" y1="125.756" x2="586.556" y2="301.16" gradientUnits="userSpaceOnUse">
<stop stop-color="#FAE268"/>
<stop offset="1" stop-color="#F9A084"/>
</linearGradient>
</defs>
</svg>
