<svg width="1440" height="428" viewBox="0 0 1440 428" fill="none" xmlns="http://www.w3.org/2000/svg">
<g filter="url(#filter0_d_1265_158)">
<rect x="213.5" y="279" width="36" height="36" rx="18" fill="#EA74A1"/>
</g>
<rect x="224.5" y="277" width="14" height="40" fill="#31398C"/>
<g filter="url(#filter1_d_1265_158)">
<rect x="212.5" y="215" width="36" height="36" rx="18" fill="#FAE268"/>
</g>
<rect x="224.5" y="213" width="14" height="40" fill="#31398C"/>
<rect x="238.5" width="939" height="428" fill="#6D79FF"/>
<mask id="mask0_1265_158" style="mask-type:alpha" maskUnits="userSpaceOnUse" x="268" y="30" width="56" height="55">
<rect x="268.5" y="30" width="55" height="55" rx="27.5" fill="#5562E9"/>
</mask>
<g mask="url(#mask0_1265_158)">
<rect x="268.5" y="30" width="55" height="55" rx="27.5" fill="#5562E9"/>
<rect x="266.46" y="50.9503" width="17" height="59" transform="rotate(-60.9002 266.46 50.9503)" fill="#31398C"/>
</g>
<mask id="mask1_1265_158" style="mask-type:alpha" maskUnits="userSpaceOnUse" x="1092" y="30" width="56" height="55">
<rect x="1092.5" y="30" width="55" height="55" rx="27.5" fill="#5562E9"/>
</mask>
<g mask="url(#mask1_1265_158)">
<rect x="1092.5" y="30" width="55" height="55" rx="27.5" fill="#5562E9"/>
<rect x="1119.62" y="88.5609" width="17" height="59" transform="rotate(-162.517 1119.62 88.5609)" fill="#31398C"/>
</g>
<mask id="mask2_1265_158" style="mask-type:alpha" maskUnits="userSpaceOnUse" x="1092" y="343" width="56" height="55">
<rect x="1092.5" y="343" width="55" height="55" rx="27.5" fill="#5562E9"/>
</mask>
<g mask="url(#mask2_1265_158)">
<rect x="1092.5" y="343" width="55" height="55" rx="27.5" fill="#5562E9"/>
<rect x="1146.74" y="386.596" width="17" height="59" transform="rotate(136.886 1146.74 386.596)" fill="#31398C"/>
</g>
<mask id="mask3_1265_158" style="mask-type:alpha" maskUnits="userSpaceOnUse" x="268" y="343" width="56" height="55">
<rect x="268.5" y="343" width="55" height="55" rx="27.5" fill="#5562E9"/>
</mask>
<g mask="url(#mask3_1265_158)">
<rect x="268.5" y="343" width="55" height="55" rx="27.5" fill="#5562E9"/>
<rect x="311.247" y="344.015" width="17" height="59" transform="rotate(45.0571 311.247 344.015)" fill="#31398C"/>
</g>
<rect x="-243.5" y="82" width="440.497" height="60" fill="#5562E9"/>
<path d="M152.664 82H180.962L209.259 142H180.962L152.664 82Z" fill="#6D79FF"/>
<path d="M96.0693 82H124.367L152.664 142H124.367L96.0693 82Z" fill="#6D79FF"/>
<path d="M39.4746 82H67.7721L96.0695 142H67.7721L39.4746 82Z" fill="#6D79FF"/>
<path d="M-17.1201 82H11.1773L39.4748 142H11.1773L-17.1201 82Z" fill="#6D79FF"/>
<rect x="196.997" y="57" width="41.5029" height="110" fill="#31398C"/>
<rect x="219.5" y="362" width="19" height="37" fill="#31398C"/>
<path d="M219.5 381H93.4567V250H-244" stroke="#5562E9" stroke-width="13" stroke-linejoin="round"/>
<rect x="1222.5" y="271" width="460" height="97" fill="#6D79FF"/>
<path d="M1444.5 271H1414.5L1364.5 368H1394.5L1444.5 271Z" fill="#5562E9"/>
<path d="M1364.5 271H1334.5L1284.5 368H1314.5L1364.5 271Z" fill="#5562E9"/>
<path d="M1284.5 271H1254.5L1204.5 368H1234.5L1284.5 271Z" fill="#5562E9"/>
<rect x="1177.5" y="240" width="45" height="158" fill="#31398C"/>
<rect x="1177.5" y="77" width="14" height="83" fill="#31398C"/>
<rect x="1191.5" y="91" width="491" height="18" fill="#9773FF"/>
<rect x="1191.5" y="109" width="491" height="18" fill="#F9A084"/>
<rect x="1191.5" y="127" width="491" height="18" fill="#00B7FF"/>
<rect x="419.5" y="56" width="58" height="316" rx="11" fill="#31398C" stroke="#5562E9" stroke-width="10"/>
<rect x="564.5" y="56" width="58" height="316" rx="11" fill="#31398C" stroke="#5562E9" stroke-width="10"/>
<mask id="mask4_1265_158" style="mask-type:alpha" maskUnits="userSpaceOnUse" x="376" y="28" width="241" height="369">
<rect x="376" y="28" width="240.956" height="368.466" fill="#D9D9D9"/>
</mask>
<g mask="url(#mask4_1265_158)">
<path d="M559.274 325.77C622.167 331.454 677.805 285.158 683.523 222.337C689.24 159.516 642.867 104.001 579.975 98.3177C517.082 92.634 461.444 138.93 455.727 201.751C450.009 264.572 496.382 320.087 559.274 325.77Z" fill="url(#paint0_linear_1265_158)" stroke="#F6795D" stroke-width="16"/>
<path d="M617.335 242.489L618.484 229.872L630.913 230.996L629.764 243.613L617.335 242.489ZM618.484 229.872L619.638 217.192L632.067 218.316L630.913 230.996L618.484 229.872ZM619.638 217.192L620.786 204.576L633.215 205.699L632.067 218.316L619.638 217.192ZM620.786 204.576L621.94 191.896L634.369 193.019L633.215 205.699L620.786 204.576ZM621.94 191.896L623.094 179.216L635.523 180.339L634.369 193.019L621.94 191.896ZM603.563 254.029L604.717 241.349L617.335 242.489L616.181 255.169L603.563 254.029ZM604.717 241.349L605.865 228.732L618.484 229.872L617.335 242.489L604.717 241.349ZM605.865 228.732L607.019 216.052L619.638 217.192L618.484 229.872L605.865 228.732ZM607.019 216.052L608.168 203.435L620.786 204.576L619.638 217.192L607.019 216.052ZM608.168 203.435L609.322 190.755L621.94 191.896L620.786 204.576L608.168 203.435ZM609.322 190.755L610.476 178.075L623.094 179.216L621.94 191.896L609.322 190.755ZM610.476 178.075L611.601 165.711L624.219 166.851L623.094 179.216L610.476 178.075ZM598.92 164.565L600.074 151.885L612.755 153.031L611.601 165.711L598.92 164.565ZM590.882 252.883L592.036 240.203L604.717 241.349L603.563 254.029L590.882 252.883ZM592.036 240.203L593.184 227.586L605.865 228.732L604.717 241.349L592.036 240.203ZM593.184 227.586L594.338 214.906L607.019 216.052L605.865 228.732L593.184 227.586ZM597.794 176.929L598.92 164.565L611.601 165.711L610.476 178.075L597.794 176.929ZM586.301 163.424L587.455 150.744L600.074 151.885L598.92 164.565L586.301 163.424ZM578.263 251.743L579.417 239.063L592.036 240.203L590.882 252.883L578.263 251.743ZM579.417 239.063L580.566 226.446L593.184 227.586L592.036 240.203L579.417 239.063ZM573.62 162.278L574.774 149.598L587.455 150.744L586.301 163.424L573.62 162.278ZM565.582 250.596L566.736 237.916L579.417 239.063L578.263 251.743L565.582 250.596ZM566.736 237.916L567.884 225.3L580.566 226.446L579.417 239.063L566.736 237.916ZM569.038 212.62L570.186 200.003L582.868 201.149L581.72 213.766L569.038 212.62ZM570.186 200.003L571.34 187.323L584.022 188.469L582.868 201.149L570.186 200.003ZM571.34 187.323L572.494 174.643L585.176 175.789L584.022 188.469L571.34 187.323ZM560.938 161.132L562.092 148.452L574.774 149.598L573.62 162.278L560.938 161.132ZM564.457 262.961L563.32 275.452L550.638 274.306L551.775 261.815L564.457 262.961ZM551.775 261.815L552.9 249.45L565.582 250.596L564.457 262.961L551.775 261.815ZM552.9 249.45L554.054 236.77L566.736 237.916L565.582 250.596L552.9 249.45ZM554.054 236.77L555.203 224.154L567.884 225.3L566.736 237.916L554.054 236.77ZM556.357 211.474L557.505 198.857L570.186 200.003L569.038 212.62L556.357 211.474ZM557.505 198.857L558.659 186.177L571.34 187.323L570.186 200.003L557.505 198.857ZM558.659 186.177L559.813 173.497L572.494 174.643L571.34 187.323L558.659 186.177ZM548.572 160.015L549.726 147.335L562.092 148.452L560.938 161.132L548.572 160.015ZM551.775 261.815L550.638 274.306L538.272 273.188L539.409 260.697L551.775 261.815ZM539.409 260.697L540.534 248.333L552.9 249.45L551.775 261.815L539.409 260.697ZM540.534 248.333L541.688 235.653L554.054 236.77L552.9 249.45L540.534 248.333ZM541.688 235.653L542.837 223.036L555.203 224.154L554.054 236.77L541.688 235.653ZM543.991 210.356L545.139 197.739L557.505 198.857L556.357 211.474L543.991 210.356ZM545.139 197.739L546.293 185.059L558.659 186.177L557.505 198.857L545.139 197.739ZM546.293 185.059L547.447 172.379L559.813 173.497L558.659 186.177L546.293 185.059ZM535.891 158.869L537.045 146.189L549.726 147.335L548.572 160.015L535.891 158.869ZM539.409 260.697L538.272 273.188L525.591 272.042L526.728 259.551L539.409 260.697ZM526.728 259.551L527.853 247.187L540.534 248.333L539.409 260.697L526.728 259.551ZM523.273 157.728L524.427 145.048L537.045 146.189L535.891 158.869L523.273 157.728ZM526.728 259.551L525.591 272.042L512.973 270.902L514.109 258.411L526.728 259.551ZM514.109 258.411L515.235 246.046L527.853 247.187L526.728 259.551L514.109 258.411ZM510.591 156.582L511.745 143.902L524.427 145.048L523.273 157.728L510.591 156.582ZM501.428 257.265L502.553 244.9L515.235 246.046L514.109 258.411L501.428 257.265ZM502.553 244.9L503.707 232.22L516.389 233.367L515.235 246.046L502.553 244.9ZM503.707 232.22L504.856 219.604L517.537 220.75L516.389 233.367L503.707 232.22ZM504.856 219.604L506.01 206.924L518.691 208.07L517.537 220.75L504.856 219.604ZM506.01 206.924L507.158 194.307L519.839 195.453L518.691 208.07L506.01 206.924ZM507.158 194.307L508.312 181.627L520.993 182.773L519.839 195.453L507.158 194.307ZM508.312 181.627L509.466 168.947L522.147 170.093L520.993 182.773L508.312 181.627ZM509.466 168.947L510.591 156.582L523.273 157.728L522.147 170.093L509.466 168.947Z" fill="#F6795D"/>
</g>
<defs>
<filter id="filter0_d_1265_158" x="207.5" y="273" width="48" height="48" filterUnits="userSpaceOnUse" color-interpolation-filters="sRGB">
<feFlood flood-opacity="0" result="BackgroundImageFix"/>
<feColorMatrix in="SourceAlpha" type="matrix" values="0 0 0 0 0 0 0 0 0 0 0 0 0 0 0 0 0 0 127 0" result="hardAlpha"/>
<feOffset/>
<feGaussianBlur stdDeviation="3"/>
<feComposite in2="hardAlpha" operator="out"/>
<feColorMatrix type="matrix" values="0 0 0 0 0.917647 0 0 0 0 0.454902 0 0 0 0 0.631373 0 0 0 1 0"/>
<feBlend mode="normal" in2="BackgroundImageFix" result="effect1_dropShadow_1265_158"/>
<feBlend mode="normal" in="SourceGraphic" in2="effect1_dropShadow_1265_158" result="shape"/>
</filter>
<filter id="filter1_d_1265_158" x="206.5" y="209" width="48" height="48" filterUnits="userSpaceOnUse" color-interpolation-filters="sRGB">
<feFlood flood-opacity="0" result="BackgroundImageFix"/>
<feColorMatrix in="SourceAlpha" type="matrix" values="0 0 0 0 0 0 0 0 0 0 0 0 0 0 0 0 0 0 127 0" result="hardAlpha"/>
<feOffset/>
<feGaussianBlur stdDeviation="3"/>
<feComposite in2="hardAlpha" operator="out"/>
<feColorMatrix type="matrix" values="0 0 0 0 0.980392 0 0 0 0 0.886275 0 0 0 0 0.407843 0 0 0 1 0"/>
<feBlend mode="normal" in2="BackgroundImageFix" result="effect1_dropShadow_1265_158"/>
<feBlend mode="normal" in="SourceGraphic" in2="effect1_dropShadow_1265_158" result="shape"/>
</filter>
<linearGradient id="paint0_linear_1265_158" x1="579.25" y1="106.285" x2="560.133" y2="317.815" gradientUnits="userSpaceOnUse">
<stop stop-color="#FAE268"/>
<stop offset="1" stop-color="#F9A084"/>
</linearGradient>
</defs>
</svg>
