<svg width="1210" height="453" viewBox="0 0 1210 453" fill="none" xmlns="http://www.w3.org/2000/svg">
<path d="M1172.52 159.98C1177.05 163.442 1180 168.495 1180 174.23C1180 179.966 1177.05 185.019 1172.52 188.481L1107.66 238.044C1103.06 241.555 1097.34 243.133 1091.95 243.226C1086.56 243.319 1080.79 241.937 1076.05 238.638C1071.23 235.287 1067.95 230.217 1067.76 224.322C1067.57 218.399 1070.54 213.127 1075.23 209.542L1096.01 193.668L983.692 193.668C977.848 193.668 972.233 191.953 967.884 188.783C963.542 185.618 960 180.571 960 174.23C960 167.89 963.542 162.843 967.884 159.678C972.233 156.508 977.848 154.793 983.692 154.793L1096.01 154.793L1075.23 138.919C1070.54 135.334 1067.57 130.062 1067.76 124.139C1067.95 118.244 1071.23 113.174 1076.05 109.823C1080.79 106.524 1086.56 105.142 1091.95 105.235C1097.34 105.328 1103.06 106.906 1107.66 110.417L1172.52 159.98Z" stroke="#5F3DC0" stroke-width="16" stroke-linecap="round" stroke-linejoin="round"/>
<path d="M1172.52 199.98C1177.05 203.442 1180 208.495 1180 214.23C1180 219.966 1177.05 225.019 1172.52 228.481L1107.66 278.044C1103.06 281.555 1097.34 283.133 1091.95 283.226C1086.56 283.319 1080.79 281.937 1076.05 278.638C1071.23 275.287 1067.95 270.217 1067.76 264.322C1067.57 258.399 1070.54 253.127 1075.23 249.542L1096.01 233.668L983.692 233.668C977.848 233.668 972.233 231.953 967.884 228.783C963.542 225.618 960 220.571 960 214.23C960 207.89 963.542 202.843 967.884 199.678C972.233 196.508 977.848 194.793 983.692 194.793L1096.01 194.793L1075.23 178.919C1070.54 175.334 1067.57 170.062 1067.76 164.139C1067.95 158.244 1071.23 153.174 1076.05 149.823C1080.79 146.524 1086.56 145.142 1091.95 145.235C1097.34 145.328 1103.06 146.906 1107.66 150.417L1172.52 199.98Z" stroke="#5F3DC0" stroke-opacity="0.8" stroke-width="16" stroke-linecap="round" stroke-linejoin="round"/>
<path d="M1172.52 239.98C1177.05 243.442 1180 248.495 1180 254.23C1180 259.966 1177.05 265.019 1172.52 268.481L1107.66 318.044C1103.06 321.555 1097.34 323.133 1091.95 323.226C1086.56 323.319 1080.79 321.937 1076.05 318.638C1071.23 315.287 1067.95 310.217 1067.76 304.322C1067.57 298.399 1070.54 293.127 1075.23 289.542L1096.01 273.668L983.692 273.668C977.848 273.668 972.233 271.953 967.884 268.783C963.542 265.618 960 260.571 960 254.23C960 247.89 963.542 242.843 967.884 239.678C972.233 236.508 977.848 234.793 983.692 234.793L1096.01 234.793L1075.23 218.919C1070.54 215.334 1067.57 210.062 1067.76 204.139C1067.95 198.244 1071.23 193.174 1076.05 189.823C1080.79 186.524 1086.56 185.142 1091.95 185.235C1097.34 185.328 1103.06 186.906 1107.66 190.417L1172.52 239.98Z" stroke="#5F3DC0" stroke-opacity="0.6" stroke-width="16" stroke-linecap="round" stroke-linejoin="round"/>
<path d="M1172.52 279.98C1177.05 283.442 1180 288.495 1180 294.23C1180 299.966 1177.05 305.019 1172.52 308.481L1107.66 358.044C1103.06 361.555 1097.34 363.133 1091.95 363.226C1086.56 363.319 1080.79 361.937 1076.05 358.638C1071.23 355.287 1067.95 350.217 1067.76 344.322C1067.57 338.399 1070.54 333.127 1075.23 329.542L1096.01 313.668L983.692 313.668C977.848 313.668 972.233 311.953 967.884 308.783C963.542 305.618 960 300.571 960 294.23C960 287.89 963.542 282.843 967.884 279.678C972.233 276.508 977.848 274.793 983.692 274.793L1096.01 274.793L1075.23 258.919C1070.54 255.334 1067.57 250.062 1067.76 244.139C1067.95 238.244 1071.23 233.174 1076.05 229.823C1080.79 226.524 1086.56 225.142 1091.95 225.235C1097.34 225.328 1103.06 226.906 1107.66 230.417L1172.52 279.98Z" stroke="#5F3DC0" stroke-opacity="0.4" stroke-width="16" stroke-linecap="round" stroke-linejoin="round"/>
<path d="M1172.52 319.98C1177.05 323.442 1180 328.495 1180 334.23C1180 339.966 1177.05 345.019 1172.52 348.481L1107.66 398.044C1103.06 401.555 1097.34 403.133 1091.95 403.226C1086.56 403.319 1080.79 401.937 1076.05 398.638C1071.23 395.287 1067.95 390.217 1067.76 384.322C1067.57 378.399 1070.54 373.127 1075.23 369.542L1096.01 353.668L983.692 353.668C977.848 353.668 972.233 351.953 967.884 348.783C963.542 345.618 960 340.571 960 334.23C960 327.89 963.542 322.843 967.884 319.678C972.233 316.508 977.848 314.793 983.692 314.793L1096.01 314.793L1075.23 298.919C1070.54 295.334 1067.57 290.062 1067.76 284.139C1067.95 278.244 1071.23 273.174 1076.05 269.823C1080.79 266.524 1086.56 265.142 1091.95 265.235C1097.34 265.328 1103.06 266.906 1107.66 270.417L1172.52 319.98Z" stroke="#5F3DC0" stroke-opacity="0.2" stroke-width="16" stroke-linecap="round" stroke-linejoin="round"/>
<path d="M1172.52 359.98C1177.05 363.442 1180 368.495 1180 374.23C1180 379.966 1177.05 385.019 1172.52 388.481L1107.66 438.044C1103.06 441.555 1097.34 443.133 1091.95 443.226C1086.56 443.319 1080.79 441.937 1076.05 438.638C1071.23 435.287 1067.95 430.217 1067.76 424.322C1067.57 418.399 1070.54 413.127 1075.23 409.542L1096.01 393.668L983.692 393.668C977.848 393.668 972.233 391.953 967.884 388.783C963.542 385.618 960 380.571 960 374.23C960 367.89 963.542 362.843 967.884 359.678C972.233 356.508 977.848 354.793 983.692 354.793L1096.01 354.793L1075.23 338.919C1070.54 335.334 1067.57 330.062 1067.76 324.139C1067.95 318.244 1071.23 313.174 1076.05 309.823C1080.79 306.524 1086.56 305.142 1091.95 305.235C1097.34 305.328 1103.06 306.906 1107.66 310.417L1172.52 359.98Z" stroke="#5F3DC0" stroke-opacity="0.1" stroke-width="16" stroke-linecap="round" stroke-linejoin="round"/>
<rect x="930" y="0.230469" width="280" height="170" fill="#C2AEFF"/>
<path d="M1172.52 99.4814C1177.05 96.0194 1180 90.9663 1180 85.2305C1180 79.4947 1177.05 74.4415 1172.52 70.9795L1107.66 21.4171C1103.06 17.9057 1097.34 16.3276 1091.95 16.2349C1086.56 16.1421 1080.79 17.5241 1076.05 20.8231C1071.23 24.1739 1067.95 29.2439 1067.76 35.1387C1067.57 41.0616 1070.54 46.334 1075.23 49.9189L1096.01 65.793L983.692 65.793C977.848 65.793 972.233 67.5083 967.884 70.6779C963.542 73.8425 960 78.8897 960 85.2305C960 91.5712 963.542 96.6184 967.884 99.783C972.233 102.953 977.848 104.668 983.692 104.668L1096.01 104.668L1075.23 120.542C1070.54 124.127 1067.57 129.399 1067.76 135.322C1067.95 141.217 1071.23 146.287 1076.05 149.638C1080.79 152.937 1086.56 154.319 1091.95 154.226C1097.34 154.133 1103.06 152.555 1107.66 149.044L1172.52 99.4814Z" stroke="#5F3DC0" stroke-width="16" stroke-linecap="round" stroke-linejoin="round"/>
<rect x="620" y="0.230469" width="280" height="170" fill="#5BD1FF"/>
<path d="M697.014 80.8555V78.5742H699.295V71.7305H697.014V69.4492H681.045V80.8555H697.014ZM674.201 108.23V62.6055H699.295V64.8867H701.576V67.168H703.857V69.4492H706.139V80.8555H703.857V83.1367H701.576V85.418H699.295V87.6992H681.045V108.23H674.201ZM711.2 108.23V74.0117H718.044V78.5742H720.325V76.293H722.606V74.0117H731.731V76.293H734.013V78.5742H736.294V83.1367H734.013V85.418H731.731V83.1367H729.45V80.8555H722.606V83.1367H720.325V85.418H718.044V108.23H711.2ZM739.502 108.23V74.0117H746.346V108.23H739.502ZM739.502 69.4492V62.6055H746.346V69.4492H739.502ZM754.116 108.23V101.387H756.397V99.1055H758.679V96.8242H760.96V94.543H763.241V92.2617H765.522V89.9805H767.804V87.6992H770.085V85.418H772.366V83.1367H774.647V80.8555H754.116V74.0117H783.772V80.8555H781.491V83.1367H779.21V85.418H776.929V87.6992H774.647V89.9805H772.366V92.2617H770.085V94.543H767.804V96.8242H765.522V99.1055H763.241V101.387H783.772V108.23H754.116ZM810.862 87.6992V83.1367H808.581V80.8555H799.456V83.1367H797.175V87.6992H810.862ZM799.456 108.23V105.949H794.894V103.668H792.612V99.1055H790.331V83.1367H792.612V78.5742H794.894V76.293H799.456V74.0117H808.581V76.293H813.144V78.5742H815.425V83.1367H817.706V92.2617H797.175V99.1055H799.456V101.387H808.581V99.1055H810.862V96.8242H817.706V101.387H815.425V103.668H813.144V105.949H808.581V108.23H799.456ZM828.685 108.23V105.949H826.403V103.668H824.122V99.1055H826.403V96.8242H828.685V99.1055H830.966V101.387H833.247V103.668H837.81V101.387H840.091V96.8242H837.81V94.543H835.528V92.2617H830.966V89.9805H828.685V87.6992H826.403V85.418H824.122V78.5742H826.403V76.293H828.685V74.0117H842.372V76.293H844.653V83.1367H840.091V80.8555H837.81V78.5742H833.247V80.8555H830.966V83.1367H833.247V85.418H835.528V87.6992H840.091V89.9805H842.372V92.2617H844.653V94.543H846.935V103.668H844.653V105.949H842.372V108.23H828.685Z" fill="#005577"/>
<rect x="310" y="0.230469" width="280" height="170" fill="#FEFFAB"/>
<path d="M334.409 109.23V106.949H329.847V104.668H327.565V102.387H325.284V97.8242H332.128V100.105H334.409V102.387H345.815V100.105H348.097V93.2617H345.815V90.9805H343.534V88.6992H336.69V86.418H329.847V84.1367H327.565V81.8555H325.284V70.4492H327.565V68.168H329.847V65.8867H332.128V63.6055H348.097V65.8867H350.378V68.168H352.659V72.7305H345.815V70.4492H334.409V72.7305H332.128V79.5742H336.69V81.8555H343.534V84.1367H348.097V86.418H352.659V90.9805H354.94V102.387H352.659V104.668H350.378V106.949H345.815V109.23H334.409ZM370.41 109.23V106.949H365.848V104.668H363.566V100.105H361.285V84.1367H363.566V79.5742H365.848V77.293H370.41V75.0117H379.535V77.293H384.098V79.5742H386.379V86.418H381.816V84.1367H379.535V81.8555H370.41V84.1367H368.129V100.105H370.41V102.387H379.535V100.105H381.816V97.8242H386.379V104.668H384.098V106.949H379.535V109.23H370.41ZM393.793 109.23V63.6055H400.637V79.5742H402.918V77.293H405.199V75.0117H414.324V77.293H418.887V79.5742H421.168V84.1367H423.449V109.23H416.605V84.1367H414.324V81.8555H405.199V84.1367H402.918V86.418H400.637V109.23H393.793ZM450.396 88.6992V84.1367H448.115V81.8555H438.99V84.1367H436.709V88.6992H450.396ZM438.99 109.23V106.949H434.428V104.668H432.146V100.105H429.865V84.1367H432.146V79.5742H434.428V77.293H438.99V75.0117H448.115V77.293H452.678V79.5742H454.959V84.1367H457.24V93.2617H436.709V100.105H438.99V102.387H448.115V100.105H450.396V97.8242H457.24V102.387H454.959V104.668H452.678V106.949H448.115V109.23H438.99ZM481.193 102.387V100.105H483.475V97.8242H485.756V86.418H483.475V84.1367H481.193V81.8555H472.068V84.1367H469.787V100.105H472.068V102.387H481.193ZM472.068 109.23V106.949H467.506V104.668H465.225V100.105H462.943V84.1367H465.225V79.5742H467.506V77.293H472.068V75.0117H481.193V77.293H483.475V79.5742H485.756V63.6055H492.6V109.23H485.756V104.668H483.475V106.949H481.193V109.23H472.068ZM505.075 109.23V106.949H502.794V104.668H500.513V75.0117H507.356V100.105H509.638V102.387H516.481V100.105H518.763V97.8242H521.044V75.0117H527.888V109.23H521.044V104.668H518.763V106.949H516.481V109.23H505.075ZM535.587 109.23V63.6055H542.431V109.23H535.587ZM570.162 88.6992V84.1367H567.881V81.8555H558.756V84.1367H556.475V88.6992H570.162ZM558.756 109.23V106.949H554.193V104.668H551.912V100.105H549.631V84.1367H551.912V79.5742H554.193V77.293H558.756V75.0117H567.881V77.293H572.443V79.5742H574.725V84.1367H577.006V93.2617H556.475V100.105H558.756V102.387H567.881V100.105H570.162V97.8242H577.006V102.387H574.725V104.668H572.443V106.949H567.881V109.23H558.756Z" fill="#96741F"/>
<path d="M37.4799 160.98C32.9493 164.442 30 169.495 30 175.23C30 180.966 32.9493 186.019 37.4799 189.481L102.341 239.044C106.937 242.555 112.662 244.133 118.046 244.226C123.435 244.319 129.206 242.937 133.951 239.638C138.771 236.287 142.047 231.217 142.238 225.322C142.43 219.399 139.458 214.127 134.766 210.542L113.992 194.668L226.308 194.668C232.152 194.668 237.767 192.953 242.116 189.783C246.458 186.618 250 181.571 250 175.23C250 168.89 246.458 163.843 242.116 160.678C237.767 157.508 232.152 155.793 226.308 155.793L113.992 155.793L134.766 139.919C139.458 136.334 142.43 131.062 142.238 125.139C142.047 119.244 138.771 114.174 133.951 110.823C129.206 107.524 123.435 106.142 118.046 106.235C112.662 106.328 106.937 107.906 102.341 111.417L37.4799 160.98Z" stroke="#A63C65" stroke-width="16" stroke-linecap="round" stroke-linejoin="round"/>
<path d="M37.4799 200.98C32.9493 204.442 30 209.495 30 215.23C30 220.966 32.9493 226.019 37.4799 229.481L102.341 279.044C106.937 282.555 112.662 284.133 118.046 284.226C123.435 284.319 129.206 282.937 133.951 279.638C138.771 276.287 142.047 271.217 142.238 265.322C142.43 259.399 139.458 254.127 134.766 250.542L113.992 234.668L226.308 234.668C232.152 234.668 237.767 232.953 242.116 229.783C246.458 226.618 250 221.571 250 215.23C250 208.89 246.458 203.843 242.116 200.678C237.767 197.508 232.152 195.793 226.308 195.793L113.992 195.793L134.766 179.919C139.458 176.334 142.43 171.062 142.238 165.139C142.047 159.244 138.771 154.174 133.951 150.823C129.206 147.524 123.435 146.142 118.046 146.235C112.662 146.328 106.937 147.906 102.341 151.417L37.4799 200.98Z" stroke="#A63C65" stroke-opacity="0.8" stroke-width="16" stroke-linecap="round" stroke-linejoin="round"/>
<path d="M37.4799 240.98C32.9493 244.442 30 249.495 30 255.23C30 260.966 32.9493 266.019 37.4799 269.481L102.341 319.044C106.937 322.555 112.662 324.133 118.046 324.226C123.435 324.319 129.206 322.937 133.951 319.638C138.771 316.287 142.047 311.217 142.238 305.322C142.43 299.399 139.458 294.127 134.766 290.542L113.992 274.668L226.308 274.668C232.152 274.668 237.767 272.953 242.116 269.783C246.458 266.618 250 261.571 250 255.23C250 248.89 246.458 243.843 242.116 240.678C237.767 237.508 232.152 235.793 226.308 235.793L113.992 235.793L134.766 219.919C139.458 216.334 142.43 211.062 142.238 205.139C142.047 199.244 138.771 194.174 133.951 190.823C129.206 187.524 123.435 186.142 118.046 186.235C112.662 186.328 106.937 187.906 102.341 191.417L37.4799 240.98Z" stroke="#A63C65" stroke-opacity="0.6" stroke-width="16" stroke-linecap="round" stroke-linejoin="round"/>
<path d="M37.4799 280.98C32.9493 284.442 30 289.495 30 295.23C30 300.966 32.9493 306.019 37.4799 309.481L102.341 359.044C106.937 362.555 112.662 364.133 118.046 364.226C123.435 364.319 129.206 362.937 133.951 359.638C138.771 356.287 142.047 351.217 142.238 345.322C142.43 339.399 139.458 334.127 134.766 330.542L113.992 314.668L226.308 314.668C232.152 314.668 237.767 312.953 242.116 309.783C246.458 306.618 250 301.571 250 295.23C250 288.89 246.458 283.843 242.116 280.678C237.767 277.508 232.152 275.793 226.308 275.793L113.992 275.793L134.766 259.919C139.458 256.334 142.43 251.062 142.238 245.139C142.047 239.244 138.771 234.174 133.951 230.823C129.206 227.524 123.435 226.142 118.046 226.235C112.662 226.328 106.937 227.906 102.341 231.417L37.4799 280.98Z" stroke="#A63C65" stroke-opacity="0.4" stroke-width="16" stroke-linecap="round" stroke-linejoin="round"/>
<path d="M37.4799 320.98C32.9493 324.442 30 329.495 30 335.23C30 340.966 32.9493 346.019 37.4799 349.481L102.341 399.044C106.937 402.555 112.662 404.133 118.046 404.226C123.435 404.319 129.206 402.937 133.951 399.638C138.771 396.287 142.047 391.217 142.238 385.322C142.43 379.399 139.458 374.127 134.766 370.542L113.992 354.668L226.308 354.668C232.152 354.668 237.767 352.953 242.116 349.783C246.458 346.618 250 341.571 250 335.23C250 328.89 246.458 323.843 242.116 320.678C237.767 317.508 232.152 315.793 226.308 315.793L113.992 315.793L134.766 299.919C139.458 296.334 142.43 291.062 142.238 285.139C142.047 279.244 138.771 274.174 133.951 270.823C129.206 267.524 123.435 266.142 118.046 266.235C112.662 266.328 106.937 267.906 102.341 271.417L37.4799 320.98Z" stroke="#A63C65" stroke-opacity="0.2" stroke-width="16" stroke-linecap="round" stroke-linejoin="round"/>
<path d="M37.4799 360.98C32.9493 364.442 30 369.495 30 375.23C30 380.966 32.9493 386.019 37.4799 389.481L102.341 439.044C106.937 442.555 112.662 444.133 118.046 444.226C123.435 444.319 129.206 442.937 133.951 439.638C138.771 436.287 142.047 431.217 142.238 425.322C142.43 419.399 139.458 414.127 134.766 410.542L113.992 394.668L226.308 394.668C232.152 394.668 237.767 392.953 242.116 389.783C246.458 386.618 250 381.571 250 375.23C250 368.89 246.458 363.843 242.116 360.678C237.767 357.508 232.152 355.793 226.308 355.793L113.992 355.793L134.766 339.919C139.458 336.334 142.43 331.062 142.238 325.139C142.047 319.244 138.771 314.174 133.951 310.823C129.206 307.524 123.435 306.142 118.046 306.235C112.662 306.328 106.937 307.906 102.341 311.417L37.4799 360.98Z" stroke="#A63C65" stroke-opacity="0.1" stroke-width="16" stroke-linecap="round" stroke-linejoin="round"/>
<rect y="0.230469" width="280" height="170" fill="#FFADCC"/>
<path d="M37.4799 70.9796C32.9493 74.4415 30 79.4947 30 85.2305C30 90.9663 32.9493 96.0194 37.4799 99.4814L102.341 149.044C106.937 152.555 112.662 154.133 118.046 154.226C123.435 154.319 129.206 152.937 133.951 149.638C138.771 146.287 142.047 141.217 142.238 135.322C142.43 129.399 139.458 124.127 134.766 120.542L113.992 104.668L226.308 104.668C232.152 104.668 237.767 102.953 242.116 99.783C246.458 96.6184 250 91.5712 250 85.2305C250 78.8897 246.458 73.8425 242.116 70.6779C237.767 67.5083 232.152 65.793 226.308 65.793L113.992 65.793L134.766 49.9189C139.458 46.334 142.43 41.0616 142.238 35.1387C142.047 29.244 138.771 24.1739 133.951 20.8232C129.206 17.5241 123.435 16.1421 118.046 16.2349C112.662 16.3276 106.937 17.9057 102.341 21.4171L37.4799 70.9796Z" stroke="#A63C65" stroke-width="16" stroke-linecap="round" stroke-linejoin="round"/>
</svg>
