<svg width="216" height="75" viewBox="0 0 216 75" fill="none" xmlns="http://www.w3.org/2000/svg">
<path d="M211.957 68.291V64.2715H215.997V68.291H211.957ZM211.957 64.2715V60.1494H215.997V64.2715H211.957ZM211.957 60.1494V56.0479H215.997V60.1494H211.957ZM211.957 56.0479V51.9258H215.997V56.0479H211.957ZM211.957 51.9258V47.8242H215.997V51.9258H211.957ZM211.957 47.8242V43.7021H215.997V47.8242H211.957ZM211.957 43.7021V39.5801H215.997V43.7021H211.957ZM211.957 68.291V72.3516H207.855V68.291H211.957ZM207.855 68.291V64.2715H211.957V68.291H207.855ZM207.855 64.2715V60.1494H211.957V64.2715H207.855ZM207.855 60.1494V56.0479H211.957V60.1494H207.855ZM207.855 56.0479V51.9258H211.957V56.0479H207.855ZM207.855 51.9258V47.8242H211.957V51.9258H207.855ZM207.855 47.8242V43.7021H211.957V47.8242H207.855ZM207.855 43.7021V39.5801H211.957V43.7021H207.855ZM207.855 39.5801V35.5605H211.957V39.5801H207.855ZM203.733 35.5605V31.4385H207.855V35.5605H203.733ZM207.855 68.291V72.3516H203.733V68.291H207.855ZM203.733 68.291V64.2715H207.855V68.291H203.733ZM203.733 64.2715V60.1494H207.855V64.2715H203.733ZM203.733 51.9258V47.8242H207.855V51.9258H203.733ZM203.733 47.8242V43.7021H207.855V47.8242H203.733ZM203.733 39.5801V35.5605H207.855V39.5801H203.733ZM199.632 35.5605V31.4385H203.733V35.5605H199.632ZM203.733 68.291V72.3516H199.632V68.291H203.733ZM199.632 68.291V64.2715H203.733V68.291H199.632ZM199.632 47.8242V43.7021H203.733V47.8242H199.632ZM195.51 35.5605V31.4385H199.632V35.5605H195.51ZM199.632 68.291V72.3516H195.51V68.291H199.632ZM195.51 68.291V64.2715H199.632V68.291H195.51ZM195.51 60.1494V56.0479H199.632V60.1494H195.51ZM195.51 56.0479V51.9258H199.632V56.0479H195.51ZM195.51 47.8242V43.7021H199.632V47.8242H195.51ZM195.51 43.7021V39.5801H199.632V43.7021H195.51ZM191.388 35.5605V31.4385H195.51V35.5605H191.388ZM195.51 68.291V72.3516H191.388V68.291H195.51ZM191.388 68.291V64.2715H195.51V68.291H191.388ZM191.388 60.1494V56.0479H195.51V60.1494H191.388ZM191.388 56.0479V51.9258H195.51V56.0479H191.388ZM191.388 47.8242V43.7021H195.51V47.8242H191.388ZM191.388 43.7021V39.5801H195.51V43.7021H191.388ZM187.368 35.5605V31.4385H191.388V35.5605H187.368ZM191.388 68.291V72.3516H187.368V68.291H191.388ZM187.368 68.291V64.2715H191.388V68.291H187.368ZM187.368 60.1494V56.0479H191.388V60.1494H187.368ZM187.368 56.0479V51.9258H191.388V56.0479H187.368ZM187.368 47.8242V43.7021H191.388V47.8242H187.368ZM187.368 43.7021V39.5801H191.388V43.7021H187.368ZM183.246 35.5605V31.4385H187.368V35.5605H183.246ZM187.368 68.291V72.3516H183.246V68.291H187.368ZM183.246 68.291V64.2715H187.368V68.291H183.246ZM183.246 56.0479V51.9258H187.368V56.0479H183.246ZM179.145 35.5605V31.4385H183.246V35.5605H179.145ZM179.145 68.291V64.2715H183.246V68.291H179.145ZM179.145 64.2715V60.1494H183.246V64.2715H179.145ZM179.145 56.0479V51.9258H183.246V56.0479H179.145ZM179.145 51.9258V47.8242H183.246V51.9258H179.145ZM179.145 39.5801V35.5605H183.246V39.5801H179.145ZM175.022 64.2715V60.1494H179.145V64.2715H175.022ZM175.022 60.1494V56.0479H179.145V60.1494H175.022ZM175.022 56.0479V51.9258H179.145V56.0479H175.022ZM175.022 51.9258V47.8242H179.145V51.9258H175.022ZM175.022 47.8242V43.7021H179.145V47.8242H175.022ZM175.022 43.7021V39.5801H179.145V43.7021H175.022ZM175.022 39.5801V35.5605H179.145V39.5801H175.022Z" fill="#C2ADFF"/>
<path d="M56.3438 34.2305V27.9492H62.5V34.2305H56.3438ZM56.3438 27.9492V21.668H62.5V27.9492H56.3438ZM56.3438 21.668V15.543H62.5V21.668H56.3438ZM50.0938 15.543V9.26172H56.3438V15.543H50.0938ZM50.0938 53.0117V46.7617H56.3438V53.0117H50.0938ZM50.0938 46.7617V40.4805H56.3438V46.7617H50.0938ZM50.0938 40.4805V34.2305H56.3438V40.4805H50.0938ZM50.0938 34.2305V27.9492H56.3438V34.2305H50.0938ZM50.0938 27.9492V21.668H56.3438V27.9492H50.0938ZM50.0938 21.668V15.543H56.3438V21.668H50.0938ZM43.8125 15.543V9.26172H50.0938V15.543H43.8125ZM43.8125 53.0117V46.7617H50.0938V53.0117H43.8125ZM43.8125 46.7617V40.4805H50.0938V46.7617H43.8125ZM43.8125 40.4805V34.2305H50.0938V40.4805H43.8125ZM43.8125 34.2305V27.9492H50.0938V34.2305H43.8125ZM43.8125 27.9492V21.668H50.0938V27.9492H43.8125ZM37.5625 15.543V9.26172H43.8125V15.543H37.5625ZM37.5625 53.0117V46.7617H43.8125V53.0117H37.5625ZM37.5625 46.7617V40.4805H43.8125V46.7617H37.5625ZM37.5625 34.2305V27.9492H43.8125V34.2305H37.5625ZM37.5625 27.9492V21.668H43.8125V27.9492H37.5625ZM31.2812 15.543V9.26172H37.5625V15.543H31.2812ZM31.2812 53.0117V46.7617H37.5625V53.0117H31.2812ZM31.2812 46.7617V40.4805H37.5625V46.7617H31.2812ZM31.2812 34.2305V27.9492H37.5625V34.2305H31.2812ZM31.2812 27.9492V21.668H37.5625V27.9492H31.2812ZM25 15.543V9.26172H31.2812V15.543H25ZM31.2812 65.418V71.6055H25V65.418H31.2812ZM25 65.418V59.293H31.2812V65.418H25ZM25 59.293V53.0117H31.2812V59.293H25ZM25 53.0117V46.7617H31.2812V53.0117H25ZM25 46.7617V40.4805H31.2812V46.7617H25ZM25 34.2305V27.9492H31.2812V34.2305H25ZM25 27.9492V21.668H31.2812V27.9492H25ZM18.875 15.543V9.26172H25V15.543H18.875ZM25 65.418V71.6055H18.875V65.418H25ZM18.875 65.418V59.293H25V65.418H18.875ZM18.875 59.293V53.0117H25V59.293H18.875ZM18.875 53.0117V46.7617H25V53.0117H18.875ZM18.875 46.7617V40.4805H25V46.7617H18.875ZM18.875 34.2305V27.9492H25V34.2305H18.875ZM18.875 27.9492V21.668H25V27.9492H18.875ZM12.5938 15.543V9.26172H18.875V15.543H12.5938ZM18.875 65.418V71.6055H12.5938V65.418H18.875ZM12.5938 65.418V59.293H18.875V65.418H12.5938ZM6.34375 15.543V9.26172H12.5938V15.543H6.34375ZM12.5938 65.418V71.6055H6.34375V65.418H12.5938ZM6.34375 65.418V59.293H12.5938V65.418H6.34375ZM0.0625 15.543V9.26172H6.34375V15.543H0.0625ZM0.0625 65.418V59.293H6.34375V65.418H0.0625ZM0.0625 59.293V53.0117H6.34375V59.293H0.0625ZM0.0625 53.0117V46.7617H6.34375V53.0117H0.0625ZM0.0625 46.7617V40.4805H6.34375V46.7617H0.0625ZM0.0625 40.4805V34.2305H6.34375V40.4805H0.0625ZM0.0625 34.2305V27.9492H6.34375V34.2305H0.0625ZM0.0625 27.9492V21.668H6.34375V27.9492H0.0625ZM0.0625 21.668V15.543H6.34375V21.668H0.0625ZM118.812 65.418V71.6055H112.656V65.418H118.812ZM112.656 65.418V59.293H118.812V65.418H112.656ZM112.656 59.293V53.0117H118.812V59.293H112.656ZM112.656 53.0117V46.7617H118.812V53.0117H112.656ZM112.656 46.7617V40.4805H118.812V46.7617H112.656ZM112.656 40.4805V34.2305H118.812V40.4805H112.656ZM112.656 34.2305V27.9492H118.812V34.2305H112.656ZM112.656 27.9492V21.668H118.812V27.9492H112.656ZM112.656 65.418V71.6055H106.406V65.418H112.656ZM106.406 65.418V59.293H112.656V65.418H106.406ZM106.406 59.293V53.0117H112.656V59.293H106.406ZM106.406 53.0117V46.7617H112.656V53.0117H106.406ZM106.406 46.7617V40.4805H112.656V46.7617H106.406ZM106.406 40.4805V34.2305H112.656V40.4805H106.406ZM106.406 34.2305V27.9492H112.656V34.2305H106.406ZM106.406 27.9492V21.668H112.656V27.9492H106.406ZM106.406 21.668V15.543H112.656V21.668H106.406ZM100.125 15.543V9.26172H106.406V15.543H100.125ZM106.406 65.418V71.6055H100.125V65.418H106.406ZM100.125 65.418V59.293H106.406V65.418H100.125ZM100.125 21.668V15.543H106.406V21.668H100.125ZM93.875 15.543V9.26172H100.125V15.543H93.875ZM100.125 65.418V71.6055H93.875V65.418H100.125ZM93.875 65.418V59.293H100.125V65.418H93.875ZM87.5938 15.543V9.26172H93.875V15.543H87.5938ZM87.5938 65.418V59.293H93.875V65.418H87.5938ZM87.5938 59.293V53.0117H93.875V59.293H87.5938ZM87.5938 53.0117V46.7617H93.875V53.0117H87.5938ZM87.5938 40.4805V34.2305H93.875V40.4805H87.5938ZM87.5938 34.2305V27.9492H93.875V34.2305H87.5938ZM87.5938 27.9492V21.668H93.875V27.9492H87.5938ZM81.3125 15.543V9.26172H87.5938V15.543H81.3125ZM87.5938 65.418V71.6055H81.3125V65.418H87.5938ZM81.3125 65.418V59.293H87.5938V65.418H81.3125ZM81.3125 59.293V53.0117H87.5938V59.293H81.3125ZM81.3125 53.0117V46.7617H87.5938V53.0117H81.3125ZM81.3125 40.4805V34.2305H87.5938V40.4805H81.3125ZM81.3125 34.2305V27.9492H87.5938V34.2305H81.3125ZM81.3125 27.9492V21.668H87.5938V27.9492H81.3125ZM75.1875 15.543V9.26172H81.3125V15.543H75.1875ZM81.3125 65.418V71.6055H75.1875V65.418H81.3125ZM75.1875 65.418V59.293H81.3125V65.418H75.1875ZM75.1875 59.293V53.0117H81.3125V59.293H75.1875ZM75.1875 53.0117V46.7617H81.3125V53.0117H75.1875ZM75.1875 40.4805V34.2305H81.3125V40.4805H75.1875ZM75.1875 34.2305V27.9492H81.3125V34.2305H75.1875ZM75.1875 27.9492V21.668H81.3125V27.9492H75.1875ZM68.9062 15.543V9.26172H75.1875V15.543H68.9062ZM75.1875 65.418V71.6055H68.9062V65.418H75.1875ZM68.9062 65.418V59.293H75.1875V65.418H68.9062ZM62.6562 15.543V9.26172H68.9062V15.543H62.6562ZM68.9062 65.418V71.6055H62.6562V65.418H68.9062ZM62.6562 65.418V59.293H68.9062V65.418H62.6562ZM62.6562 21.668V15.543H68.9062V21.668H62.6562ZM56.375 65.418V59.293H62.6562V65.418H56.375ZM56.375 59.293V53.0117H62.6562V59.293H56.375ZM56.375 53.0117V46.7617H62.6562V53.0117H56.375ZM56.375 46.7617V40.4805H62.6562V46.7617H56.375ZM56.375 40.4805V34.2305H62.6562V40.4805H56.375ZM56.375 34.2305V27.9492H62.6562V34.2305H56.375ZM56.375 27.9492V21.668H62.6562V27.9492H56.375ZM56.375 21.668V15.543H62.6562V21.668H56.375ZM175.125 65.418V71.6055H168.969V65.418H175.125ZM168.969 65.418V59.293H175.125V65.418H168.969ZM168.969 59.293V53.0117H175.125V59.293H168.969ZM168.969 53.0117V46.7617H175.125V53.0117H168.969ZM168.969 46.7617V40.4805H175.125V46.7617H168.969ZM168.969 40.4805V34.2305H175.125V40.4805H168.969ZM168.969 34.2305V27.9492H175.125V34.2305H168.969ZM168.969 27.9492V21.668H175.125V27.9492H168.969ZM168.969 65.418V71.6055H162.719V65.418H168.969ZM162.719 65.418V59.293H168.969V65.418H162.719ZM162.719 59.293V53.0117H168.969V59.293H162.719ZM162.719 53.0117V46.7617H168.969V53.0117H162.719ZM162.719 46.7617V40.4805H168.969V46.7617H162.719ZM162.719 40.4805V34.2305H168.969V40.4805H162.719ZM162.719 34.2305V27.9492H168.969V34.2305H162.719ZM162.719 27.9492V21.668H168.969V27.9492H162.719ZM162.719 21.668V15.543H168.969V21.668H162.719ZM156.438 15.543V9.26172H162.719V15.543H156.438ZM162.719 65.418V71.6055H156.438V65.418H162.719ZM156.438 65.418V59.293H162.719V65.418H156.438ZM156.438 53.0117V46.7617H162.719V53.0117H156.438ZM156.438 21.668V15.543H162.719V21.668H156.438ZM150.188 15.543V9.26172H156.438V15.543H150.188ZM156.438 65.418V71.6055H150.188V65.418H156.438ZM150.188 65.418V59.293H156.438V65.418H150.188ZM143.906 15.543V9.26172H150.188V15.543H143.906ZM150.188 65.418V71.6055H143.906V65.418H150.188ZM143.906 65.418V59.293H150.188V65.418H143.906ZM143.906 46.7617V40.4805H150.188V46.7617H143.906ZM143.906 40.4805V34.2305H150.188V40.4805H143.906ZM143.906 34.2305V27.9492H150.188V34.2305H143.906ZM143.906 27.9492V21.668H150.188V27.9492H143.906ZM137.625 15.543V9.26172H143.906V15.543H137.625ZM143.906 65.418V71.6055H137.625V65.418H143.906ZM137.625 65.418V59.293H143.906V65.418H137.625ZM137.625 53.0117V46.7617H143.906V53.0117H137.625ZM137.625 46.7617V40.4805H143.906V46.7617H137.625ZM137.625 40.4805V34.2305H143.906V40.4805H137.625ZM137.625 34.2305V27.9492H143.906V34.2305H137.625ZM137.625 27.9492V21.668H143.906V27.9492H137.625ZM131.5 15.543V9.26172H137.625V15.543H131.5ZM137.625 65.418V71.6055H131.5V65.418H137.625ZM131.5 65.418V59.293H137.625V65.418H131.5ZM131.5 53.0117V46.7617H137.625V53.0117H131.5ZM131.5 46.7617V40.4805H137.625V46.7617H131.5ZM131.5 40.4805V34.2305H137.625V40.4805H131.5ZM131.5 34.2305V27.9492H137.625V34.2305H131.5ZM131.5 27.9492V21.668H137.625V27.9492H131.5ZM125.219 15.543V9.26172H131.5V15.543H125.219ZM131.5 65.418V71.6055H125.219V65.418H131.5ZM125.219 65.418V59.293H131.5V65.418H125.219ZM118.969 15.543V9.26172H125.219V15.543H118.969ZM118.969 65.418V59.293H125.219V65.418H118.969ZM118.969 59.293V53.0117H125.219V59.293H118.969ZM118.969 21.668V15.543H125.219V21.668H118.969ZM112.688 59.293V53.0117H118.969V59.293H112.688ZM112.688 53.0117V46.7617H118.969V53.0117H112.688ZM112.688 46.7617V40.4805H118.969V46.7617H112.688ZM112.688 40.4805V34.2305H118.969V40.4805H112.688ZM112.688 34.2305V27.9492H118.969V34.2305H112.688ZM112.688 27.9492V21.668H118.969V27.9492H112.688ZM112.688 21.668V15.543H118.969V21.668H112.688Z" fill="#C2ADFF"/>
</svg>
